<?xml version="1.0" encoding="utf-8"?>
<svg version="1.1" xmlns:xlink="http://www.w3.org/1999/xlink" width="32px" height="26px" xmlns="http://www.w3.org/2000/svg">
  <g transform="matrix(1 0 0 1 -1345 -1172 )">
    <path d="M 27.724137931034463 9.6022727272726  C 28.367816091954037 8.912878787879114  28.689655172413783 8.075757575757534  28.689655172413783 7.090909090909249  C 28.689655172413783 6.106060606060616  28.367816091954037 5.268939393939384  27.724137931034463 4.579545454545549  C 27.080459770114967 3.8901515151513673  26.298850574712684 3.545454545454451  25.37931034482763 3.545454545454451  L 24.275862068965537 3.545454545454451  L 24.275862068965537 10.63636363636335  L 25.37931034482763 10.63636363636335  C 26.298850574712684 10.63636363636335  27.080459770114967 10.291666666666783  27.724137931034463 9.6022727272726  Z M 1.2931034482758357 24.615056818181852  C 0.43103448275862566 23.691761363636648  0 22.57765151515137  0 21  L 30.896551724137886 21  C 30.896551724137886 22.57765151515137  30.46551724137928 23.691761363636648  29.603448275862114 24.615056818181852  C 28.74137931034486 25.538352272727398  27.701149425287316 26  26.48275862068964 26  L 4.413793103448267 26  C 3.195402298850571 26  2.1551724137931076 25.538352272727398  1.2931034482758357 24.615056818181852  Z M 30.060344827586217 2.077414772727399  C 31.353448275862114 3.462357954545549  32 5.133522727272601  32 7.090909090909249  C 32 9.04829545454555  31.353448275862114 10.7194602272726  30.060344827586217 12.10440340909075  C 28.76724137931036 13.48934659090925  27.206896551724142 14.18181818181815  25.37931034482763 14.18181818181815  L 24.275862068965537 14.18181818181815  L 24.275862068965537 14.772727272727398  C 24.275862068965537 15.905303030303084  23.896551724137886 16.87784090909075  23.13793103448273 17.69034090909075  C 22.37931034482763 18.50284090909075  21.47126436781609 18.90909090909075  20.413793103448267 19  L 8.275862068965518 19  C 7.218390804597695 18.90909090909075  6.310344827586215 18.50284090909075  5.551724137930995 17.69034090909075  C 4.7931034482758355 16.87784090909075  4.413793103448267 15.905303030303084  5 14.772727272727398  L 5 1.1818181818181503  C 4.413793103448267 0.8617424242424664  4.522988505747145 0.5847537878787668  4.741379310344841 0.3508522727273992  C 4.959770114942537 0.11695075757568382  5.218390804597695 0  5.517241379310359 0  L 25.37931034482763 0  C 27.206896551724142 0  28.76724137931036 0.6924715909092489  30.060344827586217 2.077414772727399  Z " fill-rule="nonzero" fill="#333333" stroke="none" transform="matrix(1 0 0 1 1345 1172 )" />
  </g>
</svg>