<?xml version="1.0" encoding="utf-8"?>
<svg version="1.1" xmlns:xlink="http://www.w3.org/1999/xlink" width="23px" height="25px" xmlns="http://www.w3.org/2000/svg">
  <g transform="matrix(1 0 0 1 -388 -330 )">
    <path d="M 22.421875 11.05584082156611  C 22.807291666666668 11.430252460419341  23 11.911638853230636  23 12.5  C 23 13.077663671373557  22.807291666666668 13.564398801882755  22.421875 13.9602053915276  L 12.25 24.406290115532734  C 11.84375 24.80209670517758  11.369791666666668 25  10.828125 25  C 10.296875 25  9.828125 24.80209670517758  9.421875 24.406290115532734  L 8.25 23.202824133504492  C 7.854166666666667 22.796320068463842  7.65625 22.30958493795464  7.65625 21.742618741976894  C 7.65625 21.175652545999146  7.854166666666667 20.688917415489943  8.25 20.282413350449293  L 12.828125000000002 15.5808729139923  L 1.8281250000000002 15.5808729139923  C 1.2864583333333335 15.5808729139923  0.8463541666666667 15.380295250320925  0.5078125 14.979139922978177  C 0.16927083333333331 14.57798459563543  0 14.09392383397518  0 13.526957637997434  L 0 11.473042362002566  C 0 10.906076166024818  0.16927083333333331 10.42201540436457  0.5078125 10.020860077021823  C 0.8463541666666667 9.619704749679075  1.2864583333333335 9.419127086007704  1.8281250000000002 9.419127086007704  L 12.828125000000002 9.419127086007704  L 8.25 4.701540436456996  C 7.854166666666667 4.316431322207959  7.65625 3.8350449293966635  7.65625 3.2573812580231065  C 7.65625 2.679717586649552  7.854166666666667 2.1983311938382544  8.25 1.8132220795892162  L 9.421875 0.6097560975609762  C 9.817708333333334 0.20325203252032353  10.286458333333334 0  10.828125 0  C 11.380208333333334 0  11.854166666666668 0.20325203252032353  12.25 0.6097560975609762  L 22.421875 11.05584082156611  Z " fill-rule="nonzero" fill="#d7d7d7" stroke="none" transform="matrix(1 0 0 1 388 330 )" />
  </g>
</svg>