<?xml version="1.0" encoding="utf-8"?>
<svg version="1.1" xmlns:xlink="http://www.w3.org/1999/xlink" width="24px" height="25px" xmlns="http://www.w3.org/2000/svg">
  <g transform="matrix(1 0 0 1 -17 -330 )">
    <path d="M 23.470108695652176 10.020860077021823  C 23.823369565217387 10.42201540436457  24 10.906076166024818  24 11.473042362002566  L 24 13.526957637997434  C 24 14.09392383397518  23.823369565217387 14.57798459563543  23.470108695652176 14.979139922978177  C 23.11684782608696 15.380295250320925  22.657608695652176 15.5808729139923  22.092391304347824 15.5808729139923  L 10.61413043478261 15.5808729139923  L 15.391304347826086 20.298459563543002  C 15.804347826086959 20.683568677792042  16.01086956521739 21.164955070603337  16.01086956521739 21.742618741976894  C 16.01086956521739 22.32028241335045  15.804347826086959 22.801668806161747  15.391304347826086 23.186777920410783  L 14.168478260869565 24.406290115532734  C 13.766304347826088 24.80209670517758  13.277173913043477 25  12.701086956521738 25  C 12.13586956521739 25  11.641304347826088 24.80209670517758  11.217391304347826 24.406290115532734  L 0.6032608695652174 13.94415917843389  C 0.20108695652173927 13.548352588789045  0 13.066966195977747  0 12.5  C 0 11.943731279418056  0.20108695652173927 11.456996148908857  0.6032608695652174 11.0397946084724  L 11.217391304347826 0.6097560975609762  C 11.630434782608697 0.20325203252032353  12.125 0  12.701086956521738 0  C 13.266304347826086 0  13.755434782608697 0.20325203252032353  14.168478260869565 0.6097560975609762  L 15.391304347826086 1.7971758664955066  C 15.804347826086959 2.203679931536157  16.01086956521739 2.6904150620453535  16.01086956521739 3.2573812580231065  C 16.01086956521739 3.8243474540008537  15.804347826086959 4.3110825845100536  15.391304347826086 4.717586649550706  L 10.61413043478261 9.419127086007704  L 22.092391304347824 9.419127086007704  C 22.657608695652176 9.419127086007704  23.11684782608696 9.619704749679075  23.470108695652176 10.020860077021823  Z " fill-rule="nonzero" fill="#d7d7d7" stroke="none" transform="matrix(1 0 0 1 17 330 )" />
  </g>
</svg>