<?xml version="1.0" encoding="utf-8"?>
<svg version="1.1" xmlns:xlink="http://www.w3.org/1999/xlink" width="28px" height="30px" xmlns="http://www.w3.org/2000/svg">
  <g transform="matrix(1 0 0 1 -1522 -1172 )">
    <path d="M 6.97265625 2.0117187500000666  C 9.117621527777787 0.670572916666689  11.46006944444447 0  14 0  C 16.53993055555553 0  18.882378472222214 0.670572916666689  21.02734375 2.0117187500000666  C 23.172309027777786 3.3528645833333446  24.870659722222214 5.172526041666655  26.122395833333364 7.470703125  C 27.37413194444447 9.768880208333343  28 12.27864583333331  28 15  C 28 17.721354166666686  27.37413194444447 20.231119791666657  26.122395833333364 22.529296875  C 24.870659722222214 24.827473958333343  23.172309027777786 26.647135416666657  21.02734375 27.988281249999936  C 18.882378472222214 29.329427083333314  16.53993055555553 30  14 30  C 11.46006944444447 30  9.117621527777787 29.329427083333314  6.97265625 27.988281249999936  C 4.827690972222212 26.647135416666657  3.1293402777777883 24.827473958333343  1.8776041666666354 22.529296875  C 0.6258680555555295 20.231119791666657  0 17.721354166666686  0 15  C 0 12.27864583333331  0.6258680555555295 9.768880208333343  1.8776041666666354 7.470703125  C 3.1293402777777883 5.172526041666655  4.827690972222212 3.3528645833333446  6.97265625 2.0117187500000666  Z M 11.083333333333364 22.32421875  L 21 16.074218750000064  C 21.388888888888893 15.839843750000066  21.583333333333364 15.481770833333343  21.583333333333364 15  C 21.583333333333364 14.518229166666657  21.388888888888893 14.160156249999932  21 13.925781249999932  L 11.083333333333364 7.67578125  C 10.706597222222213 7.428385416666655  10.317708333333364 7.4218749999999325  9.916666666666636 7.6562499999999325  C 9.527777777777787 7.903645833333278  9.333333333333364 8.268229166666721  9.333333333333364 8.750000000000068  L 9.333333333333364 21.249999999999936  C 9.333333333333364 21.73177083333328  9.527777777777787 22.09635416666672  9.916666666666636 22.343750000000064  C 10.111111111111107 22.44791666666672  10.30555555555553 22.5  10.5 22.5  C 10.706597222222213 22.5  10.901041666666636 22.44140625  11.083333333333364 22.32421875  Z " fill-rule="nonzero" fill="#666666" stroke="none" transform="matrix(1 0 0 1 1522 1172 )" />
  </g>
</svg>