<?xml version="1.0" encoding="utf-8"?>
<svg version="1.1" xmlns:xlink="http://www.w3.org/1999/xlink" width="22px" height="22px" xmlns="http://www.w3.org/2000/svg">
  <g transform="matrix(1 0 0 1 -1594 -335 )">
    <path d="M 16.184895833333258 14.895833333333371  C 16.3663194444444 14.714409722222172  16.45703125 14.494791666666629  16.45703125 14.236979166666629  C 16.45703125 13.988715277777828  16.3663194444444 13.773871527777828  16.184895833333258 13.592447916666629  L 13.592447916666714 11  L 16.184895833333258 8.407552083333371  C 16.3663194444444 8.226128472222172  16.45703125 8.011284722222172  16.45703125 7.763020833333371  C 16.45703125 7.505208333333371  16.3663194444444 7.285590277777715  16.184895833333258 7.104166666666629  L 14.895833333333258 5.815104166666629  C 14.714409722222229 5.633680555555544  14.494791666666742 5.54296875  14.236979166666742 5.54296875  C 13.988715277777771 5.54296875  13.773871527777771 5.633680555555544  13.592447916666714 5.815104166666629  L 11 8.407552083333371  L 8.407552083333286 5.815104166666629  C 8.226128472222229 5.633680555555544  8.011284722222229 5.54296875  7.763020833333287 5.54296875  C 7.505208333333287 5.54296875  7.2855902777777715 5.633680555555544  7.104166666666713 5.815104166666629  L 5.815104166666713 7.104166666666629  C 5.6336805555556 7.285590277777715  5.54296875 7.505208333333371  5.54296875 7.763020833333371  C 5.54296875 8.011284722222172  5.6336805555556 8.226128472222172  5.815104166666713 8.407552083333371  L 8.407552083333286 11  L 5.815104166666713 13.592447916666629  C 5.6336805555556 13.773871527777828  5.54296875 13.988715277777828  5.54296875 14.236979166666629  C 5.54296875 14.494791666666629  5.6336805555556 14.714409722222172  5.815104166666713 14.895833333333371  L 7.104166666666713 16.18489583333337  C 7.2855902777777715 16.366319444444457  7.505208333333287 16.45703125  7.763020833333287 16.45703125  C 8.011284722222229 16.45703125  8.226128472222229 16.366319444444457  8.407552083333286 16.18489583333337  L 11 13.592447916666629  L 13.592447916666714 16.18489583333337  C 13.773871527777771 16.366319444444457  13.988715277777771 16.45703125  14.236979166666742 16.45703125  C 14.494791666666742 16.45703125  14.714409722222229 16.366319444444457  14.895833333333258 16.18489583333337  L 16.184895833333258 14.895833333333371  Z M 20.524739583333258 5.478515625  C 21.50824652777777 7.163845486111086  22 9.004340277777715  22 11  C 22 12.995659722222172  21.50824652777777 14.836154513888912  20.524739583333258 16.521484375  C 19.541232638888857 18.206814236111086  18.206814236111143 19.541232638888914  16.521484375 20.52473958333337  C 14.836154513888857 21.50824652777783  12.995659722222229 22  11 22  C 9.004340277777771 22  7.163845486111114 21.50824652777783  5.478515625 20.52473958333337  C 3.7931857638888857 19.541232638888914  2.4587673611111143 18.206814236111086  1.475260416666714 16.521484375  C 0.49175347222222854 14.836154513888912  0 12.995659722222172  0 11  C 0 9.004340277777715  0.49175347222222854 7.163845486111086  1.475260416666714 5.478515625  C 2.4587673611111143 3.793185763888914  3.7931857638888857 2.458767361111086  5.478515625 1.475260416666629  C 7.163845486111114 0.4917534722221717  9.004340277777771 0  11 0  C 12.995659722222229 0  14.836154513888857 0.4917534722221717  16.521484375 1.475260416666629  C 18.206814236111143 2.458767361111086  19.541232638888857 3.793185763888914  20.524739583333258 5.478515625  Z " fill-rule="nonzero" fill="#333333" stroke="none" transform="matrix(1 0 0 1 1594 335 )" />
  </g>
</svg>