<?xml version="1.0" encoding="utf-8"?>
<svg version="1.1" xmlns:xlink="http://www.w3.org/1999/xlink" width="69px" height="67px" xmlns="http://www.w3.org/2000/svg">
  <g transform="matrix(1 0 0 1 -2176 -387 )">
    <path d="M 2210.5 387  C 2229.82 387  2245 401.74  2245 420.5  C 2245 439.26  2229.82 454  2210.5 454  C 2191.18 454  2176 439.26  2176 420.5  C 2176 401.74  2191.18 387  2210.5 387  Z " fill-rule="nonzero" fill="#ffffff" stroke="none" />
    <path d="M 2210.5 387.5  C 2229.54 387.5  2244.5 402.02  2244.5 420.5  C 2244.5 438.98  2229.54 453.5  2210.5 453.5  C 2191.46 453.5  2176.5 438.98  2176.5 420.5  C 2176.5 402.02  2191.46 387.5  2210.5 387.5  Z " stroke-width="1" stroke="#797979" fill="none" />
  </g>
</svg>