<?xml version="1.0" encoding="utf-8"?>
<svg version="1.1" xmlns:xlink="http://www.w3.org/1999/xlink" width="29px" height="23px" xmlns="http://www.w3.org/2000/svg">
  <g transform="matrix(1 0 0 1 -2427 -630 )">
    <path d="M 2441.5 630  C 2449.62 630  2456 635.06  2456 641.5  C 2456 647.94  2449.62 653  2441.5 653  C 2433.38 653  2427 647.94  2427 641.5  C 2427 635.06  2433.38 630  2441.5 630  Z " fill-rule="nonzero" fill="#ffffff" stroke="none" />
    <path d="M 2441.5 630.5  C 2449.34 630.5  2455.5 635.34  2455.5 641.5  C 2455.5 647.66  2449.34 652.5  2441.5 652.5  C 2433.66 652.5  2427.5 647.66  2427.5 641.5  C 2427.5 635.34  2433.66 630.5  2441.5 630.5  Z " stroke-width="1" stroke="#797979" fill="none" />
  </g>
</svg>