<?xml version="1.0" encoding="utf-8"?>
<svg version="1.1" xmlns:xlink="http://www.w3.org/1999/xlink" width="69px" height="70px" xmlns="http://www.w3.org/2000/svg">
  <g transform="matrix(1 0 0 1 -2198 -2568 )">
    <path d="M 2232.5 2568  C 2251.82 2568  2267 2583.4  2267 2603  C 2267 2622.6  2251.82 2638  2232.5 2638  C 2213.18 2638  2198 2622.6  2198 2603  C 2198 2583.4  2213.18 2568  2232.5 2568  Z " fill-rule="nonzero" fill="#ffffff" stroke="none" />
    <path d="M 2232.5 2568.5  C 2251.54 2568.5  2266.5 2583.68  2266.5 2603  C 2266.5 2622.32  2251.54 2637.5  2232.5 2637.5  C 2213.46 2637.5  2198.5 2622.32  2198.5 2603  C 2198.5 2583.68  2213.46 2568.5  2232.5 2568.5  Z " stroke-width="1" stroke="#797979" fill="none" />
  </g>
</svg>