<?xml version="1.0" encoding="utf-8"?>
<svg version="1.1" xmlns:xlink="http://www.w3.org/1999/xlink" width="22px" height="22px" xmlns="http://www.w3.org/2000/svg">
  <g transform="matrix(1 0 0 1 -812 -1907 )">
    <path d="M 823 1907  C 829.16 1907  834 1911.84  834 1918  C 834 1924.16  829.16 1929  823 1929  C 816.84 1929  812 1924.16  812 1918  C 812 1911.84  816.84 1907  823 1907  Z " fill-rule="nonzero" fill="#ffffff" stroke="none" />
    <path d="M 823 1907.5  C 828.88 1907.5  833.5 1912.12  833.5 1918  C 833.5 1923.88  828.88 1928.5  823 1928.5  C 817.12 1928.5  812.5 1923.88  812.5 1918  C 812.5 1912.12  817.12 1907.5  823 1907.5  Z " stroke-width="1" stroke="#797979" fill="none" />
  </g>
</svg>