<?xml version="1.0" encoding="utf-8"?>
<svg version="1.1" xmlns:xlink="http://www.w3.org/1999/xlink" width="16px" height="15px" xmlns="http://www.w3.org/2000/svg">
  <g transform="matrix(1 0 0 1 -244 -519 )">
    <path d="M 15.839679358717435 12.268041237113401  C 15.946559786239145 12.439862542955321  16 12.637457044673537  16 12.860824742268042  C 16 13.084192439862539  15.946559786239145 13.281786941580753  15.839679358717435 13.45360824742268  L 15.03807615230461 14.742268041237113  C 14.931195724782901 14.914089347079033  14.808283233132935 15  14.669338677354709 15  C 14.530394121576487 15  14.40748162992652 14.914089347079033  14.30060120240481 14.742268041237113  L 8 4.613402061855671  L 1.6993987975951903 14.742268041237113  C 1.5925183700734804 14.914089347079033  1.469605878423514 15  1.3306613226452906 15  C 1.1917167668670676 15  1.0688042752171012 14.914089347079033  0.9619238476953907 14.742268041237113  L 0.16032064128256512 13.45360824742268  C 0.0534402137608552 13.281786941580753  0 13.084192439862539  0 12.860824742268042  C 0 12.637457044673537  0.0534402137608552 12.439862542955321  0.16032064128256512 12.268041237113401  L 7.6312625250501 0.25773195876288735  C 7.7381429525718115 0.08591065292096023  7.861055444221778 0  8 0  C 8.138944555778224 0  8.26185704742819 0.08591065292096023  8.3687374749499 0.25773195876288735  L 15.839679358717435 12.268041237113401  Z " fill-rule="nonzero" fill="#cbccd0" stroke="none" transform="matrix(1 0 0 1 244 519 )" />
  </g>
</svg>