<?xml version="1.0" encoding="utf-8"?>
<svg version="1.1" xmlns:xlink="http://www.w3.org/1999/xlink" width="40px" height="50px" xmlns="http://www.w3.org/2000/svg">
  <defs>
    <filter x="1009px" y="242px" width="40px" height="50px" filterUnits="userSpaceOnUse" id="filter108">
      <feOffset dx="1" dy="1" in="SourceAlpha" result="shadowOffsetInner" />
      <feGaussianBlur stdDeviation="2.5" in="shadowOffsetInner" result="shadowGaussian" />
      <feComposite in2="shadowGaussian" operator="atop" in="SourceAlpha" result="shadowComposite" />
      <feColorMatrix type="matrix" values="0 0 0 0 0  0 0 0 0 0  0 0 0 0 0  0 0 0 0.6980392156862745 0  " in="shadowComposite" />
    </filter>
    <g id="widget109">
      <path d="M 1028 285.0369284683536  C 1022.2 275.4073405959099  1013.5 269.6295878724437  1013.5 260  C 1013.5 254.9857142857143  1016.4 246.5  1028 246.5  C 1039.6 246.5  1042.5 254.9857142857143  1042.5 260  C 1042.5 269.6295878724437  1033.8 275.4073405959099  1028 285.0369284683536  Z " fill-rule="nonzero" fill="#009dd9" stroke="none" />
      <path d="M 1028 286  C 1022 276  1013 270  1013 260  C 1013 254.8  1016 246  1028 246  C 1040 246  1043 254.8  1043 260  C 1043 270  1034 276  1028 286  Z M 1028 284.0738569367072  C 1033.6 274.81468119181983  1042 269.2591757448874  1042 260  C 1042 255.17142857142858  1039.2 247  1028 247  C 1016.8 247  1014 255.17142857142858  1014 260  C 1014 269.2591757448874  1022.4 274.81468119181983  1028 284.0738569367072  Z " fill-rule="nonzero" fill="#ffffff" stroke="none" />
    </g>
  </defs>
  <g transform="matrix(1 0 0 1 -1009 -242 )">
    <use xlink:href="#widget109" filter="url(#filter108)" />
    <use xlink:href="#widget109" />
  </g>
</svg>