<?xml version="1.0" encoding="utf-8"?>
<svg version="1.1" xmlns:xlink="http://www.w3.org/1999/xlink" width="14px" height="20px" xmlns="http://www.w3.org/2000/svg">
  <defs>
    <mask fill="white" id="clip23">
      <path d="M 14 10.921052631578947  L 0 0.13157894736842105  L 0 16.44736842105263  L 4.407407407407407 13.026315789473683  L 7.388888888888889 19.605263157894736  L 10.75925925925926 17.5  L 7.388888888888889 11.44736842105263  L 14 10.921052631578947  Z " fill-rule="evenodd" />
    </mask>
  </defs>
  <g transform="matrix(1 0 0 1 -588 -345 )">
    <path d="M 14 10.921052631578947  L 0 0.13157894736842105  L 0 16.44736842105263  L 4.407407407407407 13.026315789473683  L 7.388888888888889 19.605263157894736  L 10.75925925925926 17.5  L 7.388888888888889 11.44736842105263  L 14 10.921052631578947  Z " fill-rule="nonzero" fill="#000000" stroke="none" transform="matrix(1 0 0 1 588 345 )" />
    <path d="M 14 10.921052631578947  L 0 0.13157894736842105  L 0 16.44736842105263  L 4.407407407407407 13.026315789473683  L 7.388888888888889 19.605263157894736  L 10.75925925925926 17.5  L 7.388888888888889 11.44736842105263  L 14 10.921052631578947  Z " stroke-width="2" stroke="#cccccc" fill="none" transform="matrix(1 0 0 1 588 345 )" mask="url(#clip23)" />
  </g>
</svg>