<svg t="1684691665614" class="icon" viewBox="0 0 1024 1024" version="1.1" xmlns="http://www.w3.org/2000/svg" p-id="10294" width="200" height="200"><path d="M867.648 951.296 512 595.648l-355.648 355.648c-11.52 11.52-30.272 11.52-41.856 0L72.64 909.44c-11.52-11.52-11.52-30.272 0-41.856L428.352 512 72.64 156.352c-11.52-11.52-11.52-30.272 0-41.856l41.856-41.856c11.52-11.52 30.272-11.52 41.856 0L512 428.288l355.648-355.648c11.52-11.52 30.272-11.52 41.856 0l41.856 41.856c11.52 11.52 11.52 30.272 0 41.856L595.648 512l355.648 355.648c11.52 11.52 11.52 30.272 0 41.856l-41.856 41.856C897.984 962.88 879.168 962.88 867.648 951.296L867.648 951.296z" p-id="10295" fill="#8a8a8a"></path></svg>