<?xml version="1.0" encoding="utf-8"?>
<svg version="1.1" xmlns:xlink="http://www.w3.org/1999/xlink" width="43px" height="43px" xmlns="http://www.w3.org/2000/svg">
  <g transform="matrix(1 0 0 1 -1840 -1997 )">
    <path d="M 1861.5 1997  C 1873.54 1997  1883 2006.46  1883 2018.5  C 1883 2030.54  1873.54 2040  1861.5 2040  C 1849.46 2040  1840 2030.54  1840 2018.5  C 1840 2006.46  1849.46 1997  1861.5 1997  Z " fill-rule="nonzero" fill="#ffffff" stroke="none" />
    <path d="M 1861.5 1997.5  C 1873.26 1997.5  1882.5 2006.74  1882.5 2018.5  C 1882.5 2030.26  1873.26 2039.5  1861.5 2039.5  C 1849.74 2039.5  1840.5 2030.26  1840.5 2018.5  C 1840.5 2006.74  1849.74 1997.5  1861.5 1997.5  Z " stroke-width="1" stroke="#797979" fill="none" />
  </g>
</svg>