<?xml version="1.0" encoding="utf-8"?>
<svg version="1.1" xmlns:xlink="http://www.w3.org/1999/xlink" width="69px" height="65px" xmlns="http://www.w3.org/2000/svg">
  <g transform="matrix(1 0 0 1 -5833 -3096 )">
    <path d="M 57.51382211538461 40.625  C 58.09435096153847 40.87890625  58.38461538461539 41.28797743055555  58 41.852213541666664  L 58 52.8125  C 58.38461538461539 56.16970486111111  57.21664663461539 59.04025607638889  54.88070913461539 61.42415364583333  C 52.54477163461539 63.80805121527777  49.73197115384616 65  46.44230769230769 65  L 11.942307692307692 65  C 8.65264423076923 65  5.83984375 63.80805121527777  3.50390625 61.42415364583333  C 1.16796875 59.04025607638889  0 56.16970486111111  0 52.8125  L 0 17.604166666666668  C 0 14.24696180555555  1.16796875 11.376410590277775  3.50390625 8.99251302083333  C 5.83984375 6.60861545138888  8.65264423076923 5.416666666666669  11.942307692307692 6  L 22.51622596153846 6  L 22.51622596153846 5.416666666666669  C 22.875600961538467 5.416666666666669  23.18659855769231 5.550672743055549  23.44921875 5.818684895833331  C 23.711838942307693 6.086697048611105  23.84314903846154 6.404079861111105  23.84314903846154 6.770833333333331  C 23.84314903846154 7.532552083333331  23.48377403846154 7.983940972222218  22.76502403846154 8.125  C 20.63641826923077 8.858506944444443  18.798076923076927 9.704861111111105  17.25 10.6640625  C 16.973557692307693 10.776909722222218  16.752403846153847 10.83333333333333  16.586538461538463 10.83333333333333  L 11.942307692307692 10.83333333333333  C 10.117788461538462 10.83333333333333  8.555889423076925 11.49631076388888  7.256610576923077 12.822265625  C 5.957331730769232 14.148220486111105  5.307692307692308 15.7421875  6 17.604166666666668  L 6 52.8125  C 5.307692307692308 54.67447916666667  5.957331730769232 56.26844618055555  7.256610576923077 57.59440104166667  C 8.555889423076925 58.92035590277777  10.117788461538462 59.58333333333333  11.942307692307692 59  L 46.44230769230769 59  C 48.26682692307692 59.58333333333333  49.82872596153847 58.92035590277777  51.12800480769231 57.59440104166667  C 52.42728365384616 56.26844618055555  53.07692307692308 54.67447916666667  53.07692307692308 52.8125  L 53.07692307692308 43.756510416666664  C 53.07692307692308 43.220486111111114  53.32572115384615 42.81141493055555  53.82331730769231 42.529296875  C 54.597355769230774 42.16254340277777  55.34375 41.640625  56.0625 40.963541666666664  C 56.5048076923077 40.51215277777777  56.98858173076924 40.39930555555555  57.51382211538461 40.625  Z M 69 18.958333333333332  C 69 19.691840277777775  68.73737980769232 20.326605902777775  68.21213942307692 20.862630208333332  L 52.2890625 37.112630208333336  C 51.79146634615385 37.648654513888886  51.16947115384615 37.916666666666664  50.42307692307692 37.916666666666664  C 50.09134615384615 37.916666666666664  49.745793269230774 37.84613715277777  49.38641826923077 37.705078125  C 48.30829326923077 37.22547743055555  47.76923076923077 36.393229166666664  47.76923076923077 35.208333333333336  L 47.76923076923077 27.083333333333332  L 41.13461538461539 27.083333333333332  C 32.205528846153854 27.083333333333332  26.15144230769231 28.931206597222218  22.972355769230766 32.626953125  C 19.68269230769231 36.491970486111114  18.659855769230774 43.1640625  19.903846153846153 52.64322916666667  C 19.986778846153847 53.29210069444444  19.71033653846154 53.77170138888888  19.074519230769234 54.08203125  C 18.853365384615387 54.13845486111111  18.687500000000004 54.16666666666667  18.576923076923077 54.16666666666667  C 18.134615384615387 54.16666666666667  17.775240384615387 53.98328993055555  17.498798076923077 53.61653645833333  C 17.22235576923077 53.22157118055555  16.932091346153847 52.78428819444444  16.628004807692307 52.3046875  C 16.323918269230774 51.82508680555555  15.777944711538463 50.85883246527777  14.990084134615383 49.40592447916667  C 14.202223557692308 47.95301649305555  13.518028846153847 46.549479166666664  12.9375 45.1953125  C 12.356971153846153 43.841145833333336  11.824819711538463 42.233072916666664  11.341045673076923 40.37109375  C 10.857271634615385 38.509114583333336  10.615384615384617 36.788194444444436  10.615384615384617 35.208333333333336  C 10.615384615384617 33.825954861111114  10.66376201923077 32.542317708333336  10.760516826923077 31.357421875  C 10.857271634615385 30.17252604166666  11.05078125 28.90299479166666  11.341045673076923 27.548828125  C 11.631310096153847 26.194661458333332  12.018329326923078 24.95334201388888  12.502103365384617 23.824869791666668  C 12.985877403846155 22.696397569444443  13.635516826923078 21.54676649305555  14.451021634615383 20.3759765625  C 15.266526442307693 19.205186631944443  16.213341346153847 18.16134982638888  17.291466346153847 17.244466145833332  C 18.369591346153847 16.327582465277775  19.675781250000004 15.460069444444443  21.210036057692307 14.64192708333333  C 22.744290865384617 13.823784722222218  24.465144230769234 13.1396484375  26.372596153846153 12.58951822916667  C 28.280048076923077 12.03938802083333  30.484675480769234 11.609157986111105  32.98647836538461 11.298828125  C 35.48828125000001 10.98849826388888  38.20432692307693 10.83333333333333  41.13461538461539 10.83333333333333  L 47.76923076923077 10.83333333333333  L 47.76923076923077 2.708333333333331  C 47.76923076923077 1.5234375  48.30829326923077 0.6911892361111055  49.38641826923077 0.21158854166666907  C 49.745793269230774 0.0705295138888945  50.09134615384615 0  50.42307692307692 0  C 51.141826923076934 0  51.76382211538462 0.2680121527777818  52.2890625 0.8040364583333309  L 68.21213942307692 17.054036458333332  C 68.73737980769232 17.59006076388888  69 18.22482638888888  69 18.958333333333332  Z " fill-rule="nonzero" fill="#f2f2f2" stroke="none" transform="matrix(1 0 0 1 5833 3096 )" />
  </g>
</svg>