<?xml version="1.0" encoding="utf-8"?>
<svg version="1.1" xmlns:xlink="http://www.w3.org/1999/xlink" width="11px" height="15px" xmlns="http://www.w3.org/2000/svg">
  <g transform="matrix(1 0 0 1 -1508 -238 )">
    <path d="M 10.65625 2.4795297475961604  C 10.65625 1.3606144831730802  10.037039620535698 0.451284555288467  9.275111607142868 0.451284555288467  L 8.676618303571434 0.451284555288467  C 8.422258649553566 0.451284555288467  8.216238839285698 0.7538311298076934  8.216238839285698 1.1273662860576934  C 8.216238839285698 1.5009014423076934  8.422258649553566 1.8034480168269198  8.676618303571434 1.8034480168269198  L 9.275111607142868 1.8034480168269198  C 9.529471261160698 1.8034480168269198  9.735491071428566 2.1059945913461604  9.735491071428566 2.4795297475961604  L 9.735491071428566 4.08353365384616  L 1.2645089285714342 4.08353365384616  L 1.2645089285714342 2.4795297475961604  C 1.2645089285714342 2.1059945913461604  1.4705287388393025 1.8034480168269198  1.7248883928571317 1.8034480168269198  L 2.323381696428566 1.8034480168269198  C 2.577741350446434 1.8034480168269198  2.7837611607143025 1.5009014423076934  2.7837611607143025 1.1273662860576934  C 2.7837611607143025 0.7538311298076934  2.577741350446434 0.451284555288467  2.323381696428566 0.451284555288467  L 1.7248883928571317 0.451284555288467  C 0.9629603794643025 0.451284555288467  0.34375 1.3606144831730802  0.34375 2.4795297475961604  L 0.34375 12.466947115384613  C 0.34375 13.585862379807693  0.9629603794643025 14.495192307692307  1.7248883928571317 14.495192307692307  L 9.275111607142868 14.495192307692307  C 10.037039620535698 14.495192307692307  10.65625 13.585862379807693  10.65625 12.466947115384613  L 10.65625 2.4795297475961604  Z M 9.735491071428566 12.466947115384613  C 9.735491071428566 12.840482271634613  9.529471261160698 13.14302884615384  9.275111607142868 13.14302884615384  L 1.7248883928571317 13.14302884615384  C 1.4705287388393025 13.14302884615384  1.2645089285714342 12.840482271634613  1.2645089285714342 12.466947115384613  L 1.2645089285714342 5.435697115384613  L 9.735491071428566 5.435697115384613  L 9.735491071428566 12.466947115384613  Z " fill-rule="nonzero" fill="#999999" stroke="none" transform="matrix(1 0 0 1 1508 238 )" />
  </g>
</svg>