<?xml version="1.0" encoding="utf-8"?>
<svg version="1.1" xmlns:xlink="http://www.w3.org/1999/xlink" width="13px" height="15px" xmlns="http://www.w3.org/2000/svg">
  <g transform="matrix(1 0 0 1 -1521 -2539 )">
    <path d="M 12.59375 2.4795297475961604  C 12.59375 1.3606144831730802  11.861955915178552 0.451284555288467  10.961495535714299 0.451284555288467  L 10.25418526785715 0.451284555288467  C 9.95357840401785 0.451284555288467  9.710100446428552 0.7538311298076934  9.710100446428552 1.1273662860576934  C 9.710100446428552 1.5009014423076934  9.95357840401785 1.8034480168269198  10.25418526785715 1.8034480168269198  L 10.961495535714299 1.8034480168269198  C 11.262102399553552 1.8034480168269198  11.50558035714285 2.1059945913461604  11.50558035714285 2.4795297475961604  L 11.50558035714285 4  L 1.4944196428571495 4  L 1.4944196428571495 2.4795297475961604  C 1.4944196428571495 2.1059945913461604  1.7378976004464484 1.8034480168269198  2.038504464285701 1.8034480168269198  L 2.7458147321428505 1.8034480168269198  C 3.0464215959821495 1.8034480168269198  3.2898995535714484 1.5009014423076934  3.2898995535714484 1.1273662860576934  C 3.2898995535714484 0.7538311298076934  3.0464215959821495 0.451284555288467  2.7458147321428505 0.451284555288467  L 2.038504464285701 0.451284555288467  C 1.1380440848214484 0.451284555288467  0.40625 1.3606144831730802  0.40625 2.4795297475961604  L 0.40625 12.466947115384613  C 0.40625 13.585862379807693  1.1380440848214484 14.495192307692307  2.038504464285701 14.495192307692307  L 10.961495535714299 14.495192307692307  C 11.861955915178552 14.495192307692307  12.59375 13.585862379807693  12.59375 12.466947115384613  L 12.59375 2.4795297475961604  Z M 11.50558035714285 12.466947115384613  C 11.50558035714285 12.840482271634613  11.262102399553552 13.14302884615384  10.961495535714299 13.14302884615384  L 2.038504464285701 13.14302884615384  C 1.7378976004464484 13.14302884615384  1.4944196428571495 12.840482271634613  1.4944196428571495 12.466947115384613  L 1.4944196428571495 5.435697115384613  L 11.50558035714285 5.435697115384613  L 11.50558035714285 12.466947115384613  Z " fill-rule="nonzero" fill="#999999" stroke="none" transform="matrix(1 0 0 1 1521 2539 )" />
  </g>
</svg>