<?xml version="1.0" encoding="utf-8"?>
<svg version="1.1" xmlns:xlink="http://www.w3.org/1999/xlink" width="8px" height="13px" xmlns="http://www.w3.org/2000/svg">
  <g transform="matrix(1 0 0 1 -1523 -2538 )">
    <path d="M 2.0859375 8.674762228260875  C 2.0859375 8.308806046195656  1.8528645833333486 8.012398097826093  1.5651041666666514 8.012398097826093  L 0.7838541666666515 8.012398097826093  C 0.49609375 8.012398097826093  0.26302083333334847 8.308806046195656  0.26302083333334847 8.674762228260875  C 0.26302083333334847 9.040718410326093  0.49609375 9.337126358695656  0.7838541666666515 9.337126358695656  L 1.5651041666666514 9.337126358695656  C 1.8528645833333486 9.337126358695656  2.0859375 9.040718410326093  2.0859375 8.674762228260875  Z M 1.3307291666666514 3.311268682065219  C 1.3307291666666514 3.6755689538043437  1.5638020833333486 3.9736328125  1.8515625 3.9736328125  C 2.1393229166666514 3.9736328125  2.3723958333333486 3.6772248641304373  2.3723958333333486 3.311268682065219  L 2.3723958333333486 1.1569293478260931  C 2.3723958333333486 0.7909731657608745  2.1393229166666514 0.49456521739129755  1.8515625 0.49456521739129755  C 1.5638020833333486 0.49456521739129755  1.3307291666666514 0.7909731657608745  1.3307291666666514 1.1569293478260931  L 1.3307291666666514 3.311268682065219  Z M 2.828125 2.2332710597826093  C 2.828125 2.599227241847828  3.0611979166666514 2.8956351902173907  3.3489583333333486 2.8956351902173907  L 4.651041666666652 2.8956351902173907  C 4.938802083333348 2.8956351902173907  5.171875 2.599227241847828  5.171875 2.2332710597826093  C 5.171875 1.8673148777173905  4.938802083333348 1.570906929347828  4.651041666666652 1.570906929347828  L 3.3489583333333486 1.570906929347828  C 3.0611979166666514 1.570906929347828  2.828125 1.8673148777173905  2.828125 2.2332710597826093  Z M 5.627604166666652 3.311268682065219  C 5.627604166666652 3.6755689538043437  5.860677083333348 3.9736328125  6.1484375 3.9736328125  C 6.436197916666652 3.9736328125  6.669270833333348 3.6772248641304373  6.669270833333348 3.311268682065219  L 6.669270833333348 1.1569293478260931  C 6.669270833333348 0.7909731657608745  6.436197916666652 0.49456521739129755  6.1484375 0.49456521739129755  C 5.860677083333348 0.49456521739129755  5.627604166666652 0.7909731657608745  5.627604166666652 1.1569293478260931  L 5.627604166666652 3.311268682065219  Z M 4.911458333333348 8.674762228260875  C 4.911458333333348 8.308806046195656  4.678385416666652 8.012398097826093  4.390625 8.012398097826093  L 3.609375 8.012398097826093  C 3.3216145833333486 8.012398097826093  3.0885416666666514 8.308806046195656  3.0885416666666514 8.674762228260875  C 3.0885416666666514 9.040718410326093  3.3216145833333486 9.337126358695656  3.609375 9.337126358695656  L 4.390625 9.337126358695656  C 4.678385416666652 9.337126358695656  4.911458333333348 9.040718410326093  4.911458333333348 8.674762228260875  Z M 7.8671875 8.674762228260875  C 7.8671875 8.308806046195656  7.634114583333348 8.012398097826093  7.346354166666652 8.012398097826093  L 6.565104166666652 8.012398097826093  C 6.27734375 8.012398097826093  6.044270833333348 8.308806046195656  6.044270833333348 8.674762228260875  C 6.044270833333348 9.040718410326093  6.27734375 9.337126358695656  6.565104166666652 9.337126358695656  L 7.346354166666652 9.337126358695656  C 7.634114583333348 9.337126358695656  7.8671875 9.040718410326093  7.8671875 8.674762228260875  Z M 2.0859375 11.787873641304344  C 2.0859375 11.421917459239125  1.8528645833333486 11.125509510869563  1.5651041666666514 11.125509510869563  L 0.7838541666666515 11.125509510869563  C 0.49609375 11.125509510869563  0.26302083333334847 11.421917459239125  0.26302083333334847 11.787873641304344  C 0.26302083333334847 12.153829823369563  0.49609375 12.450237771739125  0.7838541666666515 12.450237771739125  L 1.5651041666666514 12.450237771739125  C 1.8528645833333486 12.450237771739125  2.0859375 12.153829823369563  2.0859375 11.787873641304344  Z M 4.911458333333348 11.787873641304344  C 4.911458333333348 11.421917459239125  4.678385416666652 11.125509510869563  4.390625 11.125509510869563  L 3.609375 11.125509510869563  C 3.3216145833333486 11.125509510869563  3.0885416666666514 11.421917459239125  3.0885416666666514 11.787873641304344  C 3.0885416666666514 12.153829823369563  3.3216145833333486 12.450237771739125  3.609375 12.450237771739125  L 4.390625 12.450237771739125  C 4.678385416666652 12.450237771739125  4.911458333333348 12.153829823369563  4.911458333333348 11.787873641304344  Z M 7.8671875 11.787873641304344  C 7.8671875 11.421917459239125  7.634114583333348 11.125509510869563  7.346354166666652 11.125509510869563  L 6.565104166666652 11.125509510869563  C 6.27734375 11.125509510869563  6.044270833333348 11.421917459239125  6.044270833333348 11.787873641304344  C 6.044270833333348 12.153829823369563  6.27734375 12.450237771739125  6.565104166666652 12.450237771739125  L 7.346354166666652 12.450237771739125  C 7.634114583333348 12.450237771739125  7.8671875 12.153829823369563  7.8671875 11.787873641304344  Z " fill-rule="nonzero" fill="#999999" stroke="none" transform="matrix(1 0 0 1 1523 2538 )" />
  </g>
</svg>