<?xml version="1.0" encoding="utf-8"?>
<svg version="1.1" xmlns:xlink="http://www.w3.org/1999/xlink" width="23px" height="23px" xmlns="http://www.w3.org/2000/svg">
  <g transform="matrix(1 0 0 1 -2778 -1668 )">
    <path d="M 2789.5 1668  C 2795.94 1668  2801 1673.06  2801 1679.5  C 2801 1685.94  2795.94 1691  2789.5 1691  C 2783.06 1691  2778 1685.94  2778 1679.5  C 2778 1673.06  2783.06 1668  2789.5 1668  Z " fill-rule="nonzero" fill="#ffffff" stroke="none" />
    <path d="M 2789.5 1668.5  C 2795.66 1668.5  2800.5 1673.34  2800.5 1679.5  C 2800.5 1685.66  2795.66 1690.5  2789.5 1690.5  C 2783.34 1690.5  2778.5 1685.66  2778.5 1679.5  C 2778.5 1673.34  2783.34 1668.5  2789.5 1668.5  Z " stroke-width="1" stroke="#797979" fill="none" />
  </g>
</svg>