<?xml version="1.0" encoding="utf-8"?>
<svg version="1.1" xmlns:xlink="http://www.w3.org/1999/xlink" width="6px" height="13px" xmlns="http://www.w3.org/2000/svg">
  <g transform="matrix(1 0 0 1 -3701 -2541 )">
    <path d="M 1.564453125 8.674762228260875  C 1.564453125 8.308806046195656  1.3896484375000115 8.012398097826093  1.1738281249999885 8.012398097826093  L 0.5878906249999887 8.012398097826093  C 0.3720703125 8.012398097826093  0.19726562500001135 8.308806046195656  0.19726562500001135 8.674762228260875  C 0.19726562500001135 9.040718410326093  0.3720703125 9.337126358695656  0.5878906249999887 9.337126358695656  L 1.1738281249999885 9.337126358695656  C 1.3896484375000115 9.337126358695656  1.564453125 9.040718410326093  1.564453125 8.674762228260875  Z M 0.9980468749999886 3.311268682065219  C 0.9980468749999886 3.6755689538043437  1.1728515625000115 3.9736328125  1.388671875 3.9736328125  C 1.6044921874999885 3.9736328125  1.7792968750000115 3.6772248641304373  1.7792968750000115 3.311268682065219  L 1.7792968750000115 1.1569293478260931  C 1.7792968750000115 0.7909731657608745  1.6044921874999885 0.49456521739129755  1.388671875 0.49456521739129755  C 1.1728515625000115 0.49456521739129755  0.9980468749999886 0.7909731657608745  0.9980468749999886 1.1569293478260931  L 0.9980468749999886 3.311268682065219  Z M 2.12109375 2.2332710597826093  C 2.12109375 2.599227241847828  2.2958984374999885 2.8956351902173907  2.5117187500000115 2.8956351902173907  L 3.488281249999989 2.8956351902173907  C 3.704101562500011 2.8956351902173907  3.87890625 2.599227241847828  3.87890625 2.2332710597826093  C 3.87890625 1.8673148777173905  3.704101562500011 1.570906929347828  3.488281249999989 1.570906929347828  L 2.5117187500000115 1.570906929347828  C 2.2958984374999885 1.570906929347828  2.12109375 1.8673148777173905  2.12109375 2.2332710597826093  Z M 4.220703124999989 3.311268682065219  C 4.220703124999989 3.6755689538043437  4.395507812500011 3.9736328125  4.611328125 3.9736328125  C 4.827148437499989 3.9736328125  5.001953125000011 3.6772248641304373  5.001953125000011 3.311268682065219  L 5.001953125000011 1.1569293478260931  C 5.001953125000011 0.7909731657608745  4.827148437499989 0.49456521739129755  4.611328125 0.49456521739129755  C 4.395507812500011 0.49456521739129755  4.220703124999989 0.7909731657608745  4.220703124999989 1.1569293478260931  L 4.220703124999989 3.311268682065219  Z M 3.683593750000011 8.674762228260875  C 3.683593750000011 8.308806046195656  3.508789062499989 8.012398097826093  3.29296875 8.012398097826093  L 2.70703125 8.012398097826093  C 2.4912109375000115 8.012398097826093  2.3164062499999885 8.308806046195656  2.3164062499999885 8.674762228260875  C 2.3164062499999885 9.040718410326093  2.4912109375000115 9.337126358695656  2.70703125 9.337126358695656  L 3.29296875 9.337126358695656  C 3.508789062499989 9.337126358695656  3.683593750000011 9.040718410326093  3.683593750000011 8.674762228260875  Z M 5.900390625 8.674762228260875  C 5.900390625 8.308806046195656  5.725585937500011 8.012398097826093  5.509765624999989 8.012398097826093  L 4.923828124999989 8.012398097826093  C 4.7080078125 8.012398097826093  4.533203125000011 8.308806046195656  4.533203125000011 8.674762228260875  C 4.533203125000011 9.040718410326093  4.7080078125 9.337126358695656  4.923828124999989 9.337126358695656  L 5.509765624999989 9.337126358695656  C 5.725585937500011 9.337126358695656  5.900390625 9.040718410326093  5.900390625 8.674762228260875  Z M 1.564453125 11.787873641304344  C 1.564453125 11.421917459239125  1.3896484375000115 11.125509510869563  1.1738281249999885 11.125509510869563  L 0.5878906249999887 11.125509510869563  C 0.3720703125 11.125509510869563  0.19726562500001135 11.421917459239125  0.19726562500001135 11.787873641304344  C 0.19726562500001135 12.153829823369563  0.3720703125 12.450237771739125  0.5878906249999887 12.450237771739125  L 1.1738281249999885 12.450237771739125  C 1.3896484375000115 12.450237771739125  1.564453125 12.153829823369563  1.564453125 11.787873641304344  Z M 3.683593750000011 11.787873641304344  C 3.683593750000011 11.421917459239125  3.508789062499989 11.125509510869563  3.29296875 11.125509510869563  L 2.70703125 11.125509510869563  C 2.4912109375000115 11.125509510869563  2.3164062499999885 11.421917459239125  2.3164062499999885 11.787873641304344  C 2.3164062499999885 12.153829823369563  2.4912109375000115 12.450237771739125  2.70703125 12.450237771739125  L 3.29296875 12.450237771739125  C 3.508789062499989 12.450237771739125  3.683593750000011 12.153829823369563  3.683593750000011 11.787873641304344  Z M 5.900390625 11.787873641304344  C 5.900390625 11.421917459239125  5.725585937500011 11.125509510869563  5.509765624999989 11.125509510869563  L 4.923828124999989 11.125509510869563  C 4.7080078125 11.125509510869563  4.533203125000011 11.421917459239125  4.533203125000011 11.787873641304344  C 4.533203125000011 12.153829823369563  4.7080078125 12.450237771739125  4.923828124999989 12.450237771739125  L 5.509765624999989 12.450237771739125  C 5.725585937500011 12.450237771739125  5.900390625 12.153829823369563  5.900390625 11.787873641304344  Z " fill-rule="nonzero" fill="#999999" stroke="none" transform="matrix(1 0 0 1 3701 2541 )" />
  </g>
</svg>