<?xml version="1.0" encoding="utf-8"?>
<svg version="1.1" xmlns:xlink="http://www.w3.org/1999/xlink" width="20px" height="20px" xmlns="http://www.w3.org/2000/svg">
  <g transform="matrix(1 0 0 1 -4421 -722 )">
    <path d="M 19.799599198396795 2.061855670103092  C 19.933199732798933 2.290950744558986  20 2.5544100801832736  20 2.852233676975946  C 20 3.1500572737686117  19.933199732798933 3.413516609392895  19.799599198396795 3.6426116838487976  L 10.460921843687373 19.65635738831615  C 10.327321309285239 19.885452462772044  10.17368069472278 20  10 20  C 9.826319305277222 20  9.672678690714765 19.885452462772044  9.539078156312625 19.65635738831615  L 0.2004008016032064 3.6426116838487976  C 0.06680026720106899 3.413516609392895  0 3.1500572737686117  0 2.852233676975946  C 0 2.5544100801832736  0.06680026720106899 2.290950744558986  0.2004008016032064 2.061855670103092  L 1.2024048096192383 0.3436426116838498  C 1.3360053440213764 0.11454753722794697  1.4896459585838344 0  1.6633266533066133 0  C 1.8370073480293925 0  1.9906479625918505 0.11454753722794697  2.124248496993988 0.3436426116838498  L 10 13.848797250859107  L 17.87575150300601 0.3436426116838498  C 18.00935203740815 0.11454753722794697  18.162992651970608 0  18.336673346693388 0  C 18.510354041416168 0  18.663994655978627 0.11454753722794697  18.79759519038076 0.3436426116838498  L 19.799599198396795 2.061855670103092  Z " fill-rule="nonzero" fill="#333333" stroke="none" transform="matrix(1 0 0 1 4421 722 )" />
  </g>
</svg>