<?xml version="1.0" encoding="utf-8"?>
<svg version="1.1" xmlns:xlink="http://www.w3.org/1999/xlink" width="26px" height="20px" xmlns="http://www.w3.org/2000/svg">
  <g transform="matrix(1 0 0 1 -4101 -1859 )">
    <path d="M 25.739478957915832 2.061855670103092  C 25.913159652638612 2.290950744558986  26 2.5544100801832736  26 2.852233676975946  C 26 3.1500572737686117  25.913159652638612 3.413516609392895  25.739478957915832 3.6426116838487976  L 13.599198396793586 19.65635738831615  C 13.42551770207081 19.885452462772044  13.225784903139614 20  13 20  C 12.77421509686039 20  12.574482297929194 19.885452462772044  12.400801603206412 19.65635738831615  L 0.2605210420841683 3.6426116838487976  C 0.0868403473613897 3.413516609392895  0 3.1500572737686117  0 2.852233676975946  C 0 2.5544100801832736  0.0868403473613897 2.290950744558986  0.2605210420841683 2.061855670103092  L 1.56312625250501 0.3436426116838498  C 1.7368069472277894 0.11454753722794697  1.9365397461589848 0  2.162324649298597 0  C 2.3881095524382103 0  2.5878423513694058 0.11454753722794697  2.7615230460921842 0.3436426116838498  L 13 13.848797250859107  L 23.238476953907817 0.3436426116838498  C 23.412157648630597 0.11454753722794697  23.61189044756179 0  23.837675350701403 0  C 24.06346025384102 0  24.263193052772213 0.11454753722794697  24.436873747494992 0.3436426116838498  L 25.739478957915832 2.061855670103092  Z " fill-rule="nonzero" fill="#333333" stroke="none" transform="matrix(1 0 0 1 4101 1859 )" />
  </g>
</svg>