<?xml version="1.0" encoding="utf-8"?>
<svg version="1.1" xmlns:xlink="http://www.w3.org/1999/xlink" width="41px" height="23px" xmlns="http://www.w3.org/2000/svg">
  <g transform="matrix(1 0 0 1 -931 -2714 )">
    <path d="M 931 2714  L 972 2714  L 972 2737  L 931 2737  L 931 2714  " fill-rule="nonzero" fill="#cccccc" stroke="none" />
    <path d="M 933 2716  L 970 2716  L 970 2735  L 933 2735  L 933 2716  " fill-rule="nonzero" fill="#ffffff" stroke="none" />
    <path d="M 954.0450000000001 2720.8999999999996  C 953.0790000000001 2720.8999999999996  952.32 2720.1409999999996  952.32 2719.1749999999997  C 952.32 2718.209  953.0790000000001 2717.45  954.0450000000001 2717.45  C 955.0110000000001 2717.45  955.7700000000001 2718.209  955.7700000000001 2719.1749999999997  C 955.7700000000001 2720.1409999999996  955.0110000000001 2720.8999999999996  954.0450000000001 2720.8999999999996  " fill-rule="nonzero" fill="#cccccc" stroke="none" />
    <path d="M 934 2735  L 934 2725.1  L 943 2720.6  L 955.6 2728.941463414634  L 962.8 2723.3  L 970 2728.941463414634  L 970 2735  L 934 2735  " fill-rule="nonzero" fill="#169bd5" stroke="none" />
  </g>
</svg>