<?xml version="1.0" encoding="utf-8"?>
<svg version="1.1" xmlns:xlink="http://www.w3.org/1999/xlink" width="176px" height="82px" xmlns="http://www.w3.org/2000/svg">
  <g transform="matrix(1 0 0 1 -6923 -1396 )">
    <path d="M 6923 1396  L 7099 1396  L 7099 1478  L 6923 1478  L 6923 1396  " fill-rule="nonzero" fill="#cccccc" stroke="none" />
    <path d="M 6929 1402  L 7093 1402  L 7093 1472  L 6929 1472  L 6929 1402  " fill-rule="nonzero" fill="#ffffff" stroke="none" />
    <path d="M 7020.67 1420.6  C 7017.226000000001 1420.6  7014.52 1417.8939999999998  7014.52 1414.4499999999998  C 7014.52 1411.0059999999999  7017.226000000001 1408.3  7020.67 1408.3  C 7024.1140000000005 1408.3  7026.820000000001 1411.0059999999999  7026.820000000001 1414.4499999999998  C 7026.820000000001 1417.8939999999998  7024.1140000000005 1420.6  7020.67 1420.6  " fill-rule="nonzero" fill="#cccccc" stroke="none" />
    <path d="M 6931 1470  L 6931 1433.7  L 6971 1417.2  L 7027 1451.55  L 7059 1427.1  L 7091 1451.55  L 7091 1470  L 6931 1470  " fill-rule="nonzero" fill="#169bd5" stroke="none" />
  </g>
</svg>