<?xml version="1.0" encoding="utf-8"?>
<svg version="1.1" xmlns:xlink="http://www.w3.org/1999/xlink" width="176px" height="101px" xmlns="http://www.w3.org/2000/svg">
  <g transform="matrix(1 0 0 1 -6706 -883 )">
    <path d="M 6706 883  L 6882 883  L 6882 984  L 6706 984  L 6706 883  " fill-rule="nonzero" fill="#cccccc" stroke="none" />
    <path d="M 6713 890  L 6875 890  L 6875 977  L 6713 977  L 6713 890  " fill-rule="nonzero" fill="#ffffff" stroke="none" />
    <path d="M 6805.095 913.3  C 6800.853 913.3  6797.52 909.967  6797.52 905.7249999999999  C 6797.52 901.483  6800.853 898.15  6805.095 898.15  C 6809.337 898.15  6812.67 901.483  6812.67 905.7249999999999  C 6812.67 909.967  6809.337 913.3  6805.095 913.3  " fill-rule="nonzero" fill="#cccccc" stroke="none" />
    <path d="M 6716 975  L 6716 929.9  L 6755.25 909.4  L 6810.2 946.7659090909091  L 6841.6 921.7  L 6873 946.7659090909091  L 6873 975  L 6716 975  " fill-rule="nonzero" fill="#169bd5" stroke="none" />
  </g>
</svg>