<?xml version="1.0" encoding="utf-8"?>
<svg version="1.1" xmlns:xlink="http://www.w3.org/1999/xlink" width="12px" height="13px" xmlns="http://www.w3.org/2000/svg">
  <g transform="matrix(1 0 0 1 -1575 -276 )">
    <path d="M 3.12890625 8.674762228260875  C 3.12890625 8.308806046195656  2.779296875000023 8.012398097826093  2.347656249999977 8.012398097826093  L 1.1757812499999774 8.012398097826093  C 0.744140625 8.012398097826093  0.3945312500000227 8.308806046195656  0.3945312500000227 8.674762228260875  C 0.3945312500000227 9.040718410326093  0.744140625 9.337126358695656  1.1757812499999774 9.337126358695656  L 2.347656249999977 9.337126358695656  C 2.779296875000023 9.337126358695656  3.12890625 9.040718410326093  3.12890625 8.674762228260875  Z M 1.9960937499999771 3.311268682065219  C 1.9960937499999771 3.6755689538043437  2.345703125000023 3.9736328125  2.77734375 3.9736328125  C 3.208984374999977 3.9736328125  3.558593750000023 3.6772248641304373  3.558593750000023 3.311268682065219  L 3.558593750000023 1.1569293478260931  C 3.558593750000023 0.7909731657608745  3.208984374999977 0.49456521739129755  2.77734375 0.49456521739129755  C 2.345703125000023 0.49456521739129755  1.9960937499999771 0.7909731657608745  1.9960937499999771 1.1569293478260931  L 1.9960937499999771 3.311268682065219  Z M 4.2421875 2.2332710597826093  C 4.2421875 2.599227241847828  4.591796874999977 2.8956351902173907  5.023437500000023 2.8956351902173907  L 6.976562499999978 2.8956351902173907  C 7.408203125000022 2.8956351902173907  7.7578125 2.599227241847828  7.7578125 2.2332710597826093  C 7.7578125 1.8673148777173905  7.408203125000022 1.570906929347828  6.976562499999978 1.570906929347828  L 5.023437500000023 1.570906929347828  C 4.591796874999977 1.570906929347828  4.2421875 1.8673148777173905  4.2421875 2.2332710597826093  Z M 8.441406249999979 3.311268682065219  C 8.441406249999979 3.6755689538043437  8.791015625000021 3.9736328125  9.22265625 3.9736328125  C 9.654296874999979 3.9736328125  10.003906250000021 3.6772248641304373  10.003906250000021 3.311268682065219  L 10.003906250000021 1.1569293478260931  C 10.003906250000021 0.7909731657608745  9.654296874999979 0.49456521739129755  9.22265625 0.49456521739129755  C 8.791015625000021 0.49456521739129755  8.441406249999979 0.7909731657608745  8.441406249999979 1.1569293478260931  L 8.441406249999979 3.311268682065219  Z M 7.367187500000022 8.674762228260875  C 7.367187500000022 8.308806046195656  7.017578124999978 8.012398097826093  6.5859375 8.012398097826093  L 5.4140625 8.012398097826093  C 4.982421875000023 8.012398097826093  4.632812499999977 8.308806046195656  4.632812499999977 8.674762228260875  C 4.632812499999977 9.040718410326093  4.982421875000023 9.337126358695656  5.4140625 9.337126358695656  L 6.5859375 9.337126358695656  C 7.017578124999978 9.337126358695656  7.367187500000022 9.040718410326093  7.367187500000022 8.674762228260875  Z M 11.80078125 8.674762228260875  C 11.80078125 8.308806046195656  11.451171875000021 8.012398097826093  11.019531249999979 8.012398097826093  L 9.847656249999979 8.012398097826093  C 9.416015625 8.012398097826093  9.066406250000021 8.308806046195656  9.066406250000021 8.674762228260875  C 9.066406250000021 9.040718410326093  9.416015625 9.337126358695656  9.847656249999979 9.337126358695656  L 11.019531249999979 9.337126358695656  C 11.451171875000021 9.337126358695656  11.80078125 9.040718410326093  11.80078125 8.674762228260875  Z M 3.12890625 11.787873641304344  C 3.12890625 11.421917459239125  2.779296875000023 11.125509510869563  2.347656249999977 11.125509510869563  L 1.1757812499999774 11.125509510869563  C 0.744140625 11.125509510869563  0.3945312500000227 11.421917459239125  0.3945312500000227 11.787873641304344  C 0.3945312500000227 12.153829823369563  0.744140625 12.450237771739125  1.1757812499999774 12.450237771739125  L 2.347656249999977 12.450237771739125  C 2.779296875000023 12.450237771739125  3.12890625 12.153829823369563  3.12890625 11.787873641304344  Z M 7.367187500000022 11.787873641304344  C 7.367187500000022 11.421917459239125  7.017578124999978 11.125509510869563  6.5859375 11.125509510869563  L 5.4140625 11.125509510869563  C 4.982421875000023 11.125509510869563  4.632812499999977 11.421917459239125  4.632812499999977 11.787873641304344  C 4.632812499999977 12.153829823369563  4.982421875000023 12.450237771739125  5.4140625 12.450237771739125  L 6.5859375 12.450237771739125  C 7.017578124999978 12.450237771739125  7.367187500000022 12.153829823369563  7.367187500000022 11.787873641304344  Z M 11.80078125 11.787873641304344  C 11.80078125 11.421917459239125  11.451171875000021 11.125509510869563  11.019531249999979 11.125509510869563  L 9.847656249999979 11.125509510869563  C 9.416015625 11.125509510869563  9.066406250000021 11.421917459239125  9.066406250000021 11.787873641304344  C 9.066406250000021 12.153829823369563  9.416015625 12.450237771739125  9.847656249999979 12.450237771739125  L 11.019531249999979 12.450237771739125  C 11.451171875000021 12.450237771739125  11.80078125 12.153829823369563  11.80078125 11.787873641304344  Z " fill-rule="nonzero" fill="#999999" stroke="none" transform="matrix(1 0 0 1 1575 276 )" />
  </g>
</svg>