<?xml version="1.0" encoding="utf-8"?>
<svg version="1.1" xmlns:xlink="http://www.w3.org/1999/xlink" width="20px" height="15px" xmlns="http://www.w3.org/2000/svg">
  <g transform="matrix(1 0 0 1 -1572 -277 )">
    <path d="M 19.375 2.4795297475961604  C 19.375 1.3606144831730802  18.24916294642854 0.451284555288467  16.863839285714306 0.451284555288467  L 15.775669642857153 0.451284555288467  C 15.313197544642847 0.451284555288467  14.938616071428541 0.7538311298076934  14.938616071428541 1.1273662860576934  C 14.938616071428541 1.5009014423076934  15.313197544642847 1.8034480168269198  15.775669642857153 1.8034480168269198  L 16.863839285714306 1.8034480168269198  C 17.32631138392854 1.8034480168269198  17.700892857142847 2.1059945913461604  17.700892857142847 2.4795297475961604  L 17.700892857142847 4  L 2.299107142857153 4  L 2.299107142857153 2.4795297475961604  C 2.299107142857153 2.1059945913461604  2.673688616071459 1.8034480168269198  3.136160714285694 1.8034480168269198  L 4.224330357142847 1.8034480168269198  C 4.686802455357153 1.8034480168269198  5.061383928571459 1.5009014423076934  5.061383928571459 1.1273662860576934  C 5.061383928571459 0.7538311298076934  4.686802455357153 0.451284555288467  4.224330357142847 0.451284555288467  L 3.136160714285694 0.451284555288467  C 1.750837053571459 0.451284555288467  0.625 1.3606144831730802  0.625 2.4795297475961604  L 0.625 12.466947115384613  C 0.625 13.585862379807693  1.750837053571459 14.495192307692307  3.136160714285694 14.495192307692307  L 16.863839285714306 14.495192307692307  C 18.24916294642854 14.495192307692307  19.375 13.585862379807693  19.375 12.466947115384613  L 19.375 2.4795297475961604  Z M 17.700892857142847 12.466947115384613  C 17.700892857142847 12.840482271634613  17.32631138392854 13.14302884615384  16.863839285714306 13  L 3.136160714285694 13  C 2.673688616071459 13.14302884615384  2.299107142857153 12.840482271634613  2.299107142857153 12.466947115384613  L 2.299107142857153 5.435697115384613  L 17.700892857142847 5.435697115384613  L 17.700892857142847 12.466947115384613  Z " fill-rule="nonzero" fill="#999999" stroke="none" transform="matrix(1 0 0 1 1572 277 )" />
  </g>
</svg>