<?xml version="1.0" encoding="utf-8"?>
<svg version="1.1" xmlns:xlink="http://www.w3.org/1999/xlink" width="82px" height="93px" xmlns="http://www.w3.org/2000/svg">
  <g transform="matrix(1 0 0 1 -3528 -1757 )">
    <path d="M 56.641927083333336 43.3515625  C 57.602864583333336 44.11848958333333  58.083333333333336 45.16796875  58.083333333333336 46.5  C 58.083333333333336 47.83203125000001  57.602864583333336 48.881510416666664  56.641927083333336 49.64843750000001  L 32.72526041666667 69.0234375  C 31.621961805555557 69.95182291666666  30.44748263888889 70.052734375  29.201822916666668 69.326171875  C 27.956163194444446 68.63997395833331  27.333333333333332 67.48958333333333  28 65.875  L 28 27.124999999999996  C 27.333333333333332 25.510416666666657  27.956163194444446 24.36002604166666  29.201822916666668 23.673828124999996  C 30.44748263888889 22.947265624999996  31.621961805555557 23.04817708333333  32.72526041666667 23.9765625  L 56.641927083333336 43.3515625  Z M 67.85286458333334 76.955078125  C 68.17317708333334 76.591796875  68.33333333333334 76.12760416666666  68 75.5625  L 68 17.4375  C 68.33333333333334 16.87239583333333  68.17317708333334 16.408203124999996  67.85286458333334 16.044921874999996  C 67.53255208333334 15.681640624999996  67.1232638888889 15.499999999999996  66.625 16  L 15.375 16  C 14.876736111111112 15.499999999999996  14.467447916666666 15.681640624999996  14.147135416666666 16.044921874999996  C 13.826822916666666 16.408203124999996  13.666666666666666 16.87239583333333  14 17.4375  L 14 75.5625  C 13.666666666666666 76.12760416666666  13.826822916666666 76.591796875  14.147135416666666 76.955078125  C 14.467447916666666 77.318359375  14.876736111111112 77.5  15.375 77  L 66.625 77  C 67.1232638888889 77.5  67.53255208333334 77.318359375  67.85286458333334 76.955078125  Z M 77.48893229166666 5.1162109375000036  C 80.49631076388889 8.527018229166659  82 12.634114583333321  82 17.4375  L 82 75.5625  C 82 80.36588541666666  80.49631076388889 84.47298177083334  77.48893229166666 87.8837890625  C 74.48155381944446 91.29459635416666  70.86024305555557 93  66.625 93  L 15.375 93  C 11.139756944444445 93  7.518446180555556 91.29459635416666  4.511067708333334 87.8837890625  C 1.503689236111111 84.47298177083334  0 80.36588541666666  0 75.5625  L 0 17.4375  C 0 12.634114583333321  1.503689236111111 8.527018229166659  4.511067708333334 5.1162109375000036  C 7.518446180555556 1.7054036458333277  11.139756944444445 0  15.375 0  L 66.625 0  C 70.86024305555557 0  74.48155381944446 1.7054036458333277  77.48893229166666 5.1162109375000036  Z " fill-rule="nonzero" fill="#000000" stroke="none" transform="matrix(1 0 0 1 3528 1757 )" />
  </g>
</svg>