<?xml version="1.0" encoding="utf-8"?>
<svg version="1.1" xmlns:xlink="http://www.w3.org/1999/xlink" width="40px" height="33px" xmlns="http://www.w3.org/2000/svg">
  <g transform="matrix(1 0 0 1 -3772 -2023 )">
    <path d="M 33.34134615384615 20.625  C 33.67788461538461 20.75390625  33.84615384615385 20.961588541666664  33.84615384615385 21.248046874999996  L 33.84615384615385 26.8125  C 33.84615384615385 28.516927083333332  33.16907051282052 29.974283854166668  31.814903846153847 31.1845703125  C 30.460737179487182 32.39485677083333  28.830128205128208 33  26.923076923076927 33  L 6.923076923076923 33  C 5.0160256410256405 33  3.385416666666667 32.39485677083333  2.03125 31.1845703125  C 0.6770833333333333 29.974283854166668  0 28.516927083333332  0 26.8125  L 0 8.937500000000002  C 0 7.233072916666663  0.6770833333333333 5.775716145833332  2.03125 4.565429687499999  C 3.385416666666667 3.355143229166662  5.0160256410256405 2.7500000000000013  6.923076923076923 2.7500000000000013  L 13.052884615384615 2.7500000000000013  C 13.261217948717952 2.7500000000000013  13.441506410256412 2.8180338541666634  13.59375 2.9541015624999987  C 13.745993589743591 3.0901692708333304  13.822115384615385 3.2513020833333304  13.822115384615385 3.4374999999999987  C 13.822115384615385 3.8242187499999987  13.613782051282053 4.053385416666664  13.197115384615385 4.125  C 11.963141025641026 4.497395833333333  10.897435897435898 4.92708333333333  10 5.4140625  C 9.839743589743591 5.471354166666664  9.711538461538462 5.499999999999999  9.615384615384615 5.499999999999999  L 6.923076923076923 5.499999999999999  C 5.865384615384616 5.499999999999999  4.959935897435898 5.8365885416666625  4.206730769230769 6.509765625  C 3.4535256410256414 7.18294270833333  3.076923076923077 7.9921875  3 8.937500000000002  L 3 26.8125  C 3.076923076923077 27.7578125  3.4535256410256414 28.567057291666664  4.206730769230769 29.240234375  C 4.959935897435898 29.913411458333332  5.865384615384616 30.25  6.923076923076923 30  L 26.923076923076927 30  C 27.98076923076923 30.25  28.886217948717952 29.913411458333332  29.639423076923073 29.240234375  C 30.392628205128208 28.567057291666664  30.76923076923077 27.7578125  30.76923076923077 26.8125  L 30.76923076923077 22.214843749999996  C 30.76923076923077 21.942708333333336  30.913461538461537 21.735026041666664  31.201923076923073 21.591796875  C 31.650641025641026 21.405598958333332  32.083333333333336 21.140625  32.5 20.796874999999996  C 32.75641025641026 20.567708333333332  33.03685897435898 20.510416666666664  33.34134615384615 20.625  Z M 40 9.624999999999998  C 40 9.997395833333332  39.847756410256416 10.319661458333332  39.543269230769226 10.591796874999998  L 30.3125 18.841796875000004  C 30.024038461538463 19.113932291666664  29.663461538461537 19.249999999999996  29.23076923076923 19.249999999999996  C 29.038461538461537 19.249999999999996  28.838141025641026 19.214192708333332  28.629807692307693 19.142578125  C 28.004807692307693 18.899088541666664  27.692307692307693 18.476562499999996  27.692307692307693 17.875000000000004  L 27.692307692307693 13.749999999999998  L 23.846153846153847 13.749999999999998  C 18.669871794871796 13.749999999999998  15.160256410256412 14.688151041666664  13.317307692307692 16.564453125  C 11.410256410256412 18.526692708333336  10.817307692307693 21.9140625  11.538461538461537 26.7265625  C 11.586538461538463 27.055989583333332  11.426282051282053 27.29947916666666  11.057692307692308 27.45703125  C 10.92948717948718 27.485677083333332  10.833333333333336 27.5  10.769230769230768 27.5  C 10.512820512820513 27.5  10.30448717948718 27.406901041666664  10.144230769230768 27.220703125  C 9.98397435897436 27.020182291666664  9.81570512820513 26.798177083333332  9.639423076923077 26.5546875  C 9.463141025641027 26.311197916666664  9.146634615384617 25.820638020833332  8.689903846153847 25.0830078125  C 8.233173076923077 24.345377604166664  7.836538461538462 23.632812499999996  7.5 22.9453125  C 7.163461538461538 22.257812500000004  6.854967948717949 21.441406249999996  6.574519230769232 20.49609375  C 6.294070512820513 19.550781250000004  6.153846153846154 18.67708333333333  6.153846153846154 17.875000000000004  C 6.153846153846154 17.173177083333336  6.181891025641026 16.521484375000004  6.237980769230768 15.919921875  C 6.294070512820513 15.318359374999998  6.40625 14.673828124999998  6.574519230769232 13.986328125  C 6.742788461538462 13.298828124999998  6.967147435897437 12.668619791666663  7.247596153846154 12.095703125000002  C 7.528044871794872 11.522786458333332  7.904647435897437 10.939127604166664  8.377403846153847 10.3447265625  C 8.850160256410257 9.750325520833332  9.399038461538462 9.220377604166663  10.024038461538463 8.754882812499998  C 10.649038461538463 8.289388020833332  11.406250000000002 7.848958333333333  12.295673076923077 7.433593749999999  C 13.185096153846153 7.018229166666664  14.182692307692308 6.6708984375  15.288461538461537 6.391601562500001  C 16.39423076923077 6.112304687499999  17.672275641025642 5.89388020833333  19.122596153846153 5.736328125  C 20.57291666666667 5.5787760416666625  22.147435897435898 5.499999999999999  23.846153846153847 5.499999999999999  L 27.692307692307693 5.499999999999999  L 27.692307692307693 1.3749999999999987  C 27.692307692307693 0.7734375  28.004807692307693 0.3509114583333305  28.629807692307693 0.10742187500000122  C 28.838141025641026 0.035807291666669516  29.038461538461537 0  29.23076923076923 0  C 29.647435897435905 0  30.008012820512825 0.13606770833333537  30.3125 0.4082031249999988  L 39.543269230769226 8.658203124999998  C 39.847756410256416 8.930338541666663  40 9.252604166666663  40 9.624999999999998  Z " fill-rule="nonzero" fill="#000000" stroke="none" transform="matrix(1 0 0 1 3772 2023 )" />
  </g>
</svg>