<?xml version="1.0" encoding="utf-8"?>
<svg version="1.1" xmlns:xlink="http://www.w3.org/1999/xlink" width="6px" height="12px" xmlns="http://www.w3.org/2000/svg">
  <g transform="matrix(1 0 0 1 -554 -21 )">
    <path d="M 5.957812499999989 6  C 5.957812499999989 5.836774553571416  5.896875000000023 5.681082589285722  5.787890624999989 5.568080357142861  L 0.97265625 0.5457589285714164  C 0.75 0.3134765625  0.39375000000001137 0.3184988839285836  0.17695312500001137 0.5570591517857224  C -0.03984374999998863 0.7956194196428612  -0.03515625 1.1773158482142776  0.1875 1.4095982142857224  L 4.589062500000011 6  L 0.1875 10.590401785714278  C -0.03515625 10.822684151785722  -0.03984374999998863 11.204380580357139  0.17695312500001137 11.442940848214278  C 0.287109375 11.564732142857139  0.43359375 11.625  0.580078125 11.625  C 0.7218750000000114 11.625  0.8625000000000114 11.568498883928584  0.97265625 11.454241071428584  L 5.787890624999989 6.431919642857139  C 5.896875000000023 6.318917410714278  5.957812499999989 6.163225446428584  5.957812499999989 6  Z " fill-rule="nonzero" fill="#488cee" stroke="none" transform="matrix(1 0 0 1 554 21 )" />
  </g>
</svg>