<?xml version="1.0" encoding="utf-8"?>
<svg version="1.1" xmlns:xlink="http://www.w3.org/1999/xlink" width="6px" height="12px" xmlns="http://www.w3.org/2000/svg">
  <g transform="matrix(1 0 0 1 -550 -21 )">
    <path d="M 5.8125 6.431919642857139  C 5.921484374999977 6.318917410714278  5.982421875 6.163225446428584  5.982421875 6  C 5.982421875 5.836774553571416  5.921484374999977 5.681082589285722  5.8125 5.568080357142861  L 0.9972656250000114 0.5457589285714164  C 0.7746093750000114 0.3134765625  0.41835937500002274 0.3184988839285836  0.20156250000002274 0.5570591517857224  C -0.015234374999977263 0.7956194196428612  -0.010546874999988631 1.1773158482142776  0.21210937500001137 1.4095982142857224  L 4.613671875000023 6  L 0.21210937500001137 10.590401785714278  C -0.010546874999988631 10.822684151785722  -0.015234374999977263 11.204380580357139  0.20156250000002274 11.442940848214278  C 0.31171875000001137 11.564732142857139  0.45820312500001137 11.625  0.6046875000000114 11.625  C 0.7464843750000227 11.625  0.8871093750000227 11.568498883928584  0.9972656250000114 11.454241071428584  L 5.8125 6.431919642857139  Z " fill-rule="nonzero" fill="#397bd9" stroke="none" transform="matrix(1 0 0 1 550 21 )" />
  </g>
</svg>