<?xml version="1.0" encoding="utf-8"?>
<svg version="1.1" xmlns:xlink="http://www.w3.org/1999/xlink" width="7px" height="12px" xmlns="http://www.w3.org/2000/svg">
  <g transform="matrix(1 0 0 1 -44 -21 )">
    <path d="M 6.440708705357224 11.442940848214278  C 6.322684151785779 11.5634765625  6.16573660714289 11.625  6.0087890625 11.625  C 5.856863839285779 11.625  5.706194196428555 11.568498883928584  5.588169642857224 11.454241071428584  L 0.4289899553571104 6.431919642857139  C 0.3122209821428896 6.318917410714278  0.2469308035714448 6.163225446428584  0.2469308035714448 6  C 0.2469308035714448 5.836774553571416  0.3122209821428896 5.681082589285722  0.4289899553571104 5.568080357142861  L 5.588169642857224 0.5457589285714164  C 5.826729910714334 0.3134765625  6.208426339285779 0.3184988839285836  6.440708705357224 0.5570591517857224  C 6.672991071428555 0.7956194196428612  6.66796875 1.1773158482142776  6.42940848214289 1.4095982142857224  L 1.7134486607143344 6  L 6.42940848214289 10.590401785714278  C 6.66796875 10.822684151785722  6.672991071428555 11.204380580357139  6.440708705357224 11.442940848214278  Z " fill-rule="nonzero" fill="#397bd9" stroke="none" transform="matrix(1 0 0 1 44 21 )" />
  </g>
</svg>