<?xml version="1.0" encoding="utf-8"?>
<svg version="1.1" xmlns:xlink="http://www.w3.org/1999/xlink" width="21px" height="20px" xmlns="http://www.w3.org/2000/svg">
  <g transform="matrix(1 0 0 1 -2755 -1336 )">
    <path d="M 2755 1336  L 2776 1336  L 2776 1356  L 2755 1356  L 2755 1336  " fill-rule="nonzero" fill="#cccccc" stroke="none" />
    <path d="M 2756 1337  L 2775 1337  L 2775 1355  L 2756 1355  L 2756 1337  " fill-rule="nonzero" fill="#ffffff" stroke="none" />
    <path d="M 2767.42 1342  C 2766.58 1342  2765.92 1341.34  2765.92 1340.5  C 2765.92 1339.66  2766.58 1339  2767.42 1339  C 2768.26 1339  2768.92 1339.66  2768.92 1340.5  C 2768.92 1341.34  2768.26 1342  2767.42 1342  " fill-rule="nonzero" fill="#cccccc" stroke="none" />
    <path d="M 2757 1355  L 2757 1345.65  L 2761.5 1341.4  L 2767.8 1345.2857142857142  L 2771.4 1343.95  L 2775 1345.2857142857142  L 2775 1355  L 2757 1355  " fill-rule="nonzero" fill="#169bd5" stroke="none" />
  </g>
</svg>