<?xml version="1.0" encoding="utf-8"?>
<svg version="1.1" xmlns:xlink="http://www.w3.org/1999/xlink" width="18px" height="19px" xmlns="http://www.w3.org/2000/svg">
  <g transform="matrix(1 0 0 1 -3241 -963 )">
    <path d="M 7.331676136363636 18.4603487064117  C 7.7024147727272725 18.243063367079117  7.887784090909092 18.05605549306337  7.887784090909092 17.899325084364452  C 7.887784090909092 17.820959880015  7.832386363636364 17.614360704911885  7.721590909090908 17.27952755905512  C 7.610795454545455 16.944694413198352  7.478693181818182 16.56355455568054  7.325284090909092 16.13610798650169  C 7.171875 15.708661417322833  7.0866477272727275 15.462879640044996  7.0696022727272725 15.398762654668166  C 7.061079545454547 15.370266216722907  7.039772727272728 15.275871766029246  7.005681818181818 15.115579302587175  C 6.971590909090909 14.955286839145106  6.935369318181818 14.827052868391451  6.897017045454546 14.73087739032621  C 6.8586647727272725 14.634701912260969  6.801136363636364 14.558117735283089  6.724431818181818 14.501124859392576  C 6.596590909090908 14.401387326584178  6.379261363636364 14.351518560179978  6.072443181818182 14.351518560179978  C 5.876420454545455 14.351518560179978  5.578125000000001 14.37110986126734  5.177556818181818 14.410292463442069  C 4.776988636363637 14.449475065616799  4.474431818181818 14.469066366704162  4.269886363636363 14.469066366704162  C 3.980113636363637 14.469066366704162  3.7798295454545454 14.429883764529434  3.669034090909091 14.351518560179978  C 3.617897727272727 14.31589801274841  3.571022727272728 14.26068616422947  3.528409090909091 14.185883014623172  C 3.4857954545454546 14.111079865016873  3.4538352272727275 14.03983877015373  3.432528409090909 13.972159730033745  C 3.4112215909090913 13.904480689913761  3.3835227272727275 13.81899137607799  3.349431818181818 13.715691788526433  C 3.315340909090909 13.612392200974877  3.2940340909090913 13.546494188226472  3.2855113636363638 13.517997750281214  C 2.9701704545454546 12.606111736032995  2.8125 11.697787776527932  2.8125 10.79302587176603  C 2.8125 9.888263967004125  2.9701704545454546 8.979940007499064  3.2855113636363638 8.068053993250844  C 3.2940340909090913 8.039557555305585  3.315340909090909 7.973659542557179  3.349431818181818 7.870359955005624  C 3.3835227272727275 7.767060367454068  3.4112215909090913 7.681571053618297  3.432528409090909 7.6138920134983135  C 3.4538352272727275 7.546212973378327  3.4857954545454546 7.474971878515186  3.528409090909091 7.400168728908887  C 3.571022727272728 7.325365579302588  3.617897727272727 7.270153730783651  3.669034090909091 7.234533183352081  C 3.7798295454545454 7.156167979002624  3.980113636363637 7.116985376827897  4.269886363636363 7.116985376827897  C 4.474431818181818 7.116985376827897  4.776988636363637 7.13657667791526  5.177556818181818 7.175759280089988  C 5.578125000000001 7.214941882264715  5.876420454545455 7.234533183352081  6.072443181818182 7.234533183352081  C 6.379261363636364 7.234533183352081  6.596590909090908 7.18466441694788  6.724431818181818 7.084926884139483  C 6.801136363636364 7.027934008248968  6.8586647727272725 6.951349831271091  6.897017045454546 6.855174353205849  C 6.935369318181818 6.758998875140608  6.971590909090909 6.630764904386952  7.005681818181818 6.470472440944881  C 7.039772727272728 6.310179977502812  7.061079545454547 6.215785526809147  7.0696022727272725 6.187289088863892  C 7.0866477272727275 6.1231721034870645  7.171875 5.877390326209225  7.325284090909092 5.44994375703037  C 7.478693181818182 5.022497187851518  7.610795454545455 4.641357330333708  7.721590909090908 4.30652418447694  C 7.832386363636364 3.97169103862017  7.887784090909092 3.7650918635170587  7.887784090909092 3.6867266591676033  C 7.887784090909092 3.5299962504686904  7.7024147727272725 3.3429883764529427  7.331676136363636 3.1257030371203602  C 6.9609375 2.9084176977877756  6.639204545454547 2.7570303712035993  6.3664772727272725 2.671541057367829  C 6.1960227272727275 2.6145481814773137  6.004261363636363 2.586051743532059  5.791193181818182 2.586051743532059  C 5.501420454545455 2.586051743532059  5.083806818181818 2.650168728908887  4.5383522727272725 2.778402699662541  C 4.052556818181818 2.8995125609298826  3.641335227272728 3.0437757780277463  3.3046875 3.2111923509561304  C 2.9680397727272734 3.378608923884512  2.665482954545455 3.6137045369328824  2.397017045454546 3.916479190101237  C 2.1285511363636362 4.219253843269589  1.9325284090909094 4.468597675290587  1.8089488636363635 4.66451068616423  C 1.6853693181818183 4.86042369703787  1.491477272727273 5.197037870266216  1.227272727272727 5.67435320584927  C 1.1761363636363635 5.75984251968504  1.137784090909091 5.8275215598050245  1.1122159090909092 5.877390326209225  C 0.6946022727272727 6.639670041244843  0.40482954545454547 7.409073865766778  0.24289772727272727 8.185601799775027  C 0.08096590909090909 8.962129733783277  0 9.831271091113612  0 10.79302587176603  C 0 11.754780652418448  0.08096590909090909 12.62392200974878  0.24289772727272727 13.40044994375703  C 0.40482954545454547 14.176977877765278  0.6946022727272727 14.946381702287216  1.1122159090909092 15.708661417322833  C 1.5894886363636367 16.577802774653165  1.9431818181818181 17.151293588301463  2.1732954545454546 17.42913385826772  C 2.710227272727273 18.07742782152231  3.4730113636363638 18.529808773903262  4.4616477272727275 18.786276715410573  L 4.5383522727272725 18.807649043869517  C 5.083806818181818 18.935883014623172  5.501420454545455 19  5.791193181818182 19  C 6.004261363636363 19  6.1960227272727275 18.971503562054743  6.3664772727272725 18.91451068616423  C 6.639204545454547 18.82902137232846  6.9609375 18.67763404574428  7.331676136363636 18.4603487064117  Z M 10.495738636363637 7.939820022497188  C 10.316761363636363 8.075178102737157  10.125 8.142857142857144  9.920454545454545 8.142857142857144  C 9.698863636363638 8.142857142857144  9.507102272727273 8.075178102737157  9.345170454545455 7.939820022497188  C 9.183238636363637 7.804461942257217  9.102272727272728 7.642388451443568  9.102272727272728 7.453599550056242  C 9.102272727272728 7.264810648668917  9.183238636363637 7.102737157855267  9.345170454545455 6.967379077615298  C 9.660511363636363 6.703787026621671  9.818181818181817 6.383202099737533  9.818181818181817 6.005624296962879  C 9.818181818181817 5.63517060367454  9.660511363636363 5.311023622047243  9.345170454545455 5.033183352080991  C 9.183238636363637 4.89782527184102  9.102272727272728 4.7375328083989485  9.102272727272728 4.552305961754781  C 9.102272727272728 4.367079115110609  9.183238636363637 4.206786651668541  9.345170454545455 4.071428571428572  C 9.507102272727273 3.936070491188601  9.698863636363638 3.8683914510686166  9.920454545454545 3.8683914510686166  C 10.142045454545455 3.8683914510686166  10.333806818181818 3.936070491188601  10.495738636363637 4.071428571428572  C 11.134943181818183 4.605736782902136  11.454545454545455 5.250468691413573  11.454545454545455 6.005624296962879  C 11.454545454545455 6.760779902512184  11.134943181818183 7.405511811023621  10.495738636363637 7.939820022497188  Z M 12.809659090909092 9.874015748031496  C 12.656250000000002 10.009373828271464  12.464488636363637 10.077052868391451  12.234375 10.077052868391451  C 12.004261363636365 10.077052868391451  11.812500000000002 10.009373828271464  11.659090909090908 9.874015748031496  C 11.497159090909092 9.738657667791527  11.416193181818183 9.578365204349456  11.416193181818183 9.393138357705286  C 11.416193181818183 9.207911511061116  11.497159090909092 9.047619047619047  11.659090909090908 8.912260967379078  C 12.613636363636365 8.100112485939258  13.090909090909092 7.1312335958005235  13.090909090909092 6.005624296962879  C 13.090909090909092 4.880014998125232  12.613636363636365 3.9111361079865024  11.659090909090908 3.0989876265466814  C 11.497159090909092 2.9636295463067106  11.416193181818183 2.8033370828646413  11.416193181818183 2.6181102362204722  C 11.416193181818183 2.4328833895763005  11.497159090909092 2.272590926134231  11.659090909090908 2.137232845894262  C 11.821022727272727 2.0018747656542915  12.012784090909093 1.9341957255343072  12.234375 1.9341957255343072  C 12.45596590909091 1.9341957255343072  12.647727272727273 2.0018747656542915  12.809659090909092 2.137232845894262  C 14.088068181818183 3.205849268841396  14.727272727272728 4.495313085864266  14.727272727272728 6.005624296962879  C 14.727272727272728 7.515935508061492  14.088068181818183 8.805399325084364  12.809659090909092 9.874015748031496  Z M 15.123579545454545 11.808211473565805  C 14.970170454545455 11.943569553805771  14.778409090909092 12.011248593925758  14.548295454545455 12.011248593925758  C 14.318181818181817 12.011248593925758  14.126420454545455 11.943569553805771  13.973011363636363 11.808211473565805  C 13.811079545454549 11.672853393325834  13.730113636363637 11.512560929883762  13.730113636363637 11.327334083239595  C 13.730113636363637 11.142107236595425  13.811079545454549 10.981814773153356  13.973011363636363 10.846456692913385  C 14.740056818181817 10.198162729658792  15.330255681818182 9.457255343082114  15.743607954545455 8.623734533183352  C 16.15696022727273 7.79021372328459  16.363636363636363 6.917510311211097  16.363636363636363 6.005624296962879  C 16.363636363636363 5.093738282714659  16.15696022727273 4.22103487064117  15.743607954545455 3.387514060742407  C 15.330255681818182 2.553993250843644  14.740056818181817 1.8130858642669656  13.973011363636363 1.1647919010123744  C 13.811079545454549 1.0294338207724034  13.730113636363637 0.8691413573303323  13.730113636363637 0.6839145106861648  C 13.730113636363637 0.49868766404199316  13.811079545454549 0.338395200599924  13.973011363636363 0.20303712035995525  C 14.134943181818182 0.06767904011998438  14.326704545454547 0  14.548295454545455 0  C 14.769886363636365 0  14.961647727272728 0.06767904011998438  15.123579545454545 0.20303712035995525  C 16.05255681818182 0.9795650543682027  16.764204545454547 1.8665166854143207  17.258522727272727 2.8638920134983135  C 17.75284090909091 3.861267341582302  18 4.908511436070491  18 6.005624296962879  C 18 7.102737157855267  17.75284090909091 8.149981252343457  17.258522727272727 9.147356580427447  C 16.764204545454547 10.144731908511435  16.05255681818182 11.031683539557553  15.123579545454545 11.808211473565805  Z " fill-rule="nonzero" fill="#027db4" stroke="none" transform="matrix(1 0 0 1 3241 963 )" />
  </g>
</svg>