<?xml version="1.0" encoding="utf-8"?>
<svg version="1.1" xmlns:xlink="http://www.w3.org/1999/xlink" width="26px" height="30px" xmlns="http://www.w3.org/2000/svg">
  <g transform="matrix(1 0 0 1 -1227 -828 )">
    <path d="M 1240 828  C 1247.28 828  1253 834.6  1253 843  C 1253 851.4  1247.28 858  1240 858  C 1232.72 858  1227 851.4  1227 843  C 1227 834.6  1232.72 828  1240 828  Z " fill-rule="nonzero" fill="#ffffff" stroke="none" />
    <path d="M 1240 828.5  C 1247 828.5  1252.5 834.88  1252.5 843  C 1252.5 851.12  1247 857.5  1240 857.5  C 1233 857.5  1227.5 851.12  1227.5 843  C 1227.5 834.88  1233 828.5  1240 828.5  Z " stroke-width="1" stroke="#797979" fill="none" />
  </g>
</svg>