<?xml version="1.0" encoding="utf-8"?>
<svg version="1.1" xmlns:xlink="http://www.w3.org/1999/xlink" width="24px" height="24px" xmlns="http://www.w3.org/2000/svg">
  <g transform="matrix(1 0 0 1 -3209 -2673 )">
    <path d="M 3.5254237420550854 8.610169504766949  L 0.13559320709745845 8.610169504766949  L 0.13559320709745845 0.13559320709745845  L 8.610169504766949 0.13559320709745845  L 8.610169504766949 3.5254237420550854  L 3.5254237420550854 3.5254237420550854  L 3.5254237420550854 8.610169504766949  Z M 0.13559320709745845 23.864406792902543  L 0.13559320709745845 15.389830495233053  L 3.5254237420550854 15.389830495233053  L 3.5254237420550854 20.474576257944914  L 8.610169504766949 20.474576257944914  L 8.610169504766949 23.864406792902543  L 0.13559320709745845 23.864406792902543  Z M 23.864406792902543 0.13559320709745845  L 23.864406792902543 8.610169504766953  L 20.474576257944914 8.610169504766953  L 20.474576257944914 3.5254237420550854  L 15.389830495233053 3.5254237420550854  L 15.389830495233053 0.13559320709745845  L 23.864406792902543 0.13559320709745845  Z M 20.474576257944914 15.389830495233053  L 23.864406792902543 15.389830495233053  L 23.864406792902543 23.864406792902543  L 15.389830495233053 23.864406792902543  L 15.389830495233053 20.474576257944914  L 20.474576257944914 20.474576257944914  L 20.474576257944914 15.389830495233053  Z M 0.13559320709745845 10.305084732521191  L 23.864406792902543 10.30508473252119  L 23.864406792902543 13.694915267478818  L 0.13559320709745845 13.694915267478818  L 0.13559320709745845 10.305084732521191  Z " fill-rule="nonzero" fill="#ffffff" stroke="none" transform="matrix(1 0 0 1 3209 2673 )" />
  </g>
</svg>