<?xml version="1.0" encoding="utf-8"?>
<svg version="1.1" xmlns:xlink="http://www.w3.org/1999/xlink" width="59px" height="57px" xmlns="http://www.w3.org/2000/svg">
  <g transform="matrix(1 0 0 1 -3106 -2563 )">
    <path d="M 3106 2563  L 3165 2563  L 3165 2620  L 3106 2620  L 3106 2563  " fill-rule="nonzero" fill="#cccccc" stroke="none" />
    <path d="M 3110 2567  L 3161 2567  L 3161 2616  L 3110 2616  L 3110 2567  " fill-rule="nonzero" fill="#ffffff" stroke="none" />
    <path d="M 3140.955 2580.1000000000004  C 3138.5609999999997 2580.1000000000004  3136.68 2578.2190000000005  3136.68 2575.8250000000003  C 3136.68 2573.431  3138.5609999999997 2571.55  3140.955 2571.55  C 3143.349 2571.55  3145.23 2573.431  3145.23 2575.8250000000003  C 3145.23 2578.2190000000005  3143.349 2580.1000000000004  3140.955 2580.1000000000004  " fill-rule="nonzero" fill="#cccccc" stroke="none" />
    <path d="M 3112 2615  L 3112 2589.7  L 3124 2578.2  L 3140.8 2588.335593220339  L 3150.4 2585.1  L 3160 2588.335593220339  L 3160 2615  L 3112 2615  " fill-rule="nonzero" fill="#169bd5" stroke="none" />
  </g>
</svg>