<?xml version="1.0" encoding="utf-8"?>
<svg version="1.1" xmlns:xlink="http://www.w3.org/1999/xlink" width="19px" height="26px" xmlns="http://www.w3.org/2000/svg">
  <g transform="matrix(1 0 0 1 -3350 -2580 )">
    <path d="M 12.081521739130435 7.283823529411765  C 12.081521739130435 8.075702398654446  12.659415064756448 8.717647058823529  13.372282608695652 8.717647058823529  C 14.085150152634856 8.717647058823529  14.66304347826087 8.075702398654446  14.66304347826087 7.283823529411765  C 14.66304347826087 6.491944660169082  14.085150152634856 5.8500000000000005  13.372282608695652 5.8500000000000005  C 12.659415064756448 5.8500000000000005  12.081521739130435 6.491944660169082  12.081521739130435 7.283823529411765  Z M 0.034420289855072464 1.0705882352941176  C 0.034420289855072464 1.5991911764705882  0.41906702898550663 2.026470588235294  0.894927536231884 2.026470588235294  L 4.33695652173913 2.026470588235294  C 4.812817028985509 2.026470588235294  5.1974637681159415 1.5991911764705882  5.1974637681159415 1.0705882352941176  C 5.1974637681159415 0.541985294117647  4.812817028985509 0.11470588235294117  4.33695652173913 0.11470588235294117  L 0.894927536231884 0.11470588235294117  C 0.41906702898550663 0.11470588235294117  0.034420289855072464 0.541985294117647  0.034420289855072464 1.0705882352941176  Z M 18.965579710144926 21.144117647058824  C 18.965579710144926 20.61551470588235  18.580932971014494 20.188235294117646  18.105072463768117 20.188235294117646  L 15.52355072463768 20.188235294117646  L 15.52355072463768 17.320588235294117  C 15.52355072463768 16.791985294117644  15.138903985507248 16.36470588235294  14.66304347826087 16.36470588235294  C 14.187182971014492 16.36470588235294  13.802536231884059 16.791985294117644  13.802536231884059 17.320588235294117  L 13.802536231884059 20.188235294117646  L 11.221014492753623 20.188235294117646  C 10.745153985507246 20.188235294117646  10.36050724637681 20.61551470588235  10.36050724637681 21.144117647058824  C 10.36050724637681 21.672720588235297  10.745153985507246 22.099999999999998  11.221014492753623 22.099999999999998  L 13.802536231884059 22.099999999999998  L 13.802536231884059 24.96764705882353  C 13.802536231884059 25.496250000000003  14.187182971014492 25.923529411764704  14.66304347826087 25.923529411764704  C 15.138903985507248 25.923529411764704  15.52355072463768 25.496250000000003  15.52355072463768 24.96764705882353  L 15.52355072463768 22.099999999999998  L 18.105072463768117 22.099999999999998  C 18.580932971014494 22.099999999999998  18.965579710144926 21.672720588235297  18.965579710144926 21.144117647058824  Z " fill-rule="nonzero" fill="#000000" stroke="none" transform="matrix(1 0 0 1 3350 2580 )" />
  </g>
</svg>