<?xml version="1.0" encoding="utf-8"?>
<svg version="1.1" xmlns:xlink="http://www.w3.org/1999/xlink" width="11px" height="12px" xmlns="http://www.w3.org/2000/svg">
  <g transform="matrix(1 0 0 1 -3350 -2588 )">
    <path d="M 10.891447368421053 6.039473684210526  C 10.891447368421053 2.774013157894736  8.457154605263158 0.11842105263157894  5.463815789473684 0.11842105263157894  C 2.47047697368421 0.11842105263157894  0.03618421052631579 2.774013157894736  0.03618421052631579 6.039473684210526  C 0.03618421052631579 9.304934210526316  2.47047697368421 11.960526315789474  5.463815789473684 11.960526315789474  C 8.457154605263158 11.960526315789474  10.891447368421053 9.304934210526316  10.891447368421053 6.039473684210526  Z M 9.082236842105264 6.039473684210526  C 9.082236842105264 8.216447368421052  7.459375 9.986842105263158  5.463815789473684 9.986842105263158  C 3.468256578947369 9.986842105263158  1.8453947368421053 8.216447368421052  1.8453947368421053 6.039473684210526  C 1.8453947368421053 3.8625000000000007  3.468256578947369 2.0921052631578947  5.463815789473684 2.0921052631578947  C 7.459375 2.0921052631578947  9.082236842105264 3.8625000000000007  9.082236842105264 6.039473684210526  Z " fill-rule="nonzero" fill="#000000" stroke="none" transform="matrix(1 0 0 1 3350 2588 )" />
  </g>
</svg>