<?xml version="1.0" encoding="utf-8"?>
<svg version="1.1" xmlns:xlink="http://www.w3.org/1999/xlink" width="24px" height="21px" xmlns="http://www.w3.org/2000/svg">
  <g transform="matrix(1 0 0 1 -3344 -2583 )">
    <path d="M 15.070588235294117 20.04891304347826  C 15.070588235294117 19.522961956521737  14.676176470588237 19.097826086956523  14.188235294117646 19  L 2.7176470588235295 19  C 2.231470588235294 19.097826086956523  1.835294117647059 18.67173913043478  2 18.14673913043478  L 2 2.9293478260869565  C 1.835294117647059 2.405298913043478  2.231470588235294 1.9782608695652175  2.7176470588235295 1.9782608695652175  L 5.364705882352942 1.9782608695652175  C 5.851764705882353 1.9782608695652175  6.247058823529413 1.5521739130434777  6.247058823529413 1.0271739130434783  C 6.247058823529413 0.5021739130434789  5.851764705882353 0.07608695652173914  5.364705882352942 0.07608695652173914  L 2.7176470588235295 0.07608695652173914  C 1.2582352941176473 0.07608695652173914  0.07058823529411765 1.3562500000000002  0 2.9293478260869565  L 0 18.14673913043478  C 0.07058823529411765 19.71983695652174  1.2582352941176473 21  2.7176470588235295 21  L 14.188235294117646 21  C 14.676176470588237 21  15.070588235294117 20.574864130434783  15.070588235294117 20.04891304347826  Z M 11.541176470588235 1.0271739130434783  C 11.541176470588235 1.5521739130434777  11.936470588235293 1.9782608695652175  12.423529411764708 1.9782608695652175  L 21.24705882352941 1.9782608695652175  C 21.734117647058824 1.9782608695652175  22.129411764705885 2.405298913043478  22.129411764705885 2.9293478260869565  L 22.129411764705885 10.53804347826087  C 22.129411764705885 11.063994565217392  22.523823529411764 11.48913043478261  23.011764705882353 11.48913043478261  C 23.49970588235294 11.48913043478261  23.894117647058824 11.063994565217392  23.894117647058824 10.53804347826087  L 23.894117647058824 2.9293478260869565  C 23.894117647058824 1.3562500000000002  22.706470588235295 0.07608695652173914  21.24705882352941 0.07608695652173914  L 12.423529411764708 0.07608695652173914  C 11.936470588235293 0.07608695652173914  11.541176470588235 0.5021739130434789  11.541176470588235 1.0271739130434783  Z " fill-rule="nonzero" fill="#000000" stroke="none" transform="matrix(1 0 0 1 3344 2583 )" />
  </g>
</svg>