<?xml version="1.0" encoding="utf-8"?>
<svg version="1.1" xmlns:xlink="http://www.w3.org/1999/xlink" width="14px" height="14px" xmlns="http://www.w3.org/2000/svg">
  <g transform="matrix(1 0 0 1 -2076 -1049 )">
    <path d="M 3.71875 1.348958327636719  C 3.7187500094384607 0.6442199785158961  4.290053323242459 0.07291667236328121  4.994791672363282 0.07291667236328121  L 12.651041672363283 0.07291667236328121  C 13.355780014810106 0.07291668180174123  13.927083318198259 0.6442199851898954  13.927083327636717 1.348958327636719  L 13.927083327636717 9.005208327636721  C 13.927083327636717 9.709946676757543  13.355780021484104 10.281249990561541  12.651041672363283 10.28125  L 4.994791672363282 10.281250000000004  C 4.29005331656846 10.281250000000004  3.71875 9.709946683431543  3.71875 9.00520832763672  L 3.71875 1.348958327636719  Z M 12.651041672363283 1.1666666723632815  L 4.994791672363283 1.1666666723632815  C 4.894114768369887 1.1666666723632801  4.812500009438458 1.2482814236433264  4.8125 1.348958327636719  L 4.812499999999998 9.00520832763672  C 4.812499999999998 9.105885238304113  4.894114761695888 9.1875  4.994791672363281 9.1875  L 12.651041672363283 9.1875  C 12.751718576356673 9.18749999056154  12.833333327636717 9.105885231630115  12.833333327636717 9.00520832763672  L 12.833333327636717 1.348958327636719  C 12.833333318198259 1.2482814303173255  12.751718569682673 1.1666666818017406  12.651041672363283 1.1666666723632815  Z M 9.1875 12.651041672363283  L 9.1875 11.375  C 9.1875 11.072969277436286  9.432344277436284 10.828125  9.734375 10.828125  C 10.036405722563714 10.828125  10.28125 11.072969277436286  10.28125 11.375  L 10.281250000000004 12.651041672363283  C 10.281249990561541 13.355780021484104  9.709946676757543 13.927083327636717  9.00520832763672 13.927083327636717  L 1.348958327636719 13.927083327636717  C 0.6442199851898968 13.927083318198259  0.07291668180174123 13.355780014810106  0.07291667236328121 12.651041672363283  L 0.07291667236328121 4.994791672363282  C 0.07291667236328121 4.290053323242459  0.6442199785158961 3.7187500094384607  1.348958327636719 3.71875  L 2.625 3.71875  C 2.927030722563715 3.71875  3.171875 3.9635942774362847  3.171875 4.265625  C 3.171875 4.567655722563716  2.927030722563715 4.8125  2.625 4.8125  L 1.3489583276367185 4.812499999999998  C 1.2482814236433255 4.812500009438458  1.1666666723632801 4.894114768369889  1.166666672363281 4.994791672363282  L 1.166666672363281 12.651041672363283  C 1.1666666818017406 12.751718569682673  1.2482814303173255 12.833333318198259  1.3489583276367185 12.833333327636717  L 9.00520832763672 12.833333327636717  C 9.105885231630115 12.833333327636717  9.18749999056154 12.751718576356673  9.1875 12.651041672363283  Z " fill-rule="nonzero" fill="#000000" stroke="none" transform="matrix(1 0 0 1 2076 1049 )" />
  </g>
</svg>