<?xml version="1.0" encoding="utf-8"?>
<svg version="1.1" xmlns:xlink="http://www.w3.org/1999/xlink" width="13px" height="13px" xmlns="http://www.w3.org/2000/svg">
  <g transform="matrix(1 0 0 1 -1666 -191 )">
    <path d="M 10.168393342391312 11.284978693181813  L 9.66334069293481 11.799138849431813  C 9.40170686141306 12.065740411931813  9.395083220108688 12.503728693181813  9.650093410326065 12.778986150568187  C 9.779254415760875 12.91921164772728  9.951469089673935 12.988458806818187  10.12533967391306 12.988458806818187  C 10.292586616847814 12.988458806818187  10.458177649456502 12.922674005681813  10.587338654891312 12.792835582386374  L 12.259808084239125 11.09108664772728  C 12.387313179347814 10.961248224431813  12.460173233695627 10.781205610795467  12.460173233695627 10.59423828125  C 12.460173233695627 10.407270951704533  12.387313179347814 10.228959517045467  12.259808084239125 10.09738991477272  L 10.587338654891312 8.395640980113626  C 10.325704823369563 8.129039417613626  9.905103600543498 8.134232954545467  9.650093410326065 8.409490411931813  C 9.395083220108688 8.683016690340907  9.40005095108694 9.122736150568187  9.66334069293481 9.389337713068187  L 10.168393342391312 9.903497869318187  L 2.4816576086956275 9.903497869318187  C 2.1157014266304373 9.903497869318187  1.8192934782608745 9.593616832386374  1.8192934782608745 9.211026278409093  L 1.8192934782608745 2.5944602272727195  C 1.8192934782608745 2.2118696732954675  2.1157014266304373 1.9019886363636263  2.4816576086956275 1.9019886363636263  L 8.310461956521749 1.9019886363636263  C 8.67641813858694 1.9019886363636263  8.972826086956502 2.2118696732954675  8.972826086956502 2.5944602272727195  L 8.972826086956502 6.6107954545454675  C 8.972826086956502 6.99338600852272  9.269234035326065 7.3032670454545325  9.635190217391312 7.3032670454545325  C 10.001146399456502 7.3032670454545325  10.297554347826065 6.99338600852272  10.297554347826065 6.6107954545454675  L 10.297554347826065 2.5944602272727195  C 10.297554347826065 1.448419744318187  9.406674592391312 0.5170454545454675  8.310461956521749 0.5170454545454675  L 2.4816576086956275 0.5170454545454675  C 1.3854449728260647 0.5170454545454675  0.49456521739131176 1.448419744318187  0.49456521739131176 2.5944602272727195  L 0.49456521739131176 9.207563920454533  C 0.49456521739131176 10.353604403409093  1.3854449728260647 11.284978693181813  2.4816576086956275 11.284978693181813  L 10.168393342391312 11.284978693181813  Z " fill-rule="nonzero" fill="#cccccc" stroke="none" transform="matrix(1 0 0 1 1666 191 )" />
  </g>
</svg>