<?xml version="1.0" encoding="utf-8"?>
<svg version="1.1" xmlns:xlink="http://www.w3.org/1999/xlink" width="11px" height="11px" xmlns="http://www.w3.org/2000/svg">
  <g transform="matrix(1 0 0 1 -1671 -196 )">
    <path d="M 10.493421052631561 2.1076171875000114  C 10.493421052631561 1.0409179687499943  9.58090049342104 0.17402343750001137  8.4580592105263 0.17402343750001137  L 6.82976973684208 0.17402343750001137  C 6.454923930921041 0.17402343750001137  6.151315789473699 0.4624511718749886  6.151315789473699 0.8185546875000114  C 6.151315789473699 1.1746582031250057  6.454923930921041 1.4630859375000114  6.82976973684208 1.4630859375000114  L 8.4580592105263 1.4630859375000114  C 8.832905016447341 1.4630859375000114  9.13651315789474 1.7515136718749886  9.13651315789474 2.1076171875000114  L 9.13651315789474 8.585156250000011  C 9.13651315789474 8.941259765625006  8.832905016447341 9.229687500000011  8.4580592105263 9.229687500000011  L 2.4876644736842195 9.229687500000011  C 2.112818667763179 9.229687500000011  1.8092105263157805 8.941259765625006  1.8092105263157805 8.585156250000011  L 1.8092105263157805 7.420166015625  C 1.8092105263157805 7.064062500000005  1.505602384868439 6.775634765625  1.1307565789473415 6.775634765625  C 0.7559107730263008 6.775634765625  0.45230263157895934 7.064062500000005  0.45230263157895934 7.420166015625  L 0.45230263157895934 8.585156250000011  C 0.45230263157895934 9.65185546875  1.3648231907894797 10.518750000000011  2.4876644736842195 10.518750000000011  L 8.4580592105263 10.518750000000011  C 9.58090049342104 10.518750000000011  10.493421052631561 9.65185546875  10.493421052631561 8.585156250000011  L 10.493421052631561 2.1076171875000114  Z " fill-rule="nonzero" fill="#ffffff" stroke="none" transform="matrix(1 0 0 1 1671 196 )" />
  </g>
</svg>