<?xml version="1.0" encoding="utf-8"?>
<svg version="1.1" xmlns:xlink="http://www.w3.org/1999/xlink" width="9px" height="14px" xmlns="http://www.w3.org/2000/svg">
  <g transform="matrix(1 0 0 1 -2203 -1130 )">
    <path d="M 8.71875 2.3142277644230833  C 8.71875 1.2699068509615417  8.212123325892843 0.42119891826923583  7.588727678571438 0.42119891826923583  L 7.099051339285719 0.42119891826923583  C 6.890938895089281 0.42119891826923583  6.722377232142843 0.7035757211538471  6.722377232142843 1.0522085336538471  C 6.722377232142843 1.4008413461538471  6.890938895089281 1.6832181490384583  7.099051339285719 1.6832181490384583  L 7.588727678571438 1.6832181490384583  C 7.796840122767843 1.6832181490384583  7.965401785714281 1.9655949519230833  7.965401785714281 2.3142277644230833  L 7.965401785714281 3.8112980769230833  L 1.0345982142857189 3.8112980769230833  L 1.0345982142857189 2.3142277644230833  C 1.0345982142857189 1.9655949519230833  1.2031598772321566 1.6832181490384583  1.4112723214285623 1.6832181490384583  L 1.9009486607142811 1.6832181490384583  C 2.109061104910719 1.6832181490384583  2.2776227678571566 1.4008413461538471  2.2776227678571566 1.0522085336538471  C 2.2776227678571566 0.7035757211538471  2.109061104910719 0.42119891826923583  1.9009486607142811 0.42119891826923583  L 1.4112723214285623 0.42119891826923583  C 0.7878766741071566 0.42119891826923583  0.28125 1.2699068509615417  0.28125 2.3142277644230833  L 0.28125 11.635817307692307  C 0.28125 12.680138221153847  0.7878766741071566 13.528846153846153  1.4112723214285623 13.528846153846153  L 7.588727678571438 13.528846153846153  C 8.212123325892843 13.528846153846153  8.71875 12.680138221153847  8.71875 11.635817307692307  L 8.71875 2.3142277644230833  Z M 7.965401785714281 11.635817307692307  C 7.965401785714281 11.984450120192307  7.796840122767843 12.266826923076918  7.588727678571438 12.266826923076918  L 1.4112723214285623 12.266826923076918  C 1.2031598772321566 12.266826923076918  1.0345982142857189 11.984450120192307  1.0345982142857189 11.635817307692307  L 1.0345982142857189 5.073317307692306  L 7.965401785714281 5.073317307692306  L 7.965401785714281 11.635817307692307  Z " fill-rule="nonzero" fill="#999999" stroke="none" transform="matrix(1 0 0 1 2203 1130 )" />
  </g>
</svg>