<?xml version="1.0" encoding="utf-8"?>
<svg version="1.1" xmlns:xlink="http://www.w3.org/1999/xlink" width="15px" height="15px" xmlns="http://www.w3.org/2000/svg">
  <g transform="matrix(1 0 0 1 -2254 -90 )">
    <path d="M 15 7.5  C 15 3.358258928571427  11.641741071428573 0  7.5 0  C 3.358258928571427 0  0 3.358258928571427  0 7.5  C 0 11.641741071428573  3.358258928571427 15  7.5 15  C 11.641741071428573 15  15 11.641741071428573  15 7.5  Z M 13.176897321428562 9.897321428571422  C 12.867187500000021 10.630580357142865  12.421875 11.290178571428573  11.856026785714313 11.856026785714286  C 11.290178571428573 12.421875  10.630580357142865 12.867187499999995  9.897321428571448 13.176897321428577  C 9.138950892857167 13.498325892857146  8.33203124999999 13.660714285714285  7.5 13.660714285714285  C 6.667968750000011 13.660714285714285  5.861049107142833 13.498325892857146  5.102678571428552 13.176897321428577  C 4.369419642857135 12.867187499999995  3.709821428571427 12.421875  3.143973214285687 11.856026785714286  C 2.578125 11.290178571428573  2.1328124999999787 10.630580357142865  1.8231026785714377 9.897321428571422  C 1.501674107142854 9.13895089285714  1.3392857142857295 8.332031250000004  1.3392857142857295 7.5  C 1.3392857142857295 6.667968749999997  1.501674107142854 5.861049107142859  1.8231026785714377 5.102678571428578  C 2.1328124999999787 4.369419642857135  2.578125 3.709821428571427  3.143973214285687 3.1439732142857135  C 3.709821428571427 2.578125  4.369419642857135 2.1328125000000053  5.102678571428552 1.8231026785714377  C 5.861049107142833 1.501674107142854  6.667968750000011 1.3392857142857162  7.5 1.3392857142857162  C 8.33203124999999 1.3392857142857162  9.138950892857167 1.501674107142854  9.897321428571448 1.8231026785714377  C 10.630580357142865 2.1328125000000053  11.290178571428573 2.578125  11.856026785714313 3.1439732142857135  C 12.421875 3.709821428571427  12.867187500000021 4.369419642857135  13.176897321428562 5.102678571428578  C 13.498325892857146 5.861049107142859  13.66071428571427 6.667968749999997  13.66071428571427 7.5  C 13.66071428571427 8.332031250000004  13.498325892857146 9.13895089285714  13.176897321428562 9.897321428571422  Z " fill-rule="nonzero" fill="#999999" stroke="none" transform="matrix(1 0 0 1 2254 90 )" />
  </g>
</svg>