<?xml version="1.0" encoding="utf-8"?>
<svg version="1.1" xmlns:xlink="http://www.w3.org/1999/xlink" width="37px" height="21px" xmlns="http://www.w3.org/2000/svg">
  <g transform="matrix(1 0 0 1 -2436 -1201 )">
    <path d="M 36.87413736979166 10.5  C 36.98374023437499 7.801528532608696  35.22618001302083 5.237516983695652  31.918522135416666 3.2716202445652174  C 28.415144856770834 1.1921280570652173  23.541731770833334 0.03530910326086968  18.539143880208336 0.11413043478260869  C 13.493497721354167 0.030672554347825964  8.584855143229166 1.1921280570652173  5.081477864583333 3.2716202445652174  C 1.7659912109375 5.242153532608696  0.0045166015625 7.820074728260869  0.1297770182291664 10.5  C 0.13369140625000028 12.345346467391304  0.9243977864583333 14.116508152173912  2.407950846354167 15.655842391304347  L 1.2727783203125 17.679695991847822  C 0.8578531901041669 18.416907269021735  1.1279459635416664 19.207438858695653  1.9891113281250004 19.793962296195648  C 2.6976155598958336 20.276163383152173  3.6957845052083336 20.542764945652173  4.7487548828124995 20.542764945652173  C 4.971875 20.542764945652173  5.198909505208333 20.531173573369564  5.429858398437499 20.505672554347825  L 10.612508138020832 19.940013586956518  C 13.055086263020833 20.563629415760868  15.701212565104168 20.883551290760867  18.464770507812503 20.885869565217387  C 18.617431640625 20.88818783967391  18.766178385416666 20.88818783967391  18.918839518229166 20.88818783967391  C 23.807910156250003 20.88818783967391  28.524747721354167 19.745278532608694  31.9224365234375 17.72606148097826  C 35.22618001302083 15.762483016304348  36.983740234375006 13.198471467391304  36.87413736979166 10.5  Z M 33.53907877604167 10.525501019021739  C 33.629109700520836 12.6861328125  32.216015625000004 14.747078804347828  29.550317382812498 16.330460258152176  C 26.692814127604166 18.027437160326087  22.6688232421875 18.968656589673913  18.499999999999996 18.90606317934783  C 16.04959309895833 18.903744904891305  13.744018554687498 18.61627887228261  11.645906575520833 18.050619904891306  C 11.626334635416667 18.045983355978258  11.606762695312499 18.043665081521738  11.591105143229168 18.039028532608697  C 11.270125325520834 17.93702445652174  10.89434407552083 17.892977241847827  10.510734049479167 17.93702445652174  L 4.823128255208333 18.558322010869567  C 4.697867838541666 18.569913383152176  4.5921793619791655 18.54904891304348  4.5099772135416645 18.49341032608696  C 4.427775065104165 18.437771739130437  4.404288736979166 18.37286005434783  4.447347005208332 18.300993546195656  L 5.801725260416665 15.887669836956523  C 5.919156901041665 15.676706861413047  5.907413736979166 15.458789062500001  5.793896484375 15.264054008152177  C 5.754752604166666 15.157413383152177  5.6882080078124995 15.05540930706522  5.586433919270833 14.958041779891307  C 4.208569335937499 13.657489809782609  3.476578776041665 12.11351902173913  3.4726643880208314 10.472180706521739  C 3.3748046874999975 8.311548913043481  4.787898763020832 6.250602921195652  7.453597005208332 4.667221467391307  C 10.311100260416666 2.970244565217394  14.303776041666666 2.0382982336956545  18.54697265625 2.0893002717391327  C 22.704052734375 2.0452530570652194  26.700642903645836 2.970244565217394  29.558146158854164 4.667221467391307  C 32.22384440104167 6.250602921195655  33.636938476562506 8.311548913043481  33.53907877604167 10.472180706521739  L 33.53907877604167 10.525501019021739  Z " fill-rule="nonzero" fill="#000000" stroke="none" transform="matrix(1 0 0 1 2436 1201 )" />
  </g>
</svg>