<?xml version="1.0" encoding="utf-8"?>
<svg version="1.1" xmlns:xlink="http://www.w3.org/1999/xlink" width="17px" height="8px" xmlns="http://www.w3.org/2000/svg">
  <g transform="matrix(1 0 0 1 -2447 -1211 )">
    <path d="M 16.428906249999997 1.599999999999998  C 16.428906249999997 0.9608333333333311  15.794726562499996 0.4435416666666659  15.014453125000001 0.4435416666666678  C 14.230859375000003 0.4435416666666678  13.5966796875 0.9608333333333349  13.5966796875 1.6  C 13.5966796875 3.8289583333333326  11.308984375 5.643541666666666  8.5 5.643541666666666  C 5.6910156249999995 5.643541666666666  3.4033203125 3.8289583333333326  3.4033203125 1.599999999999998  C 3.4033203125 0.9608333333333311  2.769140625 0.4435416666666659  1.9855468750000014 0.4435416666666659  C 1.201953125000001 0.4435416666666659  0.5677734375000005 0.960833333333333  0.5677734375000005 1.599999999999998  C 0.5677734375000005 5.1045833333333315  4.123828125000001 7.95645833333333  8.5 7.95645833333333  C 12.872851562500001 7.95645833333333  16.428906249999997 5.1045833333333315  16.428906249999997 1.599999999999998  Z " fill-rule="nonzero" fill="#000000" stroke="none" transform="matrix(1 0 0 1 2447 1211 )" />
  </g>
</svg>