<?xml version="1.0" encoding="utf-8"?>
<svg version="1.1" xmlns:xlink="http://www.w3.org/1999/xlink" width="104px" height="104px" xmlns="http://www.w3.org/2000/svg">
  <g transform="matrix(1 0 0 1 -3337 -7877 )">
    <path d="M 3338 7881  A 3 3 0 0 1 3341 7878 L 3437 7878  A 3 3 0 0 1 3440 7881 L 3440 7977  A 3 3 0 0 1 3437 7980 L 3341 7980  A 3 3 0 0 1 3338 7977 L 3338 7881  Z " fill-rule="nonzero" fill="#000000" stroke="none" fill-opacity="0.0196078431372549" />
    <path d="M 3337.5 7881  A 3.5 3.5 0 0 1 3341 7877.5 L 3437 7877.5  A 3.5 3.5 0 0 1 3440.5 7881 L 3440.5 7977  A 3.5 3.5 0 0 1 3437 7980.5 L 3341 7980.5  A 3.5 3.5 0 0 1 3337.5 7977 L 3337.5 7881  Z " stroke-width="1" stroke-dasharray="9,4" stroke="#d9d9d9" fill="none" stroke-dashoffset="0.5" />
  </g>
</svg>