<?xml version="1.0" encoding="utf-8"?>
<svg version="1.1" xmlns:xlink="http://www.w3.org/1999/xlink" width="10px" height="9px" xmlns="http://www.w3.org/2000/svg">
  <g transform="matrix(1 0 0 1 -5617 -404 )">
    <path d="M 9.831964662905094 4.439317101111781  C 9.831964662905094 1.9933908128004807  7.664286205150463 0.0031094689002399123  4.9983529730902765 0.0031094689002399123  C 2.3323457031250006 0.0031094689002399123  0.16366793258101694 1.993425428185095  0.16366793258101694 4.4393171011117785  C 0.16366793258101694 6.8846899151141825  2.3323457031250006 8.872964918870194  4.9983529730902765 8.872964918870194  C 7.664286205150463 8.872964918870194  9.831964662905094 6.884689881310097  9.831964662905094 4.439317101111781  Z M 7.684938874421292 4.438279349459133  C 7.684938874421298 5.800544181941105  6.479311848958337 6.90862753530649  4.9983529730902765 6.90862753530649  C 3.5162837456597207 6.90862753530649  2.3105826822916637 5.800544215745191  2.3105826822916637 4.438279349459133  C 2.3105826822916637 3.0764987943209112  3.516246708622682 1.9679657451923065  4.998352973090274 1.9679657451923065  C 6.479311848958331 1.9679657451923065  7.684938874421292 3.076498760516826  7.684938874421292 4.438279349459133  Z " fill-rule="nonzero" fill="#555555" stroke="none" transform="matrix(1 0 0 1 5617 404 )" />
  </g>
</svg>