<?xml version="1.0" encoding="utf-8"?>
<svg version="1.1" xmlns:xlink="http://www.w3.org/1999/xlink" width="22px" height="28px" xmlns="http://www.w3.org/2000/svg">
  <g transform="matrix(1 0 0 1 -5611 -399 )">
    <path d="M 12.29210298954133 27.314055987995427  C 15.1622570249496 23.68140185308689  21.839626556199594 14.753713362233235  21.839626556199594 10.321416034679878  C 21.839626556199594 4.671227348513719  16.97627553553427 0.07493387957317207  10.998422041960684 0.07493387957317207  C 5.021632371471773 0.07493387957317207  0.160302545362903 4.67122734851372  0.160302545362903 10.321416034679878  C 0.160302545362903 14.752621446265245  6.834551609753025 23.681367740091467  9.705663051285281 27.314055987995427  C 10.007993567288306 27.69729371665396  10.491701067918347 27.92499786108994  10.998386592741936 27.92499786108994  C 11.503972845262096 27.92499786108994  11.988779618195565 27.69729371665396  12.29210298954133 27.314055987995427  Z M 19.95784431703629 10.321416034679878  C 19.958908105468748 12.91624697503811  16.591500913558466 18.832801400533533  11.169373872227823 25.763122156059453  L 10.998422041960687 25.981783655678356  L 10.827434762474798 25.763122156059453  C 5.4073643995715726 18.832801400533533  2.037900494581654 12.915257398056402  2.037900494581654 10.321416034679878  C 2.037900494581654 5.650870479230182  6.056846619833671 1.851114986661586  10.998422041960687 1.851114986661586  C 15.938969124873992 1.851114986661586  19.95784431703629 5.650870445884147  19.95784431703629 10.321416034679878  Z " fill-rule="nonzero" fill="#555555" stroke="none" transform="matrix(1 0 0 1 5611 399 )" />
  </g>
</svg>