<?xml version="1.0" encoding="utf-8"?>
<svg version="1.1" xmlns:xlink="http://www.w3.org/1999/xlink" width="25px" height="15px" xmlns="http://www.w3.org/2000/svg">
  <g transform="matrix(1 0 0 1 -6002 -267 )">
    <path d="M 24.749498997995993 1.546391752577319  C 24.916499665998664 1.7182130584192397  25 1.9158075601374551  25 2.1391752577319596  C 25 2.3625429553264587  24.916499665998664 2.560137457044671  24.749498997995993 2.731958762886598  L 13.076152304609218 14.742268041237113  C 12.909151636606547 14.914089347079033  12.717100868403474 15  12.5 15  C 12.282899131596528 15  12.090848363393455 14.914089347079033  11.923847695390782 14.742268041237113  L 0.250501002004008 2.731958762886598  C 0.08350033400133625 2.560137457044671  0 2.3625429553264587  0 2.1391752577319596  C 0 1.9158075601374551  0.08350033400133625 1.7182130584192397  0.250501002004008 1.546391752577319  L 1.503006012024048 0.25773195876288735  C 1.6700066800267206 0.08591065292096023  1.8620574482297931 0  2.0791583166332663 0  C 2.2962591850367406 0  2.488309953239813 0.08591065292096023  2.655310621242485 0.25773195876288735  L 12.5 10.38659793814433  L 22.344689378757515 0.25773195876288735  C 22.511690046760187 0.08591065292096023  22.70374081496326 0  22.92084168336673 0  C 23.13794255177021 0  23.329993319973283 0.08591065292096023  23.49699398797595 0.25773195876288735  L 24.749498997995993 1.546391752577319  Z " fill-rule="nonzero" fill="#000000" stroke="none" transform="matrix(1 0 0 1 6002 267 )" />
  </g>
</svg>