<?xml version="1.0" encoding="utf-8"?>
<svg version="1.1" xmlns:xlink="http://www.w3.org/1999/xlink" width="37px" height="25px" xmlns="http://www.w3.org/2000/svg">
  <g transform="matrix(1 0 0 1 -2940 -986 )">
    <path d="M 36.92116477272727 19.371448863636363  C 36.97372159090909 19.45430871212121  37 19.57859848484848  37 19.744318181818183  C 37 20.063920454545453  36.912405303030305 20.481178977272727  36.73721590909091 20.99609375  C 36.562026515151516 21.511008522727273  36.378077651515156 21.916429924242422  36.18536931818182 22.212357954545453  C 35.81747159090909 22.804214015151516  34.748816287878796 23.431581439393938  32.97940340909091 24.094460227272727  C 31.33262310606061 24.69815340909091  29.703361742424246 25  28.09161931818182 25  C 27.618607954545453 25  27.154356060606066 24.97928503787879  26.698863636363637 24.937855113636363  C 26.243371212121215 24.89642518939394  25.73970170454546 24.822443181818183  25.187855113636363 24.71590909090909  C 24.636008522727273 24.609375  24.2243134469697 24.52355587121212  23.952769886363637 24.458451704545457  C 23.681226325757578 24.39334753787879  23.195075757575758 24.272017045454543  22.49431818181818 24.094460227272727  C 21.79356060606061 23.91690340909091  21.364346590909093 23.810369318181817  21.206676136363637 23.774857954545457  C 19.489820075757578 23.36055871212121  17.95691287878788 22.869318181818183  16.607954545454547 22.301136363636363  C 14.383049242424242 21.36600378787879  12.070549242424242 20.087594696969695  9.670454545454545 18.46590909090909  C 7.270359848484849 16.84422348484848  5.3783143939393945 15.281723484848486  3.9943181818181817 13.778409090909092  C 3.153409090909091 12.866950757575758  2.4263731060606064 11.831202651515149  1.8132102272727273 10.671164772727273  C 1.7606534090909092 10.56463068181818  1.6029829545454546 10.27462121212121  1.3401988636363638 9.801136363636365  C 1.0774147727272727 9.327651515151514  0.897845643939394 8.999171401515149  0.8014914772727273 8.815696022727273  C 0.7051373106060607 8.632220643939393  0.578125 8.354048295454545  0.42045454545454547 7.981178977272727  C 0.2627840909090909 7.6083096590909065  0.15329071969696972 7.267992424242423  0.09197443181818182 6.960227272727273  C 0.030658143939393936 6.652462121212118  0 6.338778409090909  0 6.019176136363635  C 0 4.9301609848484835  0.44673295454545453 3.82930871212121  1.3401988636363638 2.7166193181818175  C 2.3212594696969697 1.5210700757575717  3.2497632575757573 0.7990056818181823  4.1257102272727275 0.5504261363636354  C 4.563683712121213 0.4202178030303011  5.163707386363637 0.2959280303030276  5.92578125 0.17755681818181768  C 6.687855113636363 0.05918560606060497  7.3053977272727275 0  7.778409090909091 0  C 8.023674242424244 0  8.207623106060607 0.017755681818182323  8.330255681818182 0.05326704545454419  C 8.645596590909092 0.12428977272727348  9.109848484848484 0.5741003787878785  9.723011363636363 1.4026988636363646  C 9.915719696969697 1.627604166666663  10.178503787878789 1.9472064393939363  10.511363636363637 2.3615056818181825  C 10.844223484848484 2.7758049242424225  11.150804924242426 3.1516335227272734  11.431107954545455 3.4889914772727266  C 11.711410984848484 3.8263494318181825  11.982954545454545 4.142992424242423  12.245738636363637 4.438920454545456  C 12.298295454545455 4.486268939393937  12.451586174242426 4.634232954545456  12.705610795454545 4.8828125  C 12.95963541666667 5.131392045454544  13.147964015151517 5.341500946969696  13.27059659090909 5.513139204545456  C 13.393229166666668 5.68477746212121  13.454545454545455 5.853456439393937  13.454545454545455 6.019176136363635  C 13.454545454545455 6.255918560606058  13.204900568181818 6.551846590909091  12.705610795454545 6.906960227272727  C 12.206321022727273 7.262073863636365  11.663233901515152 7.587594696969696  11.076349431818182 7.883522727272727  C 10.489464962121213 8.179450757575754  9.94637784090909 8.493134469696969  9.447088068181818 8.824573863636365  C 8.947798295454545 9.156013257575758  8.698153409090908 9.428267045454545  8.698153409090908 9.641335227272727  C 8.698153409090908 9.747869318181818  8.741950757575758 9.881036931818182  8.829545454545455 10.040838068181818  C 8.917140151515152 10.200639204545455  8.991595643939394 10.321969696969695  9.052911931818182 10.404829545454545  C 9.11422821969697 10.487689393939393  9.236860795454545 10.629734848484848  9.42080965909091 10.830965909090908  C 9.604758522727273 11.032196969696969  9.705492424242426 11.144649621212121  9.723011363636363 11.168323863636365  C 11.054450757575758 12.790009469696967  12.578598484848484 14.18087121212121  14.295454545454545 15.340909090909092  C 16.012310606060606 16.500946969696965  18.070785984848488 17.530776515151516  20.47088068181818 18.43039772727273  C 20.50591856060606 18.442234848484844  20.672348484848484 18.510298295454547  20.970170454545453 18.634588068181817  C 21.267992424242426 18.75887784090909  21.4782196969697 18.841737689393938  21.600852272727273 18.883167613636363  C 21.72348484848485 18.92459753787879  21.903053977272727 18.9749053030303  22.13955965909091 19.03409090909091  C 22.37606534090909 19.093276515151516  22.57315340909091 19.122869318181817  22.730823863636363 19.122869318181817  C 23.046164772727273 19.122869318181817  23.44910037878788 18.95419034090909  23.93963068181818 18.616832386363637  C 24.430160984848484 18.279474431818183  24.894412878787882 17.912523674242422  25.332386363636363 17.515980113636363  C 25.77035984848485 17.119436553030297  26.25213068181818 16.752485795454547  26.777698863636363 16.41512784090909  C 27.303267045454547 16.077769886363637  27.741240530303035 15.909090909090908  28.09161931818182 15.909090909090908  C 28.336884469696972 15.909090909090908  28.58652935606061 15.950520833333332  28.840553977272727 16.033380681818183  C 29.09457859848485 16.116240530303028  29.405539772727273 16.243489583333332  29.7734375 16.41512784090909  C 30.141335227272727 16.586766098484844  30.360321969696972 16.69034090909091  30.430397727272727 16.72585227272727  C 30.868371212121215 16.90340909090909  31.33700284090909 17.086884469696965  31.836292613636363 17.27627840909091  C 32.33558238636363 17.465672348484844  32.89180871212121 17.672821969696965  33.50497159090909 17.89772727272727  C 34.118134469696976 18.122632575757574  34.591145833333336 18.30018939393939  34.92400568181818 18.43039772727273  C 36.15033143939394 18.844696969696965  36.81605113636363 19.158380681818183  36.92116477272727 19.371448863636363  Z " fill-rule="nonzero" fill="#000000" stroke="none" transform="matrix(1 0 0 1 2940 986 )" />
  </g>
</svg>