<?xml version="1.0" encoding="utf-8"?>
<svg version="1.1" xmlns:xlink="http://www.w3.org/1999/xlink" width="14px" height="14px" xmlns="http://www.w3.org/2000/svg">
  <g transform="matrix(1 0 0 1 -139 -1126 )">
    <path d="M 139 1126  L 153 1126  L 153 1140  L 139 1140  L 139 1126  " fill-rule="nonzero" fill="#cccccc" stroke="none" />
    <path d="M 140 1127  L 152 1127  L 152 1139  L 140 1139  L 140 1127  " fill-rule="nonzero" fill="#ffffff" stroke="none" />
    <path d="M 147.32999999999998 1130.1999999999998  C 146.742 1130.1999999999998  146.28 1129.7379999999998  146.28 1129.1499999999999  C 146.28 1128.562  146.742 1128.1  147.32999999999998 1128.1  C 147.91799999999998 1128.1  148.38 1128.562  148.38 1129.1499999999999  C 148.38 1129.7379999999998  147.91799999999998 1130.1999999999998  147.32999999999998 1130.1999999999998  " fill-rule="nonzero" fill="#cccccc" stroke="none" />
    <path d="M 141 1139  L 141 1132.95  L 143.75 1130.2  L 147.6 1132.4  L 149.8 1131.85  L 152 1132.4  L 152 1139  L 141 1139  " fill-rule="nonzero" fill="#169bd5" stroke="none" />
  </g>
</svg>