<?xml version="1.0" encoding="utf-8"?>
<svg version="1.1" xmlns:xlink="http://www.w3.org/1999/xlink" width="27px" height="27px" xmlns="http://www.w3.org/2000/svg">
  <g transform="matrix(1 0 0 1 -4216 -1042 )">
    <path d="M 4229.5 1042  C 4237.06 1042  4243 1047.94  4243 1055.5  C 4243 1063.06  4237.06 1069  4229.5 1069  C 4221.94 1069  4216 1063.06  4216 1055.5  C 4216 1047.94  4221.94 1042  4229.5 1042  Z " fill-rule="nonzero" fill="#ffffff" stroke="none" />
    <path d="M 4229.5 1042.5  C 4236.78 1042.5  4242.5 1048.22  4242.5 1055.5  C 4242.5 1062.78  4236.78 1068.5  4229.5 1068.5  C 4222.22 1068.5  4216.5 1062.78  4216.5 1055.5  C 4216.5 1048.22  4222.22 1042.5  4229.5 1042.5  Z " stroke-width="1" stroke="#797979" fill="none" />
  </g>
</svg>