<?xml version="1.0" encoding="utf-8"?>
<svg version="1.1" xmlns:xlink="http://www.w3.org/1999/xlink" width="28px" height="16px" xmlns="http://www.w3.org/2000/svg">
  <g transform="matrix(1 0 0 1 -607 -582 )">
    <path d="M 27.71943887775551 1.6494845360824737  C 27.906479625918504 1.8327605956471889  28 2.043528064146619  28 2.281786941580757  C 28 2.5200458190148893  27.906479625918504 2.730813287514316  27.71943887775551 2.914089347079038  L 14.645290581162325 15.72508591065292  C 14.458249832999332 15.908361970217635  14.243152972611892 16  14 16  C 13.756847027388112 16  13.54175016700067 15.908361970217635  13.354709418837675 15.72508591065292  L 0.280561122244489 2.914089347079038  C 0.0935203740814966 2.730813287514316  0 2.5200458190148893  0 2.281786941580757  C 0 2.043528064146619  0.0935203740814966 1.8327605956471889  0.280561122244489 1.6494845360824737  L 1.6833667334669338 0.27491408934707984  C 1.8704074816299272 0.09163802978235758  2.0855043420173685 0  2.3286573146292584 0  C 2.5718102872411492 0  2.7869071476285905 0.09163802978235758  2.973947895791583 0.27491408934707984  L 14 11.079037800687285  L 25.026052104208418 0.27491408934707984  C 25.21309285237141 0.09163802978235758  25.42818971275885 0  25.67134268537074 0  C 25.914495657982634 0  26.129592518370078 0.09163802978235758  26.316633266533067 0.27491408934707984  L 27.71943887775551 1.6494845360824737  Z " fill-rule="nonzero" fill="#000000" stroke="none" transform="matrix(1 0 0 1 607 582 )" />
  </g>
</svg>