<?xml version="1.0" encoding="utf-8"?>
<svg version="1.1" xmlns:xlink="http://www.w3.org/1999/xlink" width="43px" height="38px" xmlns="http://www.w3.org/2000/svg">
  <g transform="matrix(1 0 0 1 -900 -655 )">
    <path d="M 32.78989955357143 14.960379464285714  C 33.005859375 14.642299107142856  33.065848214285715 14.299479166666664  32.96986607142857 13.931919642857144  C 32.87388392857143 13.564360119047615  32.645926339285715 13.28515625  32.28599330357143 13.094308035714286  C 31.926060267857146 12.90345982142857  31.538132440476193 12.85044642857143  31.12220982142857 12.935267857142856  C 26.946986607142854 13.81175595238095  23.739583333333336 14.25  21.5 14.25  C 19.260416666666668 14.25  16.053013392857142 13.81175595238095  11.877790178571427 12.935267857142856  C 11.46186755952381 12.85044642857143  11.073939732142858 12.90345982142857  10.714006696428571 13.094308035714286  C 10.354073660714286 13.28515625  10.126116071428571 13.564360119047615  10.030133928571429 13.931919642857144  C 9.934151785714286 14.299479166666664  9.994140625 14.642299107142856  10.210100446428571 14.960379464285714  C 10.426060267857142 15.27845982142857  10.742001488095239 15.479910714285714  11.157924107142858 15.564732142857144  C 14.261346726190478 16.21502976190476  16.684895833333336 16.625  18.428571428571427 16.794642857142858  C 18.396577380952383 19.028273809523807  18.272600446428573 20.9296875  18.056640625 22.498883928571427  C 17.840680803571427 24.068080357142858  17.62872023809524 25.16722470238095  17.420758928571427 25.79631696428571  C 17.21279761904762 26.425409226190474  16.884858630952383 27.241815476190474  16.436941964285715 28.24553571428571  L 16.220982142857142 28.69084821428571  C 16.061011904761905 29.044270833333336  16.069010416666668 29.390625  16.244977678571427 29.72991071428571  C 16.420944940476193 30.069196428571427  16.70889136904762 30.309523809523807  17.108816964285715 30.450892857142858  C 17.252790178571427 30.507440476190474  17.436755952380956 30.53571428571429  17.660714285714285 30.53571428571429  C 18.364583333333336 30.53571428571429  18.84449404761905 30.245907738095237  19.100446428571427 29.666294642857142  L 19.292410714285715 29.2421875  C 20.156250000000004 27.277157738095237  20.7241443452381 25.446428571428573  20.99609375 23.75  L 22.00390625 23.75  C 22.275855654761905 25.446428571428573  22.84375 27.277157738095237  23.707589285714285 29.2421875  L 23.89955357142857 29.666294642857142  C 24.155505952380956 30.245907738095237  24.63541666666667 30.53571428571429  25.339285714285715 30.53571428571429  C 25.56324404761905 30.53571428571429  25.74720982142857 30.507440476190474  25.891183035714285 30.450892857142858  C 26.291108630952383 30.309523809523807  26.57905505952381 30.069196428571427  26.75502232142857 29.72991071428571  C 26.930989583333336 29.390625  26.938988095238095 29.044270833333336  26.779017857142854 28.69084821428571  L 26.563058035714285 28.24553571428571  C 26.115141369047624 27.241815476190474  25.787202380952383 26.425409226190474  25.57924107142857 25.79631696428571  C 25.371279761904766 25.16722470238095  25.15931919642857 24.068080357142858  24.943359375 22.498883928571427  C 24.72739955357143 20.9296875  24.603422619047624 19.028273809523807  24.57142857142857 16.794642857142858  C 26.31510416666667 16.625  28.738653273809526 16.21502976190476  31.842075892857146 15.564732142857144  C 32.257998511904766 15.479910714285714  32.573939732142854 15.27845982142857  32.78989955357143 14.960379464285714  Z M 23.671595982142854 12.77622767857143  C 24.271484375 12.24609375  24.57142857142857 11.606398809523807  24.57142857142857 10.857142857142856  C 24.57142857142857 10.107886904761902  24.271484375 9.468191964285714  23.671595982142854 8.938058035714286  C 23.071707589285715 8.407924107142856  22.347842261904766 8.142857142857144  21.5 8.142857142857144  C 20.65215773809524 8.142857142857144  19.92829241071429 8.407924107142856  19.328404017857142 8.938058035714286  C 18.728515625 9.468191964285714  18.428571428571427 10.107886904761902  18.428571428571427 10.857142857142856  C 18.428571428571427 11.606398809523807  18.728515625 12.24609375  19.328404017857142 12.77622767857143  C 19.92829241071429 13.306361607142856  20.65215773809524 13.57142857142857  21.5 13.57142857142857  C 22.347842261904766 13.57142857142857  23.071707589285715 13.306361607142856  23.671595982142854 12.77622767857143  Z M 37.061104910714285 13.20033482142857  C 37.948939732142854 15.045200892857144  38.392857142857146 16.978422619047613  38.392857142857146 19  C 38.392857142857146 21.021577380952376  37.948939732142854 22.954799107142858  37.061104910714285 24.799665178571427  C 36.173270089285715 26.64453125  34.97349330357143 28.23493303571429  33.46177455357143 29.57087053571429  C 31.95005580357143 30.90680803571429  30.150390625 31.967075892857142  28.062779017857146 32.751674107142854  C 25.975167410714285 33.53627232142857  23.787574404761905 33.92857142857143  21.5 33.92857142857143  C 19.2124255952381 33.92857142857143  17.024832589285715 33.53627232142857  14.937220982142858 32.751674107142854  C 12.849609375 31.967075892857142  11.049944196428573 30.90680803571429  9.538225446428571 29.57087053571429  C 8.026506696428571 28.23493303571429  6.8267299107142865 26.64453125  5.9388950892857135 24.799665178571427  C 5.051060267857143 22.954799107142858  4.607142857142857 21.021577380952376  4.607142857142857 19  C 4.607142857142857 16.978422619047613  5.051060267857143 15.045200892857144  5.9388950892857135 13.20033482142857  C 6.8267299107142865 11.35546875  8.026506696428571 9.765066964285714  9.538225446428571 8.429129464285714  C 11.049944196428573 7.0931919642857135  12.849609375 6.032924107142857  14.937220982142858 5.248325892857143  C 17.024832589285715 4.463727678571431  19.2124255952381 4.071428571428569  21.5 4.071428571428569  C 23.787574404761905 4.071428571428569  25.975167410714285 4.463727678571431  28.062779017857146 5.248325892857143  C 30.150390625 6.032924107142857  31.95005580357143 7.0931919642857135  33.46177455357143 8.429129464285714  C 34.97349330357143 9.765066964285714  36.173270089285715 11.35546875  37.061104910714285 13.20033482142857  Z M 28.650669642857146 4.0078125  C 26.379092261904766 3.1454613095238075  23.995535714285715 2.714285714285713  21.5 2.714285714285713  C 19.004464285714285 2.714285714285713  16.62090773809524 3.1454613095238075  14.349330357142858 4.0078125  C 12.077752976190478 4.870163690476188  10.118117559523812 6.029389880952381  8.470424107142858 7.485491071428569  C 6.822730654761906 8.941592261904757  5.5109747023809526 10.673363095238095  4.53515625 12.68080357142857  C 3.559337797619048 14.688244047619046  3.071428571428571 16.794642857142858  3.071428571428571 19  C 3.071428571428571 21.205357142857142  3.559337797619048 23.31175595238095  4.53515625 25.319196428571427  C 5.5109747023809526 27.326636904761905  6.822730654761906 29.058407738095237  8.470424107142858 30.514508928571427  C 10.118117559523812 31.970610119047624  12.077752976190478 33.12983630952381  14.349330357142858 33.9921875  C 16.62090773809524 34.85453869047619  19.004464285714285 35.285714285714285  21.5 35.285714285714285  C 23.995535714285715 35.285714285714285  26.379092261904766 34.85453869047619  28.650669642857146 33.9921875  C 30.922247023809526 33.12983630952381  32.8818824404762 31.970610119047624  34.529575892857146 30.514508928571427  C 36.1772693452381 29.058407738095237  37.48902529761905 27.326636904761905  38.46484375 25.319196428571427  C 39.440662202380956 23.31175595238095  39.92857142857143 21.205357142857142  39.92857142857143 19  C 39.92857142857143 16.794642857142858  39.440662202380956 14.688244047619046  38.46484375 12.68080357142857  C 37.48902529761905 10.673363095238095  36.1772693452381 8.941592261904757  34.529575892857146 7.485491071428569  C 32.8818824404762 6.029389880952381  30.922247023809526 4.870163690476188  28.650669642857146 4.0078125  Z M 41.296316964285715 11.620535714285714  C 42.43210565476191 13.967261904761902  43 16.427083333333332  43 19  C 43 21.572916666666664  42.43210565476191 24.032738095238095  41.296316964285715 26.37946428571429  C 40.16052827380953 28.726190476190474  38.63281250000001 30.747767857142858  36.713169642857146 32.44419642857142  C 34.793526785714285 34.140625  32.50595238095239 35.490699404761905  29.85044642857143 36.494419642857146  C 27.19494047619048 37.49813988095238  24.411458333333336 38  21.5 38  C 18.588541666666668 38  15.805059523809526 37.49813988095238  13.149553571428573 36.494419642857146  C 10.49404761904762 35.490699404761905  8.206473214285714 34.140625  6.286830357142858 32.44419642857142  C 4.3671875 30.747767857142858  2.8394717261904763 28.726190476190474  1.7036830357142856 26.37946428571429  C 0.5678943452380951 24.032738095238095  0 21.572916666666664  0 19  C 0 16.427083333333332  0.5678943452380951 13.967261904761902  1.7036830357142856 11.620535714285714  C 2.8394717261904763 9.27380952380952  4.3671875 7.252232142857143  6.286830357142858 5.555803571428569  C 8.206473214285714 3.859375  10.49404761904762 2.509300595238094  13.149553571428573 1.5055803571428565  C 15.805059523809526 0.5018601190476188  18.588541666666668 0  21.5 0  C 24.411458333333336 0  27.19494047619048 0.5018601190476188  29.85044642857143 1.5055803571428565  C 32.50595238095239 2.509300595238094  34.793526785714285 3.859375  36.713169642857146 5.555803571428569  C 38.63281250000001 7.252232142857143  40.16052827380953 9.27380952380952  41.296316964285715 11.620535714285714  Z " fill-rule="nonzero" fill="#000000" stroke="none" transform="matrix(1 0 0 1 900 655 )" />
  </g>
</svg>