<?xml version="1.0" encoding="utf-8"?>
<svg version="1.1" xmlns:xlink="http://www.w3.org/1999/xlink" width="38px" height="32px" xmlns="http://www.w3.org/2000/svg">
  <g transform="matrix(1 0 0 1 -900 -570 )">
    <path d="M 0 6.857142857142858  L 19 0  L 38 6.857142857142858  L 38 9.142857142857142  L 35.46666666666667 9.142857142857142  C 35.46666666666667 9.452380952380953  35.33142361111111 9.720238095238095  35.0609375 9.946428571428573  C 34.79045138888889 10.172619047619044  34.470486111111114 10.285714285714285  34.10104166666667 10.285714285714285  L 3.8989583333333333 10.285714285714285  C 3.529513888888889 10.285714285714285  3.2095486111111113 10.172619047619044  2.9390625 9.946428571428573  C 2.668576388888889 9.720238095238095  2.533333333333333 9.452380952380953  2.533333333333333 9.142857142857142  L 0 9.142857142857142  L 0 6.857142857142858  Z M 5 25.142857142857142  L 5 11.428571428571427  L 10.133333333333333 11.428571428571427  L 10.133333333333333 25.142857142857142  L 13 25.142857142857142  L 13 11.428571428571427  L 18 11.428571428571427  L 18 25.142857142857142  L 20 25.142857142857142  L 20 11.428571428571427  L 25 11.428571428571427  L 25 25.142857142857142  L 27.866666666666664 25.142857142857142  L 27.866666666666664 11.428571428571427  L 33 11.428571428571427  L 33 25.142857142857142  L 34.10104166666667 25.142857142857142  C 34.470486111111114 25.142857142857142  34.79045138888889 25.25595238095238  35.0609375 25.482142857142858  C 35.33142361111111 25.708333333333336  35.46666666666667 25.976190476190478  35.46666666666667 26.285714285714285  L 35.46666666666667 27  L 2.533333333333333 27  L 2.533333333333333 26.285714285714285  C 2.533333333333333 25.976190476190478  2.668576388888889 25.708333333333336  2.9390625 25.482142857142858  C 3.2095486111111113 25.25595238095238  3.529513888888889 25.142857142857142  3.8989583333333333 25.142857142857142  L 5 25.142857142857142  Z M 1.3656249999999999 28  L 36.634375 28  C 37.003819444444446 28.571428571428573  37.32378472222222 28.684523809523807  37.59427083333333 28.910714285714285  C 37.86475694444445 29.136904761904763  38.00000000000001 29.404761904761905  38 29.714285714285715  L 38 32  L 0 32  L 0 29.714285714285715  C 0 29.404761904761905  0.13524305555555555 29.136904761904763  0.4057291666666667 28.910714285714285  C 0.6762152777777779 28.684523809523807  0.9961805555555556 28.571428571428573  1.3656249999999999 28  Z " fill-rule="nonzero" fill="#000000" stroke="none" transform="matrix(1 0 0 1 900 570 )" />
  </g>
</svg>