<?xml version="1.0" encoding="utf-8"?>
<svg version="1.1" xmlns:xlink="http://www.w3.org/1999/xlink" width="7px" height="12px" xmlns="http://www.w3.org/2000/svg">
  <g transform="matrix(1 0 0 1 -20 -21 )">
    <path d="M 6.74365234375 10.590401785714278  L 1.929443359375 6  L 6.74365234375 1.4095982142857224  C 6.9871826171875 1.1773158482142776  6.9923095703125 0.7956194196428612  6.75518798828125 0.5570591517857224  C 6.51806640625 0.3184988839285836  6.12841796875 0.3134765625  5.8848876953125 0.5457589285714164  L 0.61822509765625 5.568080357142861  C 0.4990234375 5.681082589285722  0.432373046875 5.836774553571416  0.432373046875 6  C 0.432373046875 6.163225446428584  0.4990234375 6.318917410714278  0.61822509765625 6.431919642857139  L 5.8848876953125 11.454241071428584  C 6.00408935546875 11.568498883928584  6.1591796875 11.625  6.31427001953125 11.625  C 6.4744873046875 11.625  6.63470458984375 11.5634765625  6.75518798828125 11.442940848214278  C 6.9923095703125 11.204380580357139  6.9871826171875 10.822684151785722  6.74365234375 10.590401785714278  Z " fill-rule="nonzero" fill="#397bd9" stroke="none" transform="matrix(1 0 0 1 20 21 )" />
  </g>
</svg>