<?xml version="1.0" encoding="utf-8"?>
<svg version="1.1" xmlns:xlink="http://www.w3.org/1999/xlink" width="7px" height="12px" xmlns="http://www.w3.org/2000/svg">
  <g transform="matrix(1 0 0 1 -24 -21 )">
    <path d="M 6.71673583984375 10.590401785714278  L 1.90252685546875 6  L 6.71673583984375 1.4095982142857224  C 6.96026611328125 1.1773158482142776  6.96539306640625 0.7956194196428612  6.728271484375 0.5570591517857224  C 6.49114990234375 0.3184988839285836  6.10150146484375 0.3134765625  5.85797119140625 0.5457589285714164  L 0.59130859375 5.568080357142861  C 0.47210693359375 5.681082589285722  0.40545654296875 5.836774553571416  0.40545654296875 6  C 0.40545654296875 6.163225446428584  0.47210693359375 6.318917410714278  0.59130859375 6.431919642857139  L 5.85797119140625 11.454241071428584  C 5.9771728515625 11.568498883928584  6.13226318359375 11.625  6.287353515625 11.625  C 6.44757080078125 11.625  6.6077880859375 11.5634765625  6.728271484375 11.442940848214278  C 6.96539306640625 11.204380580357139  6.96026611328125 10.822684151785722  6.71673583984375 10.590401785714278  Z " fill-rule="nonzero" fill="#397bd9" stroke="none" transform="matrix(1 0 0 1 24 21 )" />
  </g>
</svg>