<?xml version="1.0" encoding="utf-8"?>
<svg version="1.1" xmlns:xlink="http://www.w3.org/1999/xlink" width="7px" height="12px" xmlns="http://www.w3.org/2000/svg">
  <g transform="matrix(1 0 0 1 -529 -21 )">
    <path d="M 1.2689732142856656 11.454241071428584  C 1.1522042410714448 11.568498883928584  1.0002790178571104 11.625  0.8483537946428896 11.625  C 0.69140625 11.625  0.5344587053571104 11.5634765625  0.41643415178566556 11.442940848214278  C 0.18415178571433444 11.204380580357139  0.18917410714288962 10.822684151785722  0.427734375 10.590401785714278  L 5.143694196428555 6  L 0.4289899553571104 1.4095982142857224  C 0.1904296875 1.1773158482142776  0.1854073660714448 0.7956194196428612  0.4176897321428896 0.5570591517857224  C 0.6499720982143344 0.3184988839285836  1.0316685267856656 0.3134765625  1.2702287946428896 0.5457589285714164  L 6.42940848214289 5.568080357142861  C 6.546177455357224 5.681082589285722  6.611467633928555 5.836774553571416  6.611467633928555 6  C 6.611467633928555 6.163225446428584  6.546177455357224 6.318917410714278  6.42940848214289 6.431919642857139  L 1.2689732142856656 11.454241071428584  Z " fill-rule="nonzero" fill="#999999" stroke="none" transform="matrix(1 0 0 1 529 21 )" />
  </g>
</svg>