<?xml version="1.0" encoding="utf-8"?>
<svg version="1.1" xmlns:xlink="http://www.w3.org/1999/xlink" width="10px" height="15px" xmlns="http://www.w3.org/2000/svg">
  <g transform="matrix(1 0 0 1 -3700 -2542 )">
    <path d="M 9.6875 2.4795297475961604  C 9.6875 1.3606144831730802  9.12458147321427 0.451284555288467  8.431919642857153 0.451284555288467  L 7.8878348214285765 0.451284555288467  C 7.6565987723214235 0.451284555288467  7.4693080357142705 0.7538311298076934  7.4693080357142705 1.1273662860576934  C 7.4693080357142705 1.5009014423076934  7.6565987723214235 1.8034480168269198  7.8878348214285765 1.8034480168269198  L 8.431919642857153 1.8034480168269198  C 8.66315569196427 1.8034480168269198  8.850446428571423 2.1059945913461604  8.850446428571423 2.4795297475961604  L 8.850446428571423 4.08353365384616  L 1.1495535714285765 4.08353365384616  L 1.1495535714285765 2.4795297475961604  C 1.1495535714285765 2.1059945913461604  1.3368443080357295 1.8034480168269198  1.568080357142847 1.8034480168269198  L 2.1121651785714235 1.8034480168269198  C 2.3434012276785765 1.8034480168269198  2.5306919642857295 1.5009014423076934  2.5306919642857295 1.1273662860576934  C 2.5306919642857295 0.7538311298076934  2.3434012276785765 0.451284555288467  2.1121651785714235 0.451284555288467  L 1.568080357142847 0.451284555288467  C 0.8754185267857295 0.451284555288467  0.3125 1.3606144831730802  0.3125 2.4795297475961604  L 0.3125 12.466947115384613  C 0.3125 13.585862379807693  0.8754185267857295 14.495192307692307  1.568080357142847 14.495192307692307  L 8.431919642857153 14.495192307692307  C 9.12458147321427 14.495192307692307  9.6875 13.585862379807693  9.6875 12.466947115384613  L 9.6875 2.4795297475961604  Z M 8.850446428571423 12.466947115384613  C 8.850446428571423 12.840482271634613  8.66315569196427 13.14302884615384  8.431919642857153 13.14302884615384  L 1.568080357142847 13.14302884615384  C 1.3368443080357295 13.14302884615384  1.1495535714285765 12.840482271634613  1.1495535714285765 12.466947115384613  L 1.1495535714285765 5.435697115384613  L 8.850446428571423 5.435697115384613  L 8.850446428571423 12.466947115384613  Z " fill-rule="nonzero" fill="#999999" stroke="none" transform="matrix(1 0 0 1 3700 2542 )" />
  </g>
</svg>