<?xml version="1.0" encoding="utf-8"?>
<svg version="1.1" xmlns:xlink="http://www.w3.org/1999/xlink" width="15px" height="15px" xmlns="http://www.w3.org/2000/svg">
  <g transform="matrix(1 0 0 1 -710 -3209 )">
    <path d="M 717.5 3209  C 721.7 3209  725 3212.3  725 3216.5  C 725 3220.7  721.7 3224  717.5 3224  C 713.3 3224  710 3220.7  710 3216.5  C 710 3212.3  713.3 3209  717.5 3209  Z " fill-rule="nonzero" fill="#ffffff" stroke="none" />
    <path d="M 717.5 3209.5  C 721.42 3209.5  724.5 3212.58  724.5 3216.5  C 724.5 3220.42  721.42 3223.5  717.5 3223.5  C 713.58 3223.5  710.5 3220.42  710.5 3216.5  C 710.5 3212.58  713.58 3209.5  717.5 3209.5  Z " stroke-width="1" stroke="#797979" fill="none" />
  </g>
</svg>