<?xml version="1.0" encoding="utf-8"?>
<svg version="1.1" xmlns:xlink="http://www.w3.org/1999/xlink" width="179px" height="189px" xmlns="http://www.w3.org/2000/svg">
  <g transform="matrix(1 0 0 1 -4739 -314 )">
    <path d="M 33 137  L 49 137  L 49 154  L 33 154  L 33 137  Z M 33 35  L 49 35  L 49 52  L 33 52  L 33 35  Z M 130 35  L 146 35  L 146 52  L 130 52  L 130 35  Z M 17 120  L 17 171  L 65 171  L 65 120  L 17 120  Z M 17 18  L 17 69  L 65 69  L 65 18  L 17 18  Z M 114 18  L 114 69  L 162 69  L 162 18  L 114 18  Z M 0 103  L 82 103  L 82 189  L 0 189  L 0 103  Z M 130 171  L 146 171  L 146 189  L 130 189  L 130 171  Z M 162 171  L 179 171  L 179 189  L 162 189  L 162 171  Z M 162 103  L 179 103  L 179 154  L 130 154  L 130 137  L 114 137  L 114 189  L 97 189  L 97 103  L 146 103  L 146 120  L 162 120  L 162 103  Z M 0 0  L 82 0  L 82 86  L 0 86  L 0 0  Z M 97 0  L 179 0  L 179 86  L 97 86  L 97 0  Z " fill-rule="nonzero" fill="#000000" stroke="none" transform="matrix(1 0 0 1 4739 314 )" />
  </g>
</svg>