<?xml version="1.0" encoding="utf-8"?>
<svg version="1.1" xmlns:xlink="http://www.w3.org/1999/xlink" width="18px" height="18px" xmlns="http://www.w3.org/2000/svg">
  <g transform="matrix(1 0 0 1 -3168 -227 )">
    <path d="M 17.561665357423404 15.430591932949199  L 11.132757266300088 9  L 17.561665357423404 2.5694080670508015  C 18.14611154752555 1.9848088004191027  18.14611154752555 1.0230487166055753  17.561665357423404 0.43844944997382523  C 16.977219167321305 -0.1461498166579247  16.015710919088722 -0.1461498166579247  15.431264728986628 0.43844944997382523  L 9.002356637863313 6.869041382923023  L 2.5734485467399963 0.43844944997382523  C 1.9890023566379 -0.1461498166579247  1.0274941084053182 -0.1461498166579247  0.4430479183032219 0.43844944997382523  C 0.1508248232521737 0.7307490832896747  0 1.117338920900994  0 1.5039287585123133  C 0 1.8905185961236326  0.1508248232521737 2.277108433734952  0.4430479183032219 2.5694080670508015  L 6.871956009426538 9  L 0.4430479183032219 15.430591932949199  C 0.1508248232521737 15.722891566265048  0 16.10948140387637  0 16.496071241487687  C 0 16.882661079099005  0.1508248232521737 17.269250916710323  0.4430479183032219 17.561550550026173  C 1.0274941084053182 18.146149816657925  1.9890023566379 18.146149816657925  2.5734485467399963 17.561550550026173  L 9.002356637863313 11.130958617076976  L 15.431264728986628 17.561550550026173  C 16.015710919088722 18.146149816657925  16.977219167321305 18.146149816657925  17.561665357423404 17.561550550026173  C 18.14611154752555 16.976951283394424  18.14611154752555 16.015191199580897  17.561665357423404 15.430591932949199  Z " fill-rule="nonzero" fill="#c4c9d1" stroke="none" transform="matrix(1 0 0 1 3168 227 )" />
  </g>
</svg>