<?xml version="1.0" encoding="utf-8"?>
<svg version="1.1" xmlns:xlink="http://www.w3.org/1999/xlink" width="74px" height="24px" xmlns="http://www.w3.org/2000/svg">
  <defs>
    <mask fill="white" id="clip49">
      <path d="M 0 20  L 0 4  C 0 1.759999999999991  1.3426804123711271 0  3.051546391752577 0  L 70.94845360824742 0  C 72.65731958762886 0  74 1.759999999999991  74 4  L 74 20  C 74 22.24000000000001  72.65731958762886 24  70.94845360824742 24  L 54.83808368708316 24  L 3.051546391752577 24  C 1.3426804123711271 24  0 22.24000000000001  0 20  Z " fill-rule="evenodd" />
    </mask>
  </defs>
  <g transform="matrix(1 0 0 1 -3044 -664 )">
    <path d="M 0 20  L 0 4  C 0 1.759999999999991  1.3426804123711271 0  3.051546391752577 0  L 70.94845360824742 0  C 72.65731958762886 0  74 1.759999999999991  74 4  L 74 20  C 74 22.24000000000001  72.65731958762886 24  70.94845360824742 24  L 54.83808368708316 24  L 3.051546391752577 24  C 1.3426804123711271 24  0 22.24000000000001  0 20  Z " fill-rule="nonzero" fill="#ffffff" stroke="none" transform="matrix(1 0 0 1 3044 664 )" />
    <path d="M 0 20  L 0 4  C 0 1.759999999999991  1.3426804123711271 0  3.051546391752577 0  L 70.94845360824742 0  C 72.65731958762886 0  74 1.759999999999991  74 4  L 74 20  C 74 22.24000000000001  72.65731958762886 24  70.94845360824742 24  L 54.83808368708316 24  L 3.051546391752577 24  C 1.3426804123711271 24  0 22.24000000000001  0 20  Z " stroke-width="4" stroke="#d7d7d7" fill="none" transform="matrix(1 0 0 1 3044 664 )" mask="url(#clip49)" />
  </g>
</svg>