<?xml version="1.0" encoding="utf-8"?>
<svg version="1.1" xmlns:xlink="http://www.w3.org/1999/xlink" width="8px" height="6px" xmlns="http://www.w3.org/2000/svg">
  <g transform="matrix(1 0 0 1 -2921 -287 )">
    <path d="M 0.9741719389654009 0.22338887747980993  L 4.001488649050998 4.191275232715697  L 7.0264235206549985 0.22026455751506863  C 7.250316337923323 -0.07342151917168954  7.6123557871232155 -0.07342151917168954  7.833866765909943 0.22026455751506863  C 8.05537774469667 0.5139506342018269  8.05537774469667 0.9888472688442305  7.833866765909943 1.2825333455309886  L 4.406401190919223 5.781554094774794  C 4.189653889095643 6.065867211567291  3.8419054707852864 6.072115851496775  3.6180126535169164 5.803424334528035  L 0.16672869371045634 1.28565766549573  C 0.05478228507631684 1.1388146271523731  0 0.9451067893376879  0 0.7545232714877737  C 0 0.5639397536378594  0.05478228507631684 0.37023191582321135  0.16672869371045634 0.22338887747980993  C 0.39062151097878084 -0.07029719920691092  0.7526609601786731 -0.07029719920691092  0.9741719389654009 0.22338887747980993  Z " fill-rule="nonzero" fill="#515a6e" stroke="none" transform="matrix(1 0 0 1 2921 287 )" />
  </g>
</svg>