<?xml version="1.0" encoding="utf-8"?>
<svg version="1.1" xmlns:xlink="http://www.w3.org/1999/xlink" width="14px" height="24px" xmlns="http://www.w3.org/2000/svg">
  <g transform="matrix(1 0 0 1 -631 -304 )">
    <path d="M 13.662579913461535 19.531218973076918  C 13.662579913461535 21.934740853846144  11.701983501923074 23.895337348076907  9.298461538461535 23.895337265384597  L 4.478390513461537 23.895337265384597  C 2.0748686326923043 23.895337265384597  0.11427213846153705 21.93474085384615  0.11427222115384694 19.531218973076918  L 0.11427222115384694 5.071005898076912  C 0.11427222115384694 2.667484017307686  2.0683550423076937 0.7068875230769152  4.478390513461537 0.7068876057692179  L 9.298461538461535 0.7068876057692179  C 11.701983419230771 0.7068876057692179  13.662579913461535 2.667484017307679  13.662579913461535 5.071005898076912  L 13.662579913461535 19.531218973076918  Z M 9.298461538461535 4.615053248076919  L 4.478390513461537 4.615053248076919  C 4.224359744230767 4.615053248076919  4.022437863461537 4.816975128846153  4 5.071005898076912  L 4 19.531218973076918  C 4.022437863461537 19.785249742307684  4.224359744230767 19.98717162307691  4.478390513461537 19.98717162307691  L 9.298461538461535 19.98717162307691  C 9.552492307692305 19.98717162307691  9.754414188461535 19.785249742307677  9.754414188461535 19.531218973076918  L 9.754414188461535 5.071005898076912  C 9.754414188461535 4.8169751288461455  9.552492307692305 4.615053248076919  9.298461538461535 4.615053248076919  Z " fill-rule="nonzero" fill="#ffffff" stroke="none" transform="matrix(1 0 0 1 631 304 )" />
  </g>
</svg>