<?xml version="1.0" encoding="utf-8"?>
<svg version="1.1" xmlns:xlink="http://www.w3.org/1999/xlink" width="34px" height="50px" xmlns="http://www.w3.org/2000/svg">
  <g transform="matrix(1 0 0 1 -640 -278 )">
    <path d="M 33 45.53121897307692  C 33.58300589807693 47.934740853846144  31.622409486538473 49.89533734807691  29.218887605769233 49  L 5.118532563461542 49  C 2.7150106826923093 49.8953372653846  0.7544141884615421 47.93474085384615  1 45.53121897307692  L 1 4.560615384615378  C 0.7544141884615421 2.1570935038461485  2.7150105999999994 0.19649700961537775  5.118532563461542 1  L 29.218887605769233 1  C 31.62240948653846 0.19649700961537775  33.58300598076924 2.157093421153842  33 4.560615384615378  L 33 45.53121897307692  Z M 29.218887605769233 5  L 5.118532563461542 5  C 4.864501794230776 4.104662734615378  4.662579913461542 4.306584615384612  5 4.560615384615378  L 5 45.53121897307692  C 4.662579913461542 45.785249742307684  4.864501794230776 45.98717162307691  5.118532563461542 46  L 29.218887605769233 46  C 29.472918375 45.98717162307691  29.674840255769226 45.78524974230768  29 45.53121897307692  L 29 4.560615384615378  C 29.674840255769226 4.306584615384612  29.472918374999992 4.104662734615378  29.218887605769233 5  Z " fill-rule="nonzero" fill="#ffffff" stroke="none" transform="matrix(1 0 0 1 640 278 )" />
  </g>
</svg>