<?xml version="1.0" encoding="utf-8"?>
<svg version="1.1" xmlns:xlink="http://www.w3.org/1999/xlink" width="34px" height="29px" xmlns="http://www.w3.org/2000/svg">
  <g transform="matrix(1 0 0 1 -1826 -851 )">
    <path d="M 33.65931863727455 2.9896907216494837  C 33.886439545758186 3.3218785796105297  34 3.703894616265747  34 4.135738831615122  C 34 4.5675830469644865  33.886439545758186 4.949599083619697  33.65931863727455 5.281786941580757  L 17.783567134268537 28.501718213058417  C 17.556446225784903 28.833906071019463  17.295257181028724 29  17 29  C 16.70474281897128 29  16.4435537742151 28.833906071019463  16.216432865731463 28.501718213058417  L 0.3406813627254509 5.281786941580757  C 0.1135604542418173 4.949599083619697  0 4.5675830469644865  0 4.135738831615122  C 0 3.703894616265747  0.1135604542418173 3.3218785796105297  0.3406813627254509 2.9896907216494837  L 2.0440881763527052 0.4982817869415822  C 2.27120908483634 0.1660939289805231  2.5323981295925186 0  2.8276553106212425 0  C 3.1229124916499673 0  3.384101536406146 0.1660939289805231  3.6112224448897794 0.4982817869415822  L 17 20.080756013745702  L 30.38877755511022 0.4982817869415822  C 30.615898463593854 0.1660939289805231  30.877087508350034 0  31.172344689378757 0  C 31.467601870407485 0  31.728790915163664 0.1660939289805231  31.955911823647295 0.4982817869415822  L 33.65931863727455 2.9896907216494837  Z " fill-rule="nonzero" fill="#000000" stroke="none" transform="matrix(1 0 0 1 1826 851 )" />
  </g>
</svg>