<?xml version="1.0" encoding="utf-8"?>
<svg version="1.1" xmlns:xlink="http://www.w3.org/1999/xlink" width="78px" height="17px" xmlns="http://www.w3.org/2000/svg">
  <g transform="matrix(1 0 0 1 -947 -414 )">
    <path d="M 1.0345857851562599 9.661385242187492  C -0.4256224550781127 5.385061113281253  0.5130828417968871 1.3173381621093796  2.9119963789062524 0.4829334531249998  C 5.415210503906252 -0.35147125585938  8.544228158203126 2.4646446347656195  9.90013580859376 6.740968763671873  C 11.25604345898438 11.017292892578112  10.421638751953125 15.085015843749986  8.02272521484376 15.919420552734366  C 5.5195110898437605 16.753825261718745  2.390493435546894 13.937709371093746  1.0345857851562599 9.661385242187492  Z M 76.65251244726562 9.661385242187492  C 78.1127206875 5.385061113281253  77.17401539062499 1.3173381621093796  74.77510185546876 0.4829334531249998  C 72.27188773046873 -0.35147125585938  69.14287007617187 2.4646446347656195  67.78696242773438 6.740968763671873  C 66.43105477734376 11.017292892578112  67.26545948437499 15.085015843749986  69.66437301953124 15.919420552734366  C 72.16758714453124 16.753825261718745  75.29660479882813 13.937709371093746  76.65251244726562 9.661385242187492  Z " fill-rule="nonzero" fill="#d7d7d7" stroke="none" transform="matrix(1 0 0 1 947 414 )" />
  </g>
</svg>