<?xml version="1.0" encoding="utf-8"?>
<svg version="1.1" xmlns:xlink="http://www.w3.org/1999/xlink" width="32px" height="21px" xmlns="http://www.w3.org/2000/svg">
  <g transform="matrix(1 0 0 1 -1338 -263 )">
    <path d="M 31.67935871743487 2.164948453608247  C 31.89311957247829 2.4054982817869353  32 2.6821305841924374  32 2.994845360824743  C 32 3.3075601374570422  31.89311957247829 3.5841924398625395  31.67935871743487 3.8247422680412377  L 16.7374749498998 20.639175257731956  C 16.52371409485638 20.879725085910646  16.277889111556448 21  16 21  C 15.722110888443556 21  15.476285905143623 20.879725085910646  15.2625250501002 20.639175257731956  L 0.32064128256513025 3.8247422680412377  C 0.1068804275217104 3.5841924398625395  0 3.3075601374570422  0 2.994845360824743  C 0 2.6821305841924374  0.1068804275217104 2.4054982817869353  0.32064128256513025 2.164948453608247  L 1.9238476953907815 0.3608247422680423  C 2.1376085504342024 0.12027491408934432  2.3834335337341352 0  2.661322645290581 0  C 2.939211756847028 0  3.185036740146961 0.12027491408934432  3.3987975951903806 0.3608247422680423  L 16 14.541237113402062  L 28.60120240480962 0.3608247422680423  C 28.81496325985304 0.12027491408934432  29.060788243152974 0  29.338677354709418 0  C 29.61656646626587 0  29.862391449565802 0.12027491408934432  30.07615230460922 0.3608247422680423  L 31.67935871743487 2.164948453608247  Z " fill-rule="nonzero" fill="#000000" stroke="none" transform="matrix(1 0 0 1 1338 263 )" />
  </g>
</svg>