<?xml version="1.0" encoding="utf-8"?>
<svg version="1.1" xmlns:xlink="http://www.w3.org/1999/xlink" width="16px" height="16px" xmlns="http://www.w3.org/2000/svg">
  <g transform="matrix(1 0 0 1 -426 -314 )">
    <path d="M 15.5 8  C 15.5 7.630022321428569  15.200334821428584 7.330357142857139  14.830357142857139 7.330357142857139  L 8.669642857142861 7.330357142857139  L 8.669642857142861 1.1696428571428612  C 8.669642857142861 0.7996651785714306  8.369977678571416 0.5  8 0.5  C 7.630022321428584 0.5  7.330357142857139 0.7996651785714306  7.330357142857139 1.1696428571428612  L 7.330357142857139 7.330357142857139  L 1.1696428571428612 7.330357142857139  C 0.7996651785714164 7.330357142857139  0.5 7.630022321428569  0.5 8  C 0.5 8.36997767857143  0.7996651785714164 8.669642857142861  1.1696428571428612 8.669642857142861  L 7.330357142857139 8.669642857142861  L 7.330357142857139 14.830357142857139  C 7.330357142857139 15.20033482142857  7.630022321428584 15.5  8 15.5  C 8.369977678571416 15.5  8.669642857142861 15.20033482142857  8.669642857142861 14.830357142857139  L 8.669642857142861 8.669642857142861  L 14.830357142857139 8.669642857142861  C 15.200334821428584 8.669642857142861  15.5 8.36997767857143  15.5 8  Z " fill-rule="nonzero" fill="#cccccc" stroke="none" transform="matrix(1 0 0 1 426 314 )" />
  </g>
</svg>