<?xml version="1.0" encoding="utf-8"?>
<svg version="1.1" xmlns:xlink="http://www.w3.org/1999/xlink" width="10px" height="13px" xmlns="http://www.w3.org/2000/svg">
  <g transform="matrix(1 0 0 1 -1209 -243 )">
    <path d="M 2.607421875 8.674762228260875  C 2.607421875 8.308806046195656  2.3160807291666856 8.012398097826093  1.9563802083333144 8.012398097826093  L 0.9798177083333144 8.012398097826093  C 0.6201171875 8.012398097826093  0.3287760416666856 8.308806046195656  0.3287760416666856 8.674762228260875  C 0.3287760416666856 9.040718410326093  0.6201171875 9.337126358695656  0.9798177083333144 9.337126358695656  L 1.9563802083333144 9.337126358695656  C 2.3160807291666856 9.337126358695656  2.607421875 9.040718410326093  2.607421875 8.674762228260875  Z M 1.6634114583333144 3.311268682065219  C 1.6634114583333144 3.6755689538043437  1.9547526041666856 3.9736328125  2.314453125 3.9736328125  C 2.6741536458333144 3.9736328125  2.9654947916666856 3.6772248641304373  2.9654947916666856 3.311268682065219  L 2.9654947916666856 1.1569293478260931  C 2.9654947916666856 0.7909731657608745  2.6741536458333144 0.49456521739129755  2.314453125 0.49456521739129755  C 1.9547526041666856 0.49456521739129755  1.6634114583333144 0.7909731657608745  1.6634114583333144 1.1569293478260931  L 1.6634114583333144 3.311268682065219  Z M 3.53515625 2.2332710597826093  C 3.53515625 2.599227241847828  3.8264973958333144 2.8956351902173907  4.186197916666686 2.8956351902173907  L 5.813802083333314 2.8956351902173907  C 6.173502604166686 2.8956351902173907  6.46484375 2.599227241847828  6.46484375 2.2332710597826093  C 6.46484375 1.8673148777173905  6.173502604166686 1.570906929347828  5.813802083333314 1.570906929347828  L 4.186197916666686 1.570906929347828  C 3.8264973958333144 1.570906929347828  3.53515625 1.8673148777173905  3.53515625 2.2332710597826093  Z M 7.034505208333314 3.311268682065219  C 7.034505208333314 3.6755689538043437  7.325846354166686 3.9736328125  7.685546875 3.9736328125  C 8.045247395833314 3.9736328125  8.336588541666686 3.6772248641304373  8.336588541666686 3.311268682065219  L 8.336588541666686 1.1569293478260931  C 8.336588541666686 0.7909731657608745  8.045247395833314 0.49456521739129755  7.685546875 0.49456521739129755  C 7.325846354166686 0.49456521739129755  7.034505208333314 0.7909731657608745  7.034505208333314 1.1569293478260931  L 7.034505208333314 3.311268682065219  Z M 6.139322916666686 8.674762228260875  C 6.139322916666686 8.308806046195656  5.847981770833314 8.012398097826093  5.48828125 8.012398097826093  L 4.51171875 8.012398097826093  C 4.152018229166686 8.012398097826093  3.8606770833333144 8.308806046195656  3.8606770833333144 8.674762228260875  C 3.8606770833333144 9.040718410326093  4.152018229166686 9.337126358695656  4.51171875 9.337126358695656  L 5.48828125 9.337126358695656  C 5.847981770833314 9.337126358695656  6.139322916666686 9.040718410326093  6.139322916666686 8.674762228260875  Z M 9.833984375 8.674762228260875  C 9.833984375 8.308806046195656  9.542643229166686 8.012398097826093  9.182942708333314 8.012398097826093  L 8.206380208333314 8.012398097826093  C 7.8466796875 8.012398097826093  7.555338541666686 8.308806046195656  7.555338541666686 8.674762228260875  C 7.555338541666686 9.040718410326093  7.8466796875 9.337126358695656  8.206380208333314 9.337126358695656  L 9.182942708333314 9.337126358695656  C 9.542643229166686 9.337126358695656  9.833984375 9.040718410326093  9.833984375 8.674762228260875  Z M 2.607421875 11.787873641304344  C 2.607421875 11.421917459239125  2.3160807291666856 11.125509510869563  1.9563802083333144 11.125509510869563  L 0.9798177083333144 11.125509510869563  C 0.6201171875 11.125509510869563  0.3287760416666856 11.421917459239125  0.3287760416666856 11.787873641304344  C 0.3287760416666856 12.153829823369563  0.6201171875 12.450237771739125  0.9798177083333144 12.450237771739125  L 1.9563802083333144 12.450237771739125  C 2.3160807291666856 12.450237771739125  2.607421875 12.153829823369563  2.607421875 11.787873641304344  Z M 6.139322916666686 11.787873641304344  C 6.139322916666686 11.421917459239125  5.847981770833314 11.125509510869563  5.48828125 11.125509510869563  L 4.51171875 11.125509510869563  C 4.152018229166686 11.125509510869563  3.8606770833333144 11.421917459239125  3.8606770833333144 11.787873641304344  C 3.8606770833333144 12.153829823369563  4.152018229166686 12.450237771739125  4.51171875 12.450237771739125  L 5.48828125 12.450237771739125  C 5.847981770833314 12.450237771739125  6.139322916666686 12.153829823369563  6.139322916666686 11.787873641304344  Z M 9.833984375 11.787873641304344  C 9.833984375 11.421917459239125  9.542643229166686 11.125509510869563  9.182942708333314 11.125509510869563  L 8.206380208333314 11.125509510869563  C 7.8466796875 11.125509510869563  7.555338541666686 11.421917459239125  7.555338541666686 11.787873641304344  C 7.555338541666686 12.153829823369563  7.8466796875 12.450237771739125  8.206380208333314 12.450237771739125  L 9.182942708333314 12.450237771739125  C 9.542643229166686 12.450237771739125  9.833984375 12.153829823369563  9.833984375 11.787873641304344  Z " fill-rule="nonzero" fill="#999999" stroke="none" transform="matrix(1 0 0 1 1209 243 )" />
  </g>
</svg>