<?xml version="1.0" encoding="utf-8"?>
<svg version="1.1" xmlns:xlink="http://www.w3.org/1999/xlink" width="16px" height="15px" xmlns="http://www.w3.org/2000/svg">
  <g transform="matrix(1 0 0 1 -1206 -244 )">
    <path d="M 15.5 2.4795297475961604  C 15.5 1.3606144831730802  14.599330357142833 0.451284555288467  13.491071428571445 0.451284555288467  L 12.620535714285722 0.451284555288467  C 12.250558035714278 0.451284555288467  11.950892857142833 0.7538311298076934  11.950892857142833 1.1273662860576934  C 11.950892857142833 1.5009014423076934  12.250558035714278 1.8034480168269198  12.620535714285722 1.8034480168269198  L 13.491071428571445 1.8034480168269198  C 13.861049107142833 1.8034480168269198  14.160714285714278 2.1059945913461604  14.160714285714278 2.4795297475961604  L 14.160714285714278 4  L 1.8392857142857224 4  L 1.8392857142857224 2.4795297475961604  C 1.8392857142857224 2.1059945913461604  2.138950892857167 1.8034480168269198  2.508928571428555 1.8034480168269198  L 3.3794642857142776 1.8034480168269198  C 3.7494419642857224 1.8034480168269198  4.049107142857167 1.5009014423076934  4.049107142857167 1.1273662860576934  C 4.049107142857167 0.7538311298076934  3.7494419642857224 0.451284555288467  3.3794642857142776 0.451284555288467  L 2.508928571428555 0.451284555288467  C 1.4006696428571672 0.451284555288467  0.5 1.3606144831730802  0.5 2.4795297475961604  L 0.5 12.466947115384613  C 0.5 13.585862379807693  1.4006696428571672 14.495192307692307  2.508928571428555 14.495192307692307  L 13.491071428571445 14.495192307692307  C 14.599330357142833 14.495192307692307  15.5 13.585862379807693  15.5 12.466947115384613  L 15.5 2.4795297475961604  Z M 14.160714285714278 12.466947115384613  C 14.160714285714278 12.840482271634613  13.861049107142833 13.14302884615384  13.491071428571445 13  L 2.508928571428555 13  C 2.138950892857167 13.14302884615384  1.8392857142857224 12.840482271634613  1.8392857142857224 12.466947115384613  L 1.8392857142857224 5.435697115384613  L 14.160714285714278 5.435697115384613  L 14.160714285714278 12.466947115384613  Z " fill-rule="nonzero" fill="#999999" stroke="none" transform="matrix(1 0 0 1 1206 244 )" />
  </g>
</svg>