<?xml version="1.0" encoding="utf-8"?>
<svg version="1.1" xmlns:xlink="http://www.w3.org/1999/xlink" width="28px" height="26px" xmlns="http://www.w3.org/2000/svg">
  <g transform="matrix(1 0 0 1 -1196 -1593 )">
    <path d="M 1196 1593  L 1224 1593  L 1224 1619  L 1196 1619  L 1196 1593  " fill-rule="nonzero" fill="#cccccc" stroke="none" />
    <path d="M 1198 1595  L 1222 1595  L 1222 1617  L 1198 1617  L 1198 1595  " fill-rule="nonzero" fill="#ffffff" stroke="none" />
    <path d="M 1212.51 1600.8000000000002  C 1211.418 1600.8000000000002  1210.56 1599.9420000000002  1210.56 1598.8500000000001  C 1210.56 1597.758  1211.418 1596.9  1212.51 1596.9  C 1213.602 1596.9  1214.46 1597.758  1214.46 1598.8500000000001  C 1214.46 1599.9420000000002  1213.602 1600.8000000000002  1212.51 1600.8000000000002  " fill-rule="nonzero" fill="#cccccc" stroke="none" />
    <path d="M 1199 1617  L 1199 1605.45  L 1204.75 1600.2  L 1212.8 1605.3  L 1217.4 1603.35  L 1222 1605.3  L 1222 1617  L 1199 1617  " fill-rule="nonzero" fill="#169bd5" stroke="none" />
  </g>
</svg>