<?xml version="1.0" encoding="utf-8"?>
<svg version="1.1" xmlns:xlink="http://www.w3.org/1999/xlink" width="8px" height="18px" xmlns="http://www.w3.org/2000/svg">
  <g transform="matrix(1 0 0 1 -908 -1593 )">
    <path d="M 0 2.1510000132222653  L 0 0  L 2.390000013291016 0  L 2.390000013291016 2.1510000132222653  L 0 2.1510000132222653  Z M 5.43200001032031 2.1510000132222653  L 5.43200001032031 0  L 7.822000000173827 0  L 7.822000000173827 2.1510000132222653  L 5.43200001032031 2.1510000132222653  Z M 0 7.235999997173438  L 0 5.085000005044922  L 2.390000013291016 5.085000005044922  L 2.390000013291016 7.235999997173438  L 0 7.235999997173438  Z M 5.43200001032031 7.235999997173438  L 5.43200001032031 5.085000005044922  L 7.822000000173827 5.085000005044922  L 7.822000000173827 7.235999997173438  L 5.43200001032031 7.235999997173438  Z M 0 12.319200009250313  L 0 10.168199996028049  L 2.390000013291016 10.168199996028049  L 2.390000013291016 12.319200009250313  L 0 12.319200009250313  Z M 5.43200001032031 12.319200009250313  L 5.43200001032031 10.168199996028049  L 7.822000000173827 10.168199996028049  L 7.822000000173827 12.319200009250313  L 5.43200001032031 12.319200009250313  Z M 0 17.405100000232387  L 0 15.254100008103869  L 2.390000013291016 15.254100008103869  L 2.390000013291016 17.405100000232387  L 0 17.405100000232387  Z M 5.43200001032031 17.405100000232387  L 5.43200001032031 15.254100008103869  L 7.822000000173827 15.254100008103869  L 7.822000000173827 17.405100000232387  L 5.43200001032031 17.405100000232387  Z " fill-rule="nonzero" fill="#ffffff" stroke="none" transform="matrix(1 0 0 1 908 1593 )" />
  </g>
</svg>