<?xml version="1.0" encoding="utf-8"?>
<svg version="1.1" xmlns:xlink="http://www.w3.org/1999/xlink" width="8px" height="17px" xmlns="http://www.w3.org/2000/svg">
  <g transform="matrix(1 0 0 1 -907 -1667 )">
    <path d="M 0 2.031500012487695  L 0 0  L 2.390000013291016 0  L 2.390000013291016 2.031500012487695  L 0 2.031500012487695  Z M 5.43200001032031 2.031500012487695  L 5.43200001032031 0  L 7.822000000173827 0  L 7.822000000173827 2.031500012487695  L 5.43200001032031 2.031500012487695  Z M 0 6.833999997330468  L 0 4.8025000047646484  L 2.390000013291016 4.8025000047646484  L 2.390000013291016 6.833999997330468  L 0 6.833999997330468  Z M 5.43200001032031 6.833999997330468  L 5.43200001032031 4.8025000047646484  L 7.822000000173827 4.8025000047646484  L 7.822000000173827 6.833999997330468  L 5.43200001032031 6.833999997330468  Z M 0 11.634800008736406  L 0 9.603299996248712  L 2.390000013291016 9.603299996248712  L 2.390000013291016 11.634800008736406  L 0 11.634800008736406  Z M 5.43200001032031 11.634800008736406  L 5.43200001032031 9.603299996248712  L 7.822000000173827 9.603299996248712  L 7.822000000173827 11.634800008736406  L 5.43200001032031 11.634800008736406  Z M 0 16.438150000219476  L 0 14.406650007653653  L 2.390000013291016 14.406650007653653  L 2.390000013291016 16.438150000219476  L 0 16.438150000219476  Z M 5.43200001032031 16.438150000219476  L 5.43200001032031 14.406650007653653  L 7.822000000173827 14.406650007653653  L 7.822000000173827 16.438150000219476  L 5.43200001032031 16.438150000219476  Z " fill-rule="nonzero" fill="#ffffff" stroke="none" transform="matrix(1 0 0 1 907 1667 )" />
  </g>
</svg>