<?xml version="1.0" encoding="utf-8"?>
<svg version="1.1" xmlns:xlink="http://www.w3.org/1999/xlink" width="176px" height="105px" xmlns="http://www.w3.org/2000/svg">
  <g transform="matrix(1 0 0 1 -1850 -220 )">
    <path d="M 1938 220  C 1987.28 220  2026 243.1  2026 272.5  C 2026 301.9  1987.28 325  1938 325  C 1888.72 325  1850 301.9  1850 272.5  C 1850 243.1  1888.72 220  1938 220  Z " fill-rule="nonzero" fill="#ffffff" stroke="none" />
    <path d="M 1938 220.5  C 1987 220.5  2025.5 243.38  2025.5 272.5  C 2025.5 301.62  1987 324.5  1938 324.5  C 1889 324.5  1850.5 301.62  1850.5 272.5  C 1850.5 243.38  1889 220.5  1938 220.5  Z " stroke-width="1" stroke="#797979" fill="none" />
  </g>
</svg>