<?xml version="1.0" encoding="utf-8"?>
<svg version="1.1" xmlns:xlink="http://www.w3.org/1999/xlink" width="22px" height="33px" xmlns="http://www.w3.org/2000/svg">
  <g transform="matrix(1 0 0 1 -1278 -1529 )">
    <path d="M 0 3.94350002424082  L 0 0  L 6.572500036550294 0  L 6.572500036550294 3.94350002424082  L 0 3.94350002424082  Z M 14.938000028380854 3.94350002424082  L 14.938000028380854 0  L 21.510500000478025 0  L 21.510500000478025 3.94350002424082  L 14.938000028380854 3.94350002424082  Z M 0 13.26599999481797  L 0 9.322500009249024  L 6.572500036550294 9.322500009249024  L 6.572500036550294 13.26599999481797  L 0 13.26599999481797  Z M 14.938000028380854 13.26599999481797  L 14.938000028380854 9.322500009249024  L 21.510500000478025 9.322500009249024  L 21.510500000478025 13.26599999481797  L 14.938000028380854 13.26599999481797  Z M 0 22.585200016958908  L 0 18.641699992718088  L 6.572500036550294 18.641699992718088  L 6.572500036550294 22.585200016958908  L 0 22.585200016958908  Z M 14.938000028380854 22.585200016958908  L 14.938000028380854 18.641699992718088  L 21.510500000478025 18.641699992718088  L 21.510500000478025 22.585200016958908  L 14.938000028380854 22.585200016958908  Z M 0 31.90935000042604  L 0 27.965850014857093  L 6.572500036550294 27.965850014857093  L 6.572500036550294 31.90935000042604  L 0 31.90935000042604  Z M 14.938000028380854 31.90935000042604  L 14.938000028380854 27.965850014857093  L 21.510500000478025 27.965850014857093  L 21.510500000478025 31.90935000042604  L 14.938000028380854 31.90935000042604  Z " fill-rule="nonzero" fill="#ffffff" stroke="none" transform="matrix(1 0 0 1 1278 1529 )" />
  </g>
</svg>