<?xml version="1.0" encoding="utf-8"?>
<svg version="1.1" xmlns:xlink="http://www.w3.org/1999/xlink" width="19px" height="23px" xmlns="http://www.w3.org/2000/svg">
  <g transform="matrix(1 0 0 1 -3251 -2567 )">
    <path d="M 3260.5 2567  C 3265.82 2567  3270 2572.06  3270 2578.5  C 3270 2584.94  3265.82 2590  3260.5 2590  C 3255.18 2590  3251 2584.94  3251 2578.5  C 3251 2572.06  3255.18 2567  3260.5 2567  Z " fill-rule="nonzero" fill="#ffffff" stroke="none" />
    <path d="M 3260.5 2567.5  C 3265.54 2567.5  3269.5 2572.34  3269.5 2578.5  C 3269.5 2584.66  3265.54 2589.5  3260.5 2589.5  C 3255.46 2589.5  3251.5 2584.66  3251.5 2578.5  C 3251.5 2572.34  3255.46 2567.5  3260.5 2567.5  Z " stroke-width="1" stroke="#797979" fill="none" />
  </g>
</svg>