<?xml version="1.0" encoding="utf-8"?>
<svg version="1.1" xmlns:xlink="http://www.w3.org/1999/xlink" width="20px" height="19px" xmlns="http://www.w3.org/2000/svg">
  <g transform="matrix(1 0 0 1 -984 -2249 )">
    <path d="M 994 2249  C 999.6 2249  1004 2253.18  1004 2258.5  C 1004 2263.82  999.6 2268  994 2268  C 988.4 2268  984 2263.82  984 2258.5  C 984 2253.18  988.4 2249  994 2249  Z " fill-rule="nonzero" fill="#ffffff" stroke="none" />
    <path d="M 994 2249.5  C 999.32 2249.5  1003.5 2253.46  1003.5 2258.5  C 1003.5 2263.54  999.32 2267.5  994 2267.5  C 988.68 2267.5  984.5 2263.54  984.5 2258.5  C 984.5 2253.46  988.68 2249.5  994 2249.5  Z " stroke-width="1" stroke="#797979" fill="none" />
  </g>
</svg>