<?xml version="1.0" encoding="utf-8"?>
<svg version="1.1" xmlns:xlink="http://www.w3.org/1999/xlink" width="25px" height="25px" xmlns="http://www.w3.org/2000/svg">
  <g transform="matrix(1 0 0 1 -1202 -313 )">
    <path d="M 1214.5 313  C 1221.5 313  1227 318.5  1227 325.5  C 1227 332.5  1221.5 338  1214.5 338  C 1207.5 338  1202 332.5  1202 325.5  C 1202 318.5  1207.5 313  1214.5 313  Z " fill-rule="nonzero" fill="#ffffff" stroke="none" />
    <path d="M 1214.5 313.5  C 1221.22 313.5  1226.5 318.78  1226.5 325.5  C 1226.5 332.22  1221.22 337.5  1214.5 337.5  C 1207.78 337.5  1202.5 332.22  1202.5 325.5  C 1202.5 318.78  1207.78 313.5  1214.5 313.5  Z " stroke-width="1" stroke="#797979" fill="none" />
  </g>
</svg>