<?xml version="1.0" encoding="utf-8"?>
<svg version="1.1" xmlns:xlink="http://www.w3.org/1999/xlink" width="15px" height="17px" xmlns="http://www.w3.org/2000/svg">
  <g transform="matrix(1 0 0 1 -4430 -1933 )">
    <path d="M 4437.5 1933  C 4441.7 1933  4445 1936.74  4445 1941.5  C 4445 1946.26  4441.7 1950  4437.5 1950  C 4433.3 1950  4430 1946.26  4430 1941.5  C 4430 1936.74  4433.3 1933  4437.5 1933  Z " fill-rule="nonzero" fill="#ffffff" stroke="none" />
    <path d="M 4437.5 1933.5  C 4441.42 1933.5  4444.5 1937.02  4444.5 1941.5  C 4444.5 1945.98  4441.42 1949.5  4437.5 1949.5  C 4433.58 1949.5  4430.5 1945.98  4430.5 1941.5  C 4430.5 1937.02  4433.58 1933.5  4437.5 1933.5  Z " stroke-width="1" stroke="#797979" fill="none" />
  </g>
</svg>