<?xml version="1.0" encoding="utf-8"?>
<svg version="1.1" xmlns:xlink="http://www.w3.org/1999/xlink" width="24px" height="26px" xmlns="http://www.w3.org/2000/svg">
  <g transform="matrix(1 0 0 1 -2986 -6052 )">
    <path d="M 16.660550444380732 14.073394495412844  L 16.660550444380732 18.04892964807913  L 20.330275243692654 18.04892964807913  L 20.330275243692654 14.073394495412844  L 24 14.073394495412844  L 24 20.036697247706424  L 20.330275243692654 20.036697247706424  L 20.330275243692654 22.024464847333718  L 16.660550444380732 22.024464847333718  L 16.660550444380732 20.036697247706424  L 12.990825688073391 20.036697247706424  L 12.990825688073391 14.073394495412844  L 16.660550444380732 14.073394495412844  Z M 0.14678897649082653 26  L 0.1467889764908281 14  L 11.155963288417432 14  L 11.155963288417432 26  L 0.14678897649082653 26  Z M 7.4862385321100895 18.04892964807913  L 3.816513775802752 18.04892964807913  L 3.816513775802752 22.024464847333718  L 7.4862385321100895 22.024464847333718  L 7.4862385321100895 18.04892964807913  Z M 0.14678897649082653 12  L 0.14678897649082653 0.15902139119839545  L 11.155963288417432 0.15902139119839545  L 11.155963288417432 12  L 0.14678897649082653 12  Z M 7.4862385321100895 4.134556590452982  L 3.816513775802752 4.134556590452982  L 3.816513775802752 8.110091743119266  L 7.4862385321100895 8.110091743119266  L 7.4862385321100895 4.134556590452982  Z M 13 12  L 13 0.15902139119839714  L 24 0.15902139119839714  L 24 12  L 13 12  Z M 20.330275243692654 4.134556590452982  L 16.660550444380732 4.134556590452982  L 16.660550444380732 8.110091743119266  L 20.330275243692654 8.110091743119266  L 20.330275243692654 4.134556590452982  Z M 20.330275243692654 26  L 20.330275243692654 22.024464847333718  L 24 22.024464847333718  L 24 26  L 20.330275243692654 26  Z M 12.990825688073397 26  L 12.990825688073397 22.024464847333718  L 16.660550444380736 22.024464847333718  L 16.660550444380736 26  L 12.990825688073397 26  Z " fill-rule="nonzero" fill="#444444" stroke="none" transform="matrix(1 0 0 1 2986 6052 )" />
  </g>
</svg>