<?xml version="1.0" encoding="utf-8"?>
<svg version="1.1" xmlns:xlink="http://www.w3.org/1999/xlink" width="22px" height="24px" xmlns="http://www.w3.org/2000/svg">
  <g transform="matrix(1 0 0 1 -3476 -5376 )">
    <path d="M 5.087500344659092 19.20309090909091  C 1.925793490322476 17.345192729777054  -0.001073074267751229 14.045150687692754  0 10.49  C 0.07548320541945656 4.734363636363636  4.996086553418559 0.12327272727272726  11.000000224168511 0.18181818181818182  C 17.00391389491847 0.12327272727272726  21.92432758774902 4.734363636363636  21.999810344831452 10.489818181818183  C 21.975006315553046 14.189664497286362  19.8732822549448 17.58985025581507  16.50000011208426 19.387454545454542  L 12.155000200630818 23.421090909090903  C 11.450528590487412 24.077226355818567  10.32947186233298 24.077226355818574  9.625000252189578 23.42109090909091  L 5.087500344659092 19.20309090909091  Z M 6.943655479246372 17.265454545454546  L 11.000000224168511 20.91672727272727  L 14.90500014458869 17.318181818181817  L 15.070000141226156 17.23909090909091  C 17.61057194475848 15.89648102253081  19.19020654922175 13.337128956041422  19.194810401994417 10.556000000000003  C 19.164844885363706 6.253636363636366  15.502224270348917 2.78927272727273  11.01422436180967 2.81818181818182  L 11.000000224168508 2.818363636363639  C 6.512569281134909 2.7523636363636386  2.8188452184781134 6.1861818181818204  2.750000392294892 10.48818181818182  L 2.750000392294892 10.490000000000002  C 2.744145134258874 13.201233436367442  4.24165169331693 15.711190415707375  6.682310656986099 17.080909090909095  L 6.819810654183991 17.160000000000004  L 6.943655479246372 17.265454545454546  Z " fill-rule="nonzero" fill="#000000" stroke="none" transform="matrix(1 0 0 1 3476 5376 )" />
  </g>
</svg>