<?xml version="1.0" encoding="utf-8"?>
<svg version="1.1" xmlns:xlink="http://www.w3.org/1999/xlink" width="10px" height="10px" xmlns="http://www.w3.org/2000/svg">
  <g transform="matrix(1 0 0 1 -3482 -5382 )">
    <path d="M 5 7.1078431372549025  C 6.155 7.1078431372549025  7.091346153846151 6.15313725490196  7.091346153846151 4.9754901960784315  C 7.091346153846151 3.797843137254902  6.155 2.8431372549019605  4.999999999999997 2.8431372549019605  C 3.8449999999999944 2.8431372549019605  2.9086538461538436 3.797843137254902  2.9086538461538436 4.9754901960784315  C 2.9086538461538436 6.15313725490196  3.845 7.1078431372549025  5 7.1078431372549025  Z M 5 0  C 7.695000000000002 0  9.87980769230769 2.22764705882353  9.87980769230769 4.9754901960784315  C 9.87980769230769 7.723333333333332  7.694999999999999 9.95098039215686  5 9.95098039215686  C 2.305000000000001 9.95098039215686  0.1201923076923077 7.723333333333335  0.1201923076923077 4.9754901960784315  C 0.1201923076923077 2.227647058823529  2.304999999999998 0  5 0  Z " fill-rule="nonzero" fill="#000000" stroke="none" transform="matrix(1 0 0 1 3482 5382 )" />
  </g>
</svg>