<?xml version="1.0" encoding="utf-8"?>
<svg version="1.1" xmlns:xlink="http://www.w3.org/1999/xlink" width="36px" height="14px" xmlns="http://www.w3.org/2000/svg">
  <g transform="matrix(1 0 0 1 -3469 -5396 )">
    <path d="M 32.574694736842105 11  L 29.827326315789474 2.884945945945945  L 26.241915789473683 2.884945945945945  C 25.483250948916645 2.884945945945945  24.868231578947366 2.270850028484128  24.868231578947366 1.5133243243243233  C 24.868231578947366 0.7557986201645159  25.483250948916645 0.1417027027027018  26.241915789473683 0.1417027027027018  L 30.81637894736842 0.1417027027027018  C 31.43204980768703 0.10964392057715483  31.99370241629629 0.4910715883165798  32.19006315789474 1.0745945945945905  L 35.85770526315789 12.047378378378372  C 35.90596988556733 12.189363066565496  35.9305921343449 12.338288982707962  35.9305921343449 12.488229421852937  C 35.9305921343449 13.245755126012739  35.31557276437562 13.85985104347456  34.556907923818585 13.85985104347456  C 34.532599458608885 13.85985104347456  34.508295275903265 13.859206775070039  34.484021052631576 13.857918918918912  L 1.515978947368421 13.857918918918912  C 1.4917047240967454 13.859206775070039  1.4674005413911044 13.85985104347456  1.443092076181418 13.85985104347456  C 0.6844272356243807 13.85985104347456  0.06940786565510235 13.245755126012739  0.06940786565510235 12.488229421852937  C 0.06940786565510235 12.338288982707962  0.09403011443267238 12.189363066565496  0.14229473684210517 12.047378378378372  L 3.8099368421052624 1.0745945945945905  C 4.006297583703707 0.49107158831658254  4.5679501923129795 0.10964392057715483  5.183621052631578 0.1417027027027018  L 9.757894736842104 0.1417027027027018  C 10.516559577399143 0.1417027027027018  11.131578947368418 0.7557986201645159  11.131578947368418 1.5133243243243233  C 11.131578947368418 2.270850028484128  10.516559577399141 2.884945945945945  9.757894736842104 2.884945945945945  L 6.172673684210526 2.884945945945945  L 3.4253052631578953 11  L 32.574694736842105 11  Z " fill-rule="nonzero" fill="#000000" stroke="none" transform="matrix(1 0 0 1 3469 5396 )" />
  </g>
</svg>