<?xml version="1.0" encoding="utf-8"?>
<svg version="1.1" xmlns:xlink="http://www.w3.org/1999/xlink" width="30px" height="30px" xmlns="http://www.w3.org/2000/svg">
  <g transform="matrix(1 0 0 1 -3469 -5483 )">
    <path d="M 17.32421875 7.67578125  C 17.44140625 7.79296875  17.5 7.9427083333333295  17.5 8.125000000000002  L 17.5 16.875  C 17.5 17.057291666666664  17.44140625 17.207031249999996  17.32421875 17.324218749999996  C 17.20703125 17.441406249999996  17.057291666666668 17.499999999999996  16.875 17.499999999999996  L 10.625 17.499999999999996  C 10.442708333333336 17.499999999999996  10.29296875 17.441406249999996  10.17578125 17.324218749999996  C 10.05859375 17.207031249999996  10 17.057291666666664  10 16.875  L 10 15.624999999999998  C 10 15.442708333333332  10.05859375 15.29296875  10.17578125 15.17578125  C 10.29296875 15.05859375  10.442708333333336 15  10.625 15  L 15 15  L 15 8.125000000000002  C 15 7.9427083333333295  15.05859375 7.79296875  15.17578125 7.67578125  C 15.292968750000004 7.55859375  15.442708333333336 7.5  15.625000000000002 7.5  L 16.875 7.5  C 17.057291666666668 7.5  17.20703125 7.55859375  17.32421875 7.67578125  Z M 24.19921875 20.33203125  C 25.149739583333332 18.70442708333333  25.625 16.927083333333336  25.625 15  C 25.625 13.072916666666664  25.149739583333332 11.295572916666666  24.19921875 9.66796875  C 23.24869791666667 8.04036458333333  21.95963541666667 6.75130208333333  20.33203125 5.80078125  C 18.704427083333332 4.850260416666666  16.927083333333336 4.375000000000001  15 4.375000000000001  C 13.072916666666666 4.375000000000001  11.295572916666668 4.850260416666666  9.66796875 5.80078125  C 8.040364583333334 6.75130208333333  6.751302083333334 8.04036458333333  5.80078125 9.66796875  C 4.850260416666667 11.295572916666666  4.375 13.072916666666664  4.375 15  C 4.375 16.927083333333336  4.850260416666667 18.70442708333333  5.80078125 20.33203125  C 6.751302083333334 21.959635416666664  8.040364583333334 23.248697916666668  9.66796875 24.19921875  C 11.295572916666668 25.149739583333332  13.072916666666666 25.625  15 25.625  C 16.927083333333336 25.625  18.704427083333332 25.149739583333332  20.33203125 24.19921875  C 21.95963541666667 23.248697916666668  23.24869791666667 21.959635416666664  24.19921875 20.33203125  Z M 27.98828125 7.470703125  C 29.32942708333333 9.76888020833333  30 12.278645833333329  30 15  C 30 17.721354166666668  29.32942708333333 20.231119791666664  27.98828125 22.529296875  C 26.64713541666667 24.827473958333332  24.827473958333332 26.647135416666668  22.529296875 27.98828125  C 20.23111979166667 29.329427083333336  17.721354166666668 30  15 30  C 12.278645833333334 30  9.768880208333334 29.329427083333336  7.470703125 27.98828125  C 5.172526041666667 26.647135416666668  3.352864583333334 24.827473958333332  2.01171875 22.529296875  C 0.6705729166666665 20.231119791666664  0 17.721354166666668  0 15  C 0 12.278645833333329  0.6705729166666665 9.76888020833333  2.01171875 7.470703125  C 3.352864583333334 5.172526041666666  5.172526041666667 3.3528645833333304  7.470703125 2.011718749999999  C 9.768880208333334 0.6705729166666641  12.278645833333334 0  15 0  C 17.721354166666668 0  20.23111979166667 0.6705729166666641  22.529296875 2.011718749999999  C 24.827473958333332 3.3528645833333304  26.64713541666667 5.172526041666666  27.98828125 7.470703125  Z " fill-rule="nonzero" fill="#000000" stroke="none" transform="matrix(1 0 0 1 3469 5483 )" />
  </g>
</svg>