<?xml version="1.0" encoding="utf-8"?>
<svg version="1.1" xmlns:xlink="http://www.w3.org/1999/xlink" width="20px" height="20px" xmlns="http://www.w3.org/2000/svg">
  <g transform="matrix(1 0 0 1 -4238 -5425 )">
    <path d="M 9.327354260089578 15  L 9.955156950672517 15  L 11.255605381165878 13.352272727272696  L 9.551569506726537 11.193181818181738  L 8.251121076233176 12.840909090909044  L 8.251121076233176 13.636363636363653  L 9.327354260089578 13.636363636363653  L 9.327354260089578 15  Z M 14.876681614349764 5.241477272727304  C 15.0037369207771 5.080492424242493  15.007473841554656 4.924242424242493  14.88789237668152 4.7727272727273045  C 14.76831091180884 4.621212121212116  14.644992526158603 4.625946969696927  14.517937219730811 4.786931818181738  L 10.594170403587668 9.758522727272696  C 10.467115097159876 9.919507575757507  10.463378176382776 10.075757575757507  10.582959641255457 10.227272727272696  C 10.702541106128592 10.378787878787886  10.825859491778829 10.374053030303072  10.952914798206166 10.213068181818262  L 14.876681614349764 5.241477272727304  Z M 15.560538116591943 12.798295454545393  C 15.710014947683248 12.874053030303072  15.784753363228901 13.011363636363653  15.784753363228901 13.210227272727304  L 15.784753363228901 15.909090909090956  C 15.784753363228901 17.035984848484812  15.468983557548654 17.999526515151537  14.83744394618816 18.799715909090956  C 14.20590433482812 19.59990530303038  13.44544095665151 20  12.55605381165924 20  L 3.2286995515696617 20  C 2.339312406576937 20  1.5788490284007821 19.59990530303038  0.9473094170402874 18.799715909090956  C 0.3157698056802474 17.999526515151537  0 17.035984848484812  0 15.909090909090956  L 0 4.090909090909044  C 0 2.9640151515151887  0.3157698056802474 2.0004734848484635  0.9473094170402874 1.200284090909043  C 1.5788490284007821 0.4000946969696228  2.339312406576937 0  3.2286995515696617 0  L 7.337423312886131 0  L 12.55605381165924 0  C 13.026905829596217 0  13.464125560537923 0.11837121212115913  13.867713004484358 0.3551136363636523  C 13.979820627802837 0.42140151515153634  14.047085201793834 0.5303030303030727  14.069506726457348 0.6818181818182613  C 14.091928251120862 0.8428030303030727  14.058295964125591 0.9801136363636522  13.968609865470626 1.09375  L 13.419282511210895 1.7897727272726955  C 13.314648729447072 1.9223484848484638  13.195067264573936 1.9602272727273045  13.060538116591943 1.903409090909043  C 12.888639760837123 1.846590909090957  12.720478325859403 1.8181818181817386  12.55605381165924 1.8181818181817386  L 3.2286995515696617 1.8181818181817386  C 2.735426008968716 1.8181818181817386  2.3131539611358676 2.0407196969696226  1.9618834080715715 2.485795454545391  C 1.6106128550072754 2.9308712121211586  1.4349775784753547 3.4659090909090433  1.4349775784753547 4.090909090909044  L 1.4349775784753547 15.909090909090956  C 1.4349775784753547 16.534090909090956  1.6106128550072754 17.06912878787884  1.9618834080715715 17.514204545454607  C 2.3131539611358676 17.95928030303038  2.735426008968716 18.18181818181826  3.2286995515696617 18.18181818181826  L 12.55605381165924 18.18181818181826  C 13.049327354260186 18.18181818181826  13.47159940209258 17.95928030303038  13.822869955156875 17.514204545454607  C 14.174140508221171 17.06912878787884  14.349775784753547 16.534090909090956  14.349775784753547 15.909090909090956  L 14.349775784753547 14.119318181818262  C 14.349775784753547 13.996212121212114  14.383408071748818 13.892045454545393  14.450672645739814 13.806818181818262  L 15.16816143497772 12.897727272727304  C 15.280269058295744 12.755681818181738  15.411061285500637 12.722537878787886  15.560538116591943 12.798295454545393  Z M 7.174887892376773 12.272727272727304  L 14.708520179372044 2.7272727272726955  L 17.937219730941706 6.818181818181738  L 10.40358744394598 16.363636363636346  L 7.174887892376773 16.363636363636346  L 7.174887892376773 12.272727272727304  Z M 20 3.636363636363652  C 20 4.015151515151537  19.895366218236177 4.337121212121159  19.68609865470853 4.6022727272726955  L 18.654708520179156 5.909090909090957  L 15.426008968609949 1.8181818181817386  L 16.45739910313887 0.5113636363636522  C 16.666666666666515 0.24621212121211594  16.920777279521644 0.11363636363634773  17.219730941704256 0.11363636363634773  C 17.518684603886413 0.11363636363634773  17.772795216741542 0.24621212121211594  17.98206278026919 0.5113636363636522  L 19.68609865470853 2.670454545454609  C 19.895366218236177 2.9356060606059704  20 3.257575757575768  20 3.636363636363652  Z " fill-rule="nonzero" fill="#000000" stroke="none" transform="matrix(1 0 0 1 4238 5425 )" />
  </g>
</svg>