<?xml version="1.0" encoding="utf-8"?>
<svg version="1.1" xmlns:xlink="http://www.w3.org/1999/xlink" width="29px" height="17px" xmlns="http://www.w3.org/2000/svg">
  <g transform="matrix(1 0 0 1 -3469 -5558 )">
    <path d="M 27.451136363636362 16.155448728590745  L 1.362121201393823 16.155448728590745  C 0.982948438731915 16.155448728590745  0.6755681818181832 15.850514468416382  0.6755681818181832 15.474358995643026  L 0.6755681818181843 1.8525641132061281  C 0.6755681818181832 1.4764086085066952  0.982948438731915 1.171474348332331  1.362121201393823 1.171474348332331  C 3.192929253595528 1.171474348332331  -0.46868685080787464 1.171474348332331  1.362121201393823 1.1714743483323335  L 8.22765152587891 1.1714743483323335  C 8.606824297427677 1.1714743483323335  8.914204561545636 1.476408615653595  8.914204561545636 1.8525640972430886  C 8.914204561545636 2.228719578832587  8.606824297427682 2.5336538461538485  8.22765152587891 2.5336538461538485  L 2.048674253151637 2.5336538461538485  L 2.048674253151637 14.793269230769232  L 26.76458334406073 14.793269230769232  L 26.76458334406073 1.8525641132061281  C 26.7645833760226 1.476408662853391  27.071963623574916 1.1714744376699837  27.45113636363637 1.1714744376699837  C 27.830309126298275 1.1714744376699837  28.13768938321201 1.4764086978443478  28.13768938321201 1.8525641706176996  L 28.137689383212003 15.474358963716947  C 28.137689383212003 15.850514468416385  27.830309126298275 16.155448728590745  27.451136363636362 16.155448728590745  Z " fill-rule="nonzero" fill="#000000" stroke="none" transform="matrix(1 0 0 1 3469 5558 )" />
  </g>
</svg>