<?xml version="1.0" encoding="utf-8"?>
<svg version="1.1" xmlns:xlink="http://www.w3.org/1999/xlink" width="18px" height="14px" xmlns="http://www.w3.org/2000/svg">
  <g transform="matrix(1 0 0 1 -3477 -5554 )">
    <path d="M 0.703125 13.41799241388495  L 0.703125 13.416666677024148  C 0.3338700118034986 13.41585909765106  0.03496163686742396 13.119315549303227  0.03496163686742396 12.753789517353615  C 0.03496163686742396 12.578341556362613  0.10522651135817565 12.410049342280205  0.2303571533203121 12.285795454545449  L 1.4892857038225453 11.039583322975846  C 1.6141334124641928 10.920218852276324  1.7809239806419153 10.85350443234062  1.9544955328945806 10.85350443234062  C 2.3243290649490547 10.85350443234062  2.62413837957427 11.150285370050428  2.62413837957427 11.516383209861926  C 2.62413837957427 11.688201514112043  2.5567432002514634 11.853307329075847  2.4361607247488823 11.97689394975142  L 1.1772321428571408 13.223106050248582  C 1.0517932742586396 13.348082937068986  0.8810981745602757 13.418248822084523  0.703125 13.41799241388495  Z M 12.701690081516162 5.276515178986915  C 12.701690081516162 5.642576057756463  12.401939036769349 5.9393416834492845  12.03214284667969 5.9393939497514205  C 11.853166535117847 5.93941773648315  11.681567527455012 5.8687994129914625  11.555357142857144 5.74318181818182  L 7.805357132393972 1.97935605024858  C 7.681947522324842 1.855278763377862  7.612777004970688 1.6881386131528933  7.612777004970688 1.5140151411576712  C 7.612777004970688 1.1477026380920008  7.912762114249984 0.8507476814316868  8.282812500000002 0.8507476814316868  C 8.46232257746298 0.8507476814316868  8.634325638098622 0.9220506236543002  8.760267867606025 1.0486742320667626  L 12.510267846679685 4.812500000000003  C 12.63296446914201 4.936411174428707  12.701690081516162 5.103004816771354  12.701690081516162 5.276515178986915  Z M 14.278124989536835 7.013257586115055  L 14.276785724748883 7.013257586115055  C 13.90700772129156 7.013179871672287  13.607285049720325 6.716421703892547  13.607285049720325 6.350378823533508  C 13.607285049720325 6.174282052756485  13.67806910932995 6.005422310364411  13.804017846679685 5.881060595703124  L 16.22008928571429 3.48939394975142  C 16.494498905690616 3.1463207747325694  16.621075357417826 2.709921982510505  16.57232141810826 2.2749999999999972  C 16.534020972105452 1.9043204025665357  16.344361953878288 1.565233060190314  16.04732142857143 1.3363636363636326  C 15.881836023387141 1.2109243269875039  15.784787949368312 1.0163628534120726  15.784787949368312 0.8100378839666168  C 15.784787949368312 0.4439217380098774  16.084612255485588 0.14712596023722438  16.454464280482703 0.14712596023722438  C 16.60165418782909 0.14712596023722438  16.744744188832016 0.19512905129282582  16.861607132393974 0.2837121315695987  C 17.448368070310767 0.730185727859157  17.824504269985717 1.3953125447618613  17.902232132393973 2.1238636363636334  C 17.98841785303003 2.937272765357146  17.738688059764183 3.7506181795762012  17.2098214390346 4.378977272727269  L 14.75089286760603 6.818371222478692  C 14.625781115121338 6.943021879196678  14.455633983007843 7.013160645807007  14.278124989536835 7.013257586115055  Z " fill-rule="nonzero" fill="#000000" stroke="none" transform="matrix(1 0 0 1 3477 5554 )" />
  </g>
</svg>