<?xml version="1.0" encoding="utf-8"?>
<svg version="1.1" xmlns:xlink="http://www.w3.org/1999/xlink" width="18px" height="17px" xmlns="http://www.w3.org/2000/svg">
  <g transform="matrix(1 0 0 1 -3477 -5550 )">
    <path d="M 4.165178560965404 16.821554497821513  C 3.874072920121037 16.89719413329726  3.575000904075406 16.936532257712454  3.274553571428574 16.938701923076927  C 2.609664291666947 16.958485790646137  1.9653702053894606 16.70285189227297  1.489285703822548 16.230368579101565  C 0.8259624895541975 15.496259284804887  0.6032794177498604 14.455448372341264  0.9066964181082597 13.507371805513825  C 1.2370333979085055 12.351191202335974  1.8670835491145739 11.30668244230724  2.730803560965402 10.483333343975362  L 6.594642867606028 6.553445502178487  C 6.719490531573454 6.430802069816393  6.886280901828663 6.362255013229765  7.059852229305333 6.362255013229765  C 7.429685761359805 6.362255013229765  7.729495075985019 6.667189273404128  7.729495075985019 7.04334474617748  C 7.729495075985019 7.219883112703675  7.6621000648213204 7.389524607276641  7.541517857142859 7.516506420898442  L 3.677678581891743 11.445032040640028  C 2.9891989061997526 12.09664957319827  2.48155507193999 12.921166622981834  2.2058035714285706 13.835657040640028  C 2.041567164117238 14.321514015150543  2.1280970322010146 14.858778302865444  2.4361607247488823 15.26594550217848  C 2.836185752225891 15.579975981627571  3.3647829917094176 15.668045406040909  3.8424107247488823 15.500240384615383  C 4.74097042847305 15.21938323388415  5.551103013211499 14.703103225357793  6.191517857142857 14.0032051175631  L 10.055357132393972 10.073317307692307  C 10.18154216389801 9.940435305249315  10.355386483133362 9.865389233225025  10.537022775653536 9.865389233225025  C 10.906856307708004 9.865389233225025  11.206665622333222 10.170323493399392  11.206665622333222 10.546478966172742  C 11.206665622333222 10.731220144744494  11.132880835071983 10.908036154936395  11.002232153320314 11.036378194486177  L 7.1383928466796895 14.966266036283058  C 6.3290917166554195 15.845012621122613  5.3020620907929334 16.48588005663712  4.165178560965404 16.821554497821513  Z M 12.56517858189174 9.766826923076922  C 12.439739713293235 9.895237240853929  12.269044613594872 9.967330760073198  12.0910714390346 9.967067307692309  C 11.721293447867204 9.966987440569518  11.421570795468313 9.662076581051144  11.421570795468313 9.285977590101584  C 11.421570795468313 9.105043011615587  11.4923548428564 8.931544279005744  11.618303560965401 8.803766036283053  L 15.649553571428566 4.703605769230766  C 16.254661824502556 4.0850507571286565  16.254661824502556 3.085462052742132  15.649553571428573 2.4669070406400233  L 15.020089296177456 1.8266826923076909  C 14.404461854050453 1.2299181397404908  13.43660958498415 1.2299181397404908  12.820982142857144 1.8266826923076909  L 8.769642846679691 5.945913461538461  C 8.6447952258582 6.0685566215136335  8.478005046752996 6.137103507076403  8.304433936360873 6.137103507076403  C 7.934600404306401 6.137103507076403  7.634791089681183 5.832169246902038  7.634791089681183 5.456013774128686  C 7.634791089681183 5.279475636208493  7.702185926747102 5.109834342930552  7.822767857142859 4.98285257474459  L 11.874107153320313 0.8622596153846139  C 13.019847947160034 -0.24980055154959047  14.822562788052018 -0.24980055154959047  15.968303581891742 0.8622596153846139  L 16.59776785714286 1.5024839637169463  C 17.726595871858134 2.6531292644733586  17.726595871858134 4.5160213552682285  16.59776785714286 5.666666656024638  L 12.56517858189174 9.766826923076922  Z " fill-rule="nonzero" fill="#000000" stroke="none" transform="matrix(1 0 0 1 3477 5550 )" />
  </g>
</svg>