<?xml version="1.0" encoding="utf-8"?>
<svg version="1.1" xmlns:xlink="http://www.w3.org/1999/xlink" width="34px" height="26px" xmlns="http://www.w3.org/2000/svg">
  <g transform="matrix(1 0 0 1 -3462 -7089 )">
    <path d="M 23.602446462872706 14.073394495412844  L 23.602446462872706 18.04892964807913  L 28.801223261897928 18.04892964807913  L 28.801223261897928 14.073394495412844  L 34 14.073394495412844  L 34 20.036697247706424  L 28.801223261897928 20.036697247706424  L 28.801223261897928 22.024464847333718  L 23.602446462872706 22.024464847333718  L 23.602446462872706 20.036697247706424  L 18.403669724770637 20.036697247706424  L 18.403669724770637 14.073394495412844  L 23.602446462872706 14.073394495412844  Z M 0.20795105002867093 26  L 0.20795105002867312 14  L 16 14  L 16 26  L 0.20795105002867093 26  Z M 10.60550458715596 18.04892964807913  L 5.406727849053898 18.04892964807913  L 5.406727849053898 22.024464847333718  L 10.60550458715596 22.024464847333718  L 10.60550458715596 18.04892964807913  Z M 0.20795105002867093 12  L 0.20795105002867093 0.15902139119839545  L 16 0.15902139119839545  L 16 12  L 0.20795105002867093 12  Z M 10.60550458715596 4.134556590452982  L 5.406727849053898 4.134556590452982  L 5.406727849053898 8.110091743119266  L 10.60550458715596 8.110091743119266  L 10.60550458715596 4.134556590452982  Z M 18 12  L 18 0.15902139119839714  L 34 0.15902139119839714  L 34 12  L 18 12  Z M 28.801223261897928 4.134556590452982  L 23.602446462872706 4.134556590452982  L 23.602446462872706 8.110091743119266  L 28.801223261897928 8.110091743119266  L 28.801223261897928 4.134556590452982  Z M 28.801223261897928 26  L 28.801223261897928 22.024464847333718  L 34 22.024464847333718  L 34 26  L 28.801223261897928 26  Z M 18.403669724770644 26  L 18.403669724770644 22.024464847333718  L 23.60244646287271 22.024464847333718  L 23.60244646287271 26  L 18.403669724770644 26  Z " fill-rule="nonzero" fill="#444444" stroke="none" transform="matrix(1 0 0 1 3462 7089 )" />
  </g>
</svg>