<?xml version="1.0" encoding="utf-8"?>
<svg version="1.1" xmlns:xlink="http://www.w3.org/1999/xlink" width="15px" height="15px" xmlns="http://www.w3.org/2000/svg">
  <g transform="matrix(1 0 0 1 -4662 -1990 )">
    <path d="M 3.984375 1.4453124938964848  C 3.9843750101126365 0.6902356912670314  4.5964857034740625 0.07812500610351558  5.351562506103516 0.07812500610351558  L 13.554687506103516 0.07812500610351558  C 14.309764301582256 0.07812501621615131  14.921874983783848 0.6902356984177451  14.921874993896484 1.4453124938964848  L 14.921874993896484 9.648437493896488  C 14.921874993896484 10.403514296525938  14.30976430873297 11.015624989887366  13.554687506103516 11.015625  L 5.351562506103516 11.015625000000004  C 4.59648569632335 11.015625000000004  3.984375 10.403514303676653  3.984375 9.648437493896486  L 3.984375 1.4453124938964848  Z M 13.554687506103516 1.250000006103516  L 5.351562506103518 1.250000006103516  C 5.243694394682022 1.2500000061035146  5.156250010112633 1.3374443824749924  5.15625 1.4453124938964848  L 5.156249999999998 9.648437493896486  C 5.156249999999998 9.756305612468694  5.243694387531309 9.84375  5.351562506103515 9.84375  L 13.554687506103516 9.84375  C 13.662555617525006 9.843749989887364  13.749999993896484 9.75630560531798  13.749999993896484 9.648437493896486  L 13.749999993896484 1.4453124938964848  C 13.749999983783848 1.3374443896257058  13.662555610374293 1.2500000162161506  13.554687506103516 1.250000006103516  Z M 9.84375 13.554687506103516  L 9.84375 12.1875  C 9.84375 11.86389565439602  10.106083154396018 11.6015625  10.4296875 11.6015625  C 10.75329184560398 11.6015625  11.015625 11.86389565439602  11.015625 12.1875  L 11.015625000000004 13.554687506103516  C 11.015624989887366 14.30976430873297  10.403514296525938 14.921874993896484  9.648437493896486 14.921874993896484  L 1.4453124938964848 14.921874993896484  C 0.6902356984177465 14.921874983783848  0.07812501621615131 14.309764301582256  0.07812500610351558 13.554687506103516  L 0.07812500610351558 5.351562506103516  C 0.07812500610351558 4.5964857034740625  0.6902356912670314 3.9843750101126365  1.4453124938964848 3.984375  L 2.8125 3.984375  C 3.1361043456039805 3.984375  3.3984375 4.2467081543960195  3.3984375 4.5703125  C 3.3984375 4.8939168456039805  3.1361043456039805 5.15625  2.8125 5.15625  L 1.445312493896484 5.156249999999998  C 1.3374443824749918 5.156250010112633  1.2500000061035146 5.243694394682024  1.2500000061035152 5.351562506103516  L 1.2500000061035152 13.554687506103516  C 1.2500000162161506 13.662555610374293  1.3374443896257058 13.749999983783848  1.445312493896484 13.749999993896484  L 9.648437493896486 13.749999993896484  C 9.75630560531798 13.749999993896484  9.843749989887364 13.662555617525006  9.84375 13.554687506103516  Z " fill-rule="nonzero" fill="#7f7f7f" stroke="none" transform="matrix(1 0 0 1 4662 1990 )" />
  </g>
</svg>