<?xml version="1.0" encoding="utf-8"?>
<svg version="1.1" xmlns:xlink="http://www.w3.org/1999/xlink" width="9px" height="15px" xmlns="http://www.w3.org/2000/svg">
  <g transform="matrix(1 0 0 1 -965 -290 )">
    <path d="M 8.71875 2.4795297475961604  C 8.71875 1.3606144831730802  8.212123325892843 0.451284555288467  7.588727678571438 0.451284555288467  L 7.099051339285719 0.451284555288467  C 6.890938895089281 0.451284555288467  6.722377232142843 0.7538311298076934  6.722377232142843 1.1273662860576934  C 6.722377232142843 1.5009014423076934  6.890938895089281 1.8034480168269198  7.099051339285719 1.8034480168269198  L 7.588727678571438 1.8034480168269198  C 7.796840122767843 1.8034480168269198  7.965401785714281 2.1059945913461604  7.965401785714281 2.4795297475961604  L 7.965401785714281 4.08353365384616  L 1.0345982142857189 4.08353365384616  L 1.0345982142857189 2.4795297475961604  C 1.0345982142857189 2.1059945913461604  1.2031598772321566 1.8034480168269198  1.4112723214285623 1.8034480168269198  L 1.9009486607142811 1.8034480168269198  C 2.109061104910719 1.8034480168269198  2.2776227678571566 1.5009014423076934  2.2776227678571566 1.1273662860576934  C 2.2776227678571566 0.7538311298076934  2.109061104910719 0.451284555288467  1.9009486607142811 0.451284555288467  L 1.4112723214285623 0.451284555288467  C 0.7878766741071566 0.451284555288467  0.28125 1.3606144831730802  0.28125 2.4795297475961604  L 0.28125 12.466947115384613  C 0.28125 13.585862379807693  0.7878766741071566 14.495192307692307  1.4112723214285623 14.495192307692307  L 7.588727678571438 14.495192307692307  C 8.212123325892843 14.495192307692307  8.71875 13.585862379807693  8.71875 12.466947115384613  L 8.71875 2.4795297475961604  Z M 7.965401785714281 12.466947115384613  C 7.965401785714281 12.840482271634613  7.796840122767843 13.14302884615384  7.588727678571438 13.14302884615384  L 1.4112723214285623 13.14302884615384  C 1.2031598772321566 13.14302884615384  1.0345982142857189 12.840482271634613  1.0345982142857189 12.466947115384613  L 1.0345982142857189 5.435697115384613  L 7.965401785714281 5.435697115384613  L 7.965401785714281 12.466947115384613  Z " fill-rule="nonzero" fill="#999999" stroke="none" transform="matrix(1 0 0 1 965 290 )" />
  </g>
</svg>