<?xml version="1.0" encoding="utf-8"?>
<svg version="1.1" xmlns:xlink="http://www.w3.org/1999/xlink" width="5px" height="13px" xmlns="http://www.w3.org/2000/svg">
  <g transform="matrix(1 0 0 1 -966 -289 )">
    <path d="M 1.3037109375 8.674762228260875  C 1.3037109375 8.308806046195656  1.1580403645833428 8.012398097826093  0.9781901041666572 8.012398097826093  L 0.4899088541666572 8.012398097826093  C 0.31005859375 8.012398097826093  0.1643880208333428 8.308806046195656  0.1643880208333428 8.674762228260875  C 0.1643880208333428 9.040718410326093  0.31005859375 9.337126358695656  0.4899088541666572 9.337126358695656  L 0.9781901041666572 9.337126358695656  C 1.1580403645833428 9.337126358695656  1.3037109375 9.040718410326093  1.3037109375 8.674762228260875  Z M 0.8317057291666572 3.311268682065219  C 0.8317057291666572 3.6755689538043437  0.9773763020833428 3.9736328125  1.1572265625 3.9736328125  C 1.3370768229166572 3.9736328125  1.4827473958333428 3.6772248641304373  1.4827473958333428 3.311268682065219  L 1.4827473958333428 1.1569293478260931  C 1.4827473958333428 0.7909731657608745  1.3370768229166572 0.49456521739129755  1.1572265625 0.49456521739129755  C 0.9773763020833428 0.49456521739129755  0.8317057291666572 0.7909731657608745  0.8317057291666572 1.1569293478260931  L 0.8317057291666572 3.311268682065219  Z M 1.767578125 2.2332710597826093  C 1.767578125 2.599227241847828  1.9132486979166572 2.8956351902173907  2.093098958333343 2.8956351902173907  L 2.906901041666657 2.8956351902173907  C 3.086751302083343 2.8956351902173907  3.232421875 2.599227241847828  3.232421875 2.2332710597826093  C 3.232421875 1.8673148777173905  3.086751302083343 1.570906929347828  2.906901041666657 1.570906929347828  L 2.093098958333343 1.570906929347828  C 1.9132486979166572 1.570906929347828  1.767578125 1.8673148777173905  1.767578125 2.2332710597826093  Z M 3.517252604166657 3.311268682065219  C 3.517252604166657 3.6755689538043437  3.662923177083343 3.9736328125  3.8427734375 3.9736328125  C 4.022623697916657 3.9736328125  4.168294270833343 3.6772248641304373  4.168294270833343 3.311268682065219  L 4.168294270833343 1.1569293478260931  C 4.168294270833343 0.7909731657608745  4.022623697916657 0.49456521739129755  3.8427734375 0.49456521739129755  C 3.662923177083343 0.49456521739129755  3.517252604166657 0.7909731657608745  3.517252604166657 1.1569293478260931  L 3.517252604166657 3.311268682065219  Z M 3.069661458333343 8.674762228260875  C 3.069661458333343 8.308806046195656  2.923990885416657 8.012398097826093  2.744140625 8.012398097826093  L 2.255859375 8.012398097826093  C 2.076009114583343 8.012398097826093  1.9303385416666572 8.308806046195656  1.9303385416666572 8.674762228260875  C 1.9303385416666572 9.040718410326093  2.076009114583343 9.337126358695656  2.255859375 9.337126358695656  L 2.744140625 9.337126358695656  C 2.923990885416657 9.337126358695656  3.069661458333343 9.040718410326093  3.069661458333343 8.674762228260875  Z M 4.9169921875 8.674762228260875  C 4.9169921875 8.308806046195656  4.771321614583343 8.012398097826093  4.591471354166657 8.012398097826093  L 4.103190104166657 8.012398097826093  C 3.92333984375 8.012398097826093  3.777669270833343 8.308806046195656  3.777669270833343 8.674762228260875  C 3.777669270833343 9.040718410326093  3.92333984375 9.337126358695656  4.103190104166657 9.337126358695656  L 4.591471354166657 9.337126358695656  C 4.771321614583343 9.337126358695656  4.9169921875 9.040718410326093  4.9169921875 8.674762228260875  Z M 1.3037109375 11.787873641304344  C 1.3037109375 11.421917459239125  1.1580403645833428 11.125509510869563  0.9781901041666572 11.125509510869563  L 0.4899088541666572 11.125509510869563  C 0.31005859375 11.125509510869563  0.1643880208333428 11.421917459239125  0.1643880208333428 11.787873641304344  C 0.1643880208333428 12.153829823369563  0.31005859375 12.450237771739125  0.4899088541666572 12.450237771739125  L 0.9781901041666572 12.450237771739125  C 1.1580403645833428 12.450237771739125  1.3037109375 12.153829823369563  1.3037109375 11.787873641304344  Z M 3.069661458333343 11.787873641304344  C 3.069661458333343 11.421917459239125  2.923990885416657 11.125509510869563  2.744140625 11.125509510869563  L 2.255859375 11.125509510869563  C 2.076009114583343 11.125509510869563  1.9303385416666572 11.421917459239125  1.9303385416666572 11.787873641304344  C 1.9303385416666572 12.153829823369563  2.076009114583343 12.450237771739125  2.255859375 12.450237771739125  L 2.744140625 12.450237771739125  C 2.923990885416657 12.450237771739125  3.069661458333343 12.153829823369563  3.069661458333343 11.787873641304344  Z M 4.9169921875 11.787873641304344  C 4.9169921875 11.421917459239125  4.771321614583343 11.125509510869563  4.591471354166657 11.125509510869563  L 4.103190104166657 11.125509510869563  C 3.92333984375 11.125509510869563  3.777669270833343 11.421917459239125  3.777669270833343 11.787873641304344  C 3.777669270833343 12.153829823369563  3.92333984375 12.450237771739125  4.103190104166657 12.450237771739125  L 4.591471354166657 12.450237771739125  C 4.771321614583343 12.450237771739125  4.9169921875 12.153829823369563  4.9169921875 11.787873641304344  Z " fill-rule="nonzero" fill="#999999" stroke="none" transform="matrix(1 0 0 1 966 289 )" />
  </g>
</svg>