<?xml version="1.0" encoding="utf-8"?>
<svg version="1.1" xmlns:xlink="http://www.w3.org/1999/xlink" width="11px" height="11px" xmlns="http://www.w3.org/2000/svg">
  <g transform="matrix(1 0 0 1 -3677 -412 )">
    <path d="M 10.493421052631561 1.1850328947368354  L 10.493421052631561 1.1765522203947398  L 10.493421052631561 1.16298314144737  C 10.493421052631561 1.1511101973684248  10.491724917763122 1.1375411184210549  10.491724917763122 1.1256681743421098  L 10.491724917763122 1.1188836348684248  C 10.490028782894683 1.10361842105263  10.488332648026358 1.0883532072368354  10.48494037828948 1.0730879934210549  C 10.48494037828948 1.07139185855263  10.48494037828948 1.0696957236842053  10.48324424342104 1.06630345394737  C 10.478155838815837 1.03407689144737  10.469675164473642 1.00185032894737  10.459498355263122 0.9730160361842054  C 10.45101768092104 0.949270148026315  10.44253700657896 0.9255242598684248  10.432360197368439 0.9034745065789451  C 10.432360197368439 0.9017783717105203  10.432360197368439 0.9017783717105203  10.4306640625 0.9000822368421098  L 10.42048725328948 0.8797286184210549  C 10.41879111842104 0.8780324835526301  10.41879111842104 0.8763363486842054  10.417094983552602 0.8746402138157946  C 10.413702713815837 0.8678556743421098  10.41031044407896 0.8627672697368354  10.406918174342081 0.8559827302631646  C 10.405222039473642 0.85428659539474  10.405222039473642 0.852590460526315  10.403525904605203 0.8508943256578902  C 10.3984375 0.8407175164473699  10.393349095394683 0.83223684210526  10.38656455592104 0.8237561677631646  C 10.383172286184163 0.8186677631578902  10.381476151315837 0.8152754934210549  10.37808388157896 0.8101870888157946  C 10.37638774671052 0.8067948190789451  10.372995476973642 0.8034025493421098  10.371299342105317 0.80001027960526  C 10.367907072368439 0.794921875  10.364514802631561 0.78983347039474  10.359426398026358 0.7847450657894797  C 10.357730263157919 0.7813527960526301  10.35603412828948 0.7796566611842054  10.35433799342104 0.7762643914473699  C 10.342465049342081 0.7609991776315752  10.328895970394683 0.7457339638157946  10.317023026315837 0.73046875  L 10.31193462171052 0.72538034539474  C 10.306846217105317 0.7202919407894797  10.3017578125 0.7135074013157946  10.294973273026358 0.7084189967105203  L 10.28988486842104 0.70333059210526  C 10.283100328947398 0.6965460526315752  10.276315789473642 0.691457648026315  10.271227384868439 0.6846731085526301  L 10.26953125 0.6829769736842053  C 10.262746710526358 0.6761924342105203  10.254266036184163 0.6694078947368354  10.24748149671052 0.6643194901315752  C 10.245785361842081 0.6626233552631646  10.242393092105317 0.6609272203947398  10.240696957236878 0.659231085526315  C 10.235608552631561 0.6558388157894797  10.230520148026358 0.6507504111842053  10.22543174342104 0.6473581414473699  C 10.222039473684163 0.6456620065789451  10.218647203947398 0.6422697368421098  10.21525493421052 0.640573601973685  C 10.210166529605317 0.6371813322368354  10.206774259868439 0.6337890625  10.201685855263122 0.6303967927631646  L 10.186420641447398 0.6202199835526301  L 10.171155427631561 0.6100431743421098  C 10.166067023026358 0.6066509046052602  10.16097861842104 0.6032586348684248  10.155890213815837 0.6015625  C 10.15249794407896 0.5998663651315752  10.15080180921052 0.5981702302631646  10.147409539473642 0.5964740953947398  C 10.142321134868439 0.5930818256578902  10.135536595394683 0.5896895559210549  10.13044819078948 0.5879934210526301  C 10.12875205592104 0.5862972861842053  10.127055921052602 0.5862972861842053  10.125359786184163 0.5846011513157947  C 10.105006167763122 0.5744243421052602  10.084652549342081 0.5659436677631646  10.06429893092104 0.5574629934210549  C 10.062602796052602 0.5574629934210549  10.060906661184163 0.5557668585526301  10.060906661184163 0.5557668585526301  C 10.05412212171052 0.5523745888157947  10.047337582236878 0.5506784539473699  10.040553042763122 0.5489823190789451  C 10.038856907894683 0.5489823190789451  10.038856907894683 0.5489823190789451  10.037160773026358 0.5472861842105203  C 10.016807154605317 0.5405016447368354  9.994757401315837 0.5337171052631646  9.974403782894683 0.5286287006578902  C 9.971011513157919 0.5286287006578902  9.96761924342104 0.5269325657894797  9.964226973684163 0.5269325657894797  C 9.95913856907896 0.5252364309210549  9.952354029605203 0.5252364309210549  9.947265625 0.5235402960526301  C 9.942177220394683 0.5218441611842053  9.938784950657919 0.5218441611842053  9.933696546052602 0.5218441611842053  C 9.92691200657896 0.5201480263157947  9.921823601973642 0.5201480263157947  9.9150390625 0.5184518914473699  C 9.906558388157919 0.5167557565789451  9.899773848684163 0.5167557565789451  9.891293174342081 0.5150596217105203  C 9.887900904605317 0.5150596217105203  9.884508634868439 0.5150596217105203  9.879420230263122 0.5133634868421098  C 9.87263569078948 0.5133634868421098  9.865851151315837 0.511667351973685  9.859066611842081 0.511667351973685  L 4.979286595394683 0.511667351973685  C 4.604440789473642 0.511667351973685  4.300832648026358 0.8152754934210549  4.300832648026358 1.1901212993421098  C 4.300832648026358 1.5649671052631646  4.604440789473642 1.86857524671052  4.979286595394683 1.86857524671052  L 8.176500822368439 1.86857524671052  L 0.2860814144736423 9.755602384868425  C 0.021484375 10.02019942434211  0.021484375 10.44932154605263  0.2860814144736423 10.71561472039474  C 0.41837993421052033 10.847913240131575  0.5913856907894797 10.9140625  0.7660875822368781 10.9140625  C 0.9407894736841627 10.9140625  1.113795230263122 10.847913240131575  1.24609375 10.71561472039474  L 9.136513157894683 2.8234991776315748  L 9.136513157894683 5.89689555921052  C 9.136513157894683 6.271741365131575  9.440121299342081 6.575349506578945  9.814967105263122 6.575349506578945  C 10.189812911184163 6.575349506578945  10.493421052631561 6.271741365131575  10.493421052631561 5.89689555921052  L 10.493421052631561 1.1850328947368354  Z " fill-rule="nonzero" fill="#ffffff" stroke="none" transform="matrix(1 0 0 1 3677 412 )" />
  </g>
</svg>