<?xml version="1.0" encoding="utf-8"?>
<svg version="1.1" xmlns:xlink="http://www.w3.org/1999/xlink" width="15px" height="15px" xmlns="http://www.w3.org/2000/svg">
  <g transform="matrix(1 0 0 1 -3672 -413 )">
    <path d="M 14.556749131944457 7.984525240384614  C 14.556749131944457 7.610990084134614  14.265407986111086 7.308443509615387  13.905707465277828 7.308443509615387  C 13.546006944444457 7.308443509615387  13.254665798611086 7.610990084134614  13.254665798611086 7.984525240384614  L 13.254665798611086 12.365534855769226  C 13.254665798611086 12.794846754807693  12.919379340277828 13.14302884615384  12.505967881944457 13.14302884615384  L 2.536892361111086 13.14302884615384  C 2.1234809027778283 13.14302884615384  1.788194444444457 12.794846754807693  1.788194444444457 12.365534855769226  L 1.788194444444457 2.48291015625  C 1.788194444444457 2.053598257211533  2.1234809027778283 1.7054161658653868  2.536892361111086 1.7054161658653868  L 6.736111111111086 1.7054161658653868  C 7.095811631944457 1.7054161658653868  7.387152777777828 1.4028695913461604  7.387152777777828 1.0293344350961604  C 7.387152777777828 0.6557992788461604  7.095811631944457 0.3532527043269198  6.736111111111086 0.3532527043269198  L 2.536892361111086 0.3532527043269198  C 1.4057074652778283 0.3532527043269198  0.4861111111110859 1.308218149038467  0.4861111111110859 2.48291015625  L 0.4861111111110859 12.365534855769226  C 0.4861111111110859 13.540226862980774  1.4057074652778283 14.495192307692307  2.536892361111086 14.495192307692307  L 12.505967881944457 14.495192307692307  C 13.637152777777828 14.495192307692307  14.556749131944457 13.540226862980774  14.556749131944457 12.365534855769226  L 14.556749131944457 7.984525240384614  Z " fill-rule="nonzero" fill="#ffffff" stroke="none" transform="matrix(1 0 0 1 3672 413 )" />
  </g>
</svg>