<?xml version="1.0" encoding="utf-8"?>
<svg version="1.1" xmlns:xlink="http://www.w3.org/1999/xlink" width="7px" height="13px" xmlns="http://www.w3.org/2000/svg">
  <g transform="matrix(1 0 0 1 -4436 -335 )">
    <path d="M 1.8251953125 8.674762228260875  C 1.8251953125 8.308806046195656  1.62125651041668 8.012398097826093  1.36946614583332 8.012398097826093  L 0.68587239583332 8.012398097826093  C 0.43408203125 8.012398097826093  0.2301432291666799 8.308806046195656  0.2301432291666799 8.674762228260875  C 0.2301432291666799 9.040718410326093  0.43408203125 9.337126358695656  0.68587239583332 9.337126358695656  L 1.36946614583332 9.337126358695656  C 1.62125651041668 9.337126358695656  1.8251953125 9.040718410326093  1.8251953125 8.674762228260875  Z M 1.16438802083332 3.311268682065219  C 1.16438802083332 3.6755689538043437  1.36832682291668 3.9736328125  1.6201171875 3.9736328125  C 1.87190755208332 3.9736328125  2.07584635416668 3.6772248641304373  2.07584635416668 3.311268682065219  L 2.07584635416668 1.1569293478260931  C 2.07584635416668 0.7909731657608745  1.87190755208332 0.49456521739129755  1.6201171875 0.49456521739129755  C 1.36832682291668 0.49456521739129755  1.16438802083332 0.7909731657608745  1.16438802083332 1.1569293478260931  L 1.16438802083332 3.311268682065219  Z M 2.474609375 2.2332710597826093  C 2.474609375 2.599227241847828  2.67854817708332 2.8956351902173907  2.93033854166668 2.8956351902173907  L 4.069661458333321 2.8956351902173907  C 4.321451822916679 2.8956351902173907  4.525390625 2.599227241847828  4.525390625 2.2332710597826093  C 4.525390625 1.8673148777173905  4.321451822916679 1.570906929347828  4.069661458333321 1.570906929347828  L 2.93033854166668 1.570906929347828  C 2.67854817708332 1.570906929347828  2.474609375 1.8673148777173905  2.474609375 2.2332710597826093  Z M 4.924153645833321 3.311268682065219  C 4.924153645833321 3.6755689538043437  5.128092447916679 3.9736328125  5.3798828125 3.9736328125  C 5.631673177083321 3.9736328125  5.835611979166679 3.6772248641304373  5.835611979166679 3.311268682065219  L 5.835611979166679 1.1569293478260931  C 5.835611979166679 0.7909731657608745  5.631673177083321 0.49456521739129755  5.3798828125 0.49456521739129755  C 5.128092447916679 0.49456521739129755  4.924153645833321 0.7909731657608745  4.924153645833321 1.1569293478260931  L 4.924153645833321 3.311268682065219  Z M 4.297526041666679 8.674762228260875  C 4.297526041666679 8.308806046195656  4.093587239583321 8.012398097826093  3.841796875 8.012398097826093  L 3.158203125 8.012398097826093  C 2.90641276041668 8.012398097826093  2.70247395833332 8.308806046195656  2.70247395833332 8.674762228260875  C 2.70247395833332 9.040718410326093  2.90641276041668 9.337126358695656  3.158203125 9.337126358695656  L 3.841796875 9.337126358695656  C 4.093587239583321 9.337126358695656  4.297526041666679 9.040718410326093  4.297526041666679 8.674762228260875  Z M 6.8837890625 8.674762228260875  C 6.8837890625 8.308806046195656  6.679850260416679 8.012398097826093  6.428059895833321 8.012398097826093  L 5.744466145833321 8.012398097826093  C 5.49267578125 8.012398097826093  5.288736979166679 8.308806046195656  5.288736979166679 8.674762228260875  C 5.288736979166679 9.040718410326093  5.49267578125 9.337126358695656  5.744466145833321 9.337126358695656  L 6.428059895833321 9.337126358695656  C 6.679850260416679 9.337126358695656  6.8837890625 9.040718410326093  6.8837890625 8.674762228260875  Z M 1.8251953125 11.787873641304344  C 1.8251953125 11.421917459239125  1.62125651041668 11.125509510869563  1.36946614583332 11.125509510869563  L 0.68587239583332 11.125509510869563  C 0.43408203125 11.125509510869563  0.2301432291666799 11.421917459239125  0.2301432291666799 11.787873641304344  C 0.2301432291666799 12.153829823369563  0.43408203125 12.450237771739125  0.68587239583332 12.450237771739125  L 1.36946614583332 12.450237771739125  C 1.62125651041668 12.450237771739125  1.8251953125 12.153829823369563  1.8251953125 11.787873641304344  Z M 4.297526041666679 11.787873641304344  C 4.297526041666679 11.421917459239125  4.093587239583321 11.125509510869563  3.841796875 11.125509510869563  L 3.158203125 11.125509510869563  C 2.90641276041668 11.125509510869563  2.70247395833332 11.421917459239125  2.70247395833332 11.787873641304344  C 2.70247395833332 12.153829823369563  2.90641276041668 12.450237771739125  3.158203125 12.450237771739125  L 3.841796875 12.450237771739125  C 4.093587239583321 12.450237771739125  4.297526041666679 12.153829823369563  4.297526041666679 11.787873641304344  Z M 6.8837890625 11.787873641304344  C 6.8837890625 11.421917459239125  6.679850260416679 11.125509510869563  6.428059895833321 11.125509510869563  L 5.744466145833321 11.125509510869563  C 5.49267578125 11.125509510869563  5.288736979166679 11.421917459239125  5.288736979166679 11.787873641304344  C 5.288736979166679 12.153829823369563  5.49267578125 12.450237771739125  5.744466145833321 12.450237771739125  L 6.428059895833321 12.450237771739125  C 6.679850260416679 12.450237771739125  6.8837890625 12.153829823369563  6.8837890625 11.787873641304344  Z " fill-rule="nonzero" fill="#999999" stroke="none" transform="matrix(1 0 0 1 4436 335 )" />
  </g>
</svg>