<?xml version="1.0" encoding="utf-8"?>
<svg version="1.1" xmlns:xlink="http://www.w3.org/1999/xlink" width="12px" height="15px" xmlns="http://www.w3.org/2000/svg">
  <g transform="matrix(1 0 0 1 -4435 -336 )">
    <path d="M 11.625 2.4795297475961604  C 11.625 1.3606144831730802  10.949497767857125 0.451284555288467  10.118303571428584 0.451284555288467  L 9.465401785714292 0.451284555288467  C 9.187918526785708 0.451284555288467  8.963169642857125 0.7538311298076934  8.963169642857125 1.1273662860576934  C 8.963169642857125 1.5009014423076934  9.187918526785708 1.8034480168269198  9.465401785714292 1.8034480168269198  L 10.118303571428584 1.8034480168269198  C 10.395786830357125 1.8034480168269198  10.620535714285708 2.1059945913461604  10.620535714285708 2.4795297475961604  L 10.620535714285708 4.08353365384616  L 1.3794642857142918 4.08353365384616  L 1.3794642857142918 2.4795297475961604  C 1.3794642857142918 2.1059945913461604  1.6042131696428754 1.8034480168269198  1.8816964285714164 1.8034480168269198  L 2.534598214285708 1.8034480168269198  C 2.812081473214292 1.8034480168269198  3.0368303571428754 1.5009014423076934  3.0368303571428754 1.1273662860576934  C 3.0368303571428754 0.7538311298076934  2.812081473214292 0.451284555288467  2.534598214285708 0.451284555288467  L 1.8816964285714164 0.451284555288467  C 1.0505022321428754 0.451284555288467  0.375 1.3606144831730802  0.375 2.4795297475961604  L 0.375 12.466947115384613  C 0.375 13.585862379807693  1.0505022321428754 14.495192307692307  1.8816964285714164 14.495192307692307  L 10.118303571428584 14.495192307692307  C 10.949497767857125 14.495192307692307  11.625 13.585862379807693  11.625 12.466947115384613  L 11.625 2.4795297475961604  Z M 10.620535714285708 12.466947115384613  C 10.620535714285708 12.840482271634613  10.395786830357125 13.14302884615384  10.118303571428584 13.14302884615384  L 1.8816964285714164 13.14302884615384  C 1.6042131696428754 13.14302884615384  1.3794642857142918 12.840482271634613  1.3794642857142918 12.466947115384613  L 1.3794642857142918 5.435697115384613  L 10.620535714285708 5.435697115384613  L 10.620535714285708 12.466947115384613  Z " fill-rule="nonzero" fill="#999999" stroke="none" transform="matrix(1 0 0 1 4435 336 )" />
  </g>
</svg>