<?xml version="1.0" encoding="utf-8"?>
<svg version="1.1" xmlns:xlink="http://www.w3.org/1999/xlink" width="19px" height="16px" xmlns="http://www.w3.org/2000/svg">
  <g transform="matrix(1 0 0 1 -6202 -357 )">
    <path d="M 6211.5 357  C 6216.82 357  6221 360.52  6221 365  C 6221 369.48  6216.82 373  6211.5 373  C 6206.18 373  6202 369.48  6202 365  C 6202 360.52  6206.18 357  6211.5 357  Z " fill-rule="nonzero" fill="#ffffff" stroke="none" />
    <path d="M 6211.5 357.5  C 6216.54 357.5  6220.5 360.8  6220.5 365  C 6220.5 369.2  6216.54 372.5  6211.5 372.5  C 6206.46 372.5  6202.5 369.2  6202.5 365  C 6202.5 360.8  6206.46 357.5  6211.5 357.5  Z " stroke-width="1" stroke="#797979" fill="none" />
  </g>
</svg>