<?xml version="1.0" encoding="utf-8"?>
<svg version="1.1" xmlns:xlink="http://www.w3.org/1999/xlink" width="19px" height="16px" xmlns="http://www.w3.org/2000/svg">
  <g transform="matrix(1 0 0 1 -6202 -384 )">
    <path d="M 6211.5 384  C 6216.82 384  6221 387.52  6221 392  C 6221 396.48  6216.82 400  6211.5 400  C 6206.18 400  6202 396.48  6202 392  C 6202 387.52  6206.18 384  6211.5 384  Z " fill-rule="nonzero" fill="#02a7f0" stroke="none" />
    <path d="M 6211.5 384.5  C 6216.54 384.5  6220.5 387.8  6220.5 392  C 6220.5 396.2  6216.54 399.5  6211.5 399.5  C 6206.46 399.5  6202.5 396.2  6202.5 392  C 6202.5 387.8  6206.46 384.5  6211.5 384.5  Z " stroke-width="1" stroke="#797979" fill="none" />
  </g>
</svg>