<?xml version="1.0" encoding="utf-8"?>
<svg version="1.1" xmlns:xlink="http://www.w3.org/1999/xlink" width="11px" height="13px" xmlns="http://www.w3.org/2000/svg">
  <g transform="matrix(1 0 0 1 -1153 -1636 )">
    <path d="M 10.65625 2.1489257812500058  C 10.65625 1.1791992187500029  10.037039620535698 0.3911132812500047  9.275111607142868 0.3911132812500047  L 8.676618303571434 0.3911132812500047  C 8.422258649553566 0.3911132812500047  8.216238839285698 0.653320312500001  8.216238839285698 0.977050781250001  C 8.216238839285698 1.3007812500000009  8.422258649553566 1.5629882812499971  8.676618303571434 1.5629882812499971  L 9.275111607142868 1.5629882812499971  C 9.529471261160698 1.5629882812499971  9.735491071428566 1.8251953125000058  9.735491071428566 2.1489257812500058  L 9.735491071428566 3.5390625000000058  L 1.2645089285714342 3.5390625000000058  L 1.2645089285714342 2.1489257812500058  C 1.2645089285714342 1.8251953125000058  1.4705287388393025 1.5629882812499971  1.7248883928571317 1.5629882812499971  L 2.323381696428566 1.5629882812499971  C 2.577741350446434 1.5629882812499971  2.7837611607143025 1.3007812500000009  2.7837611607143025 0.977050781250001  C 2.7837611607143025 0.653320312500001  2.577741350446434 0.3911132812500047  2.323381696428566 0.3911132812500047  L 1.7248883928571317 0.3911132812500047  C 0.9629603794643025 0.3911132812500047  0.34375 1.1791992187500029  0.34375 2.1489257812500058  L 0.34375 10.804687499999998  C 0.34375 11.774414062500002  0.9629603794643025 12.562499999999998  1.7248883928571317 12.562499999999998  L 9.275111607142868 12.562499999999998  C 10.037039620535698 12.562499999999998  10.65625 11.774414062500002  10.65625 10.804687499999998  L 10.65625 2.1489257812500058  Z M 9.735491071428566 10.804687499999998  C 9.735491071428566 11.128417968749998  9.529471261160698 11.390624999999995  9.275111607142868 11.390624999999995  L 1.7248883928571317 11.390624999999995  C 1.4705287388393025 11.390624999999995  1.2645089285714342 11.128417968749998  1.2645089285714342 10.804687499999998  L 1.2645089285714342 4.710937499999998  L 9.735491071428566 4.710937499999998  L 9.735491071428566 10.804687499999998  Z " fill-rule="nonzero" fill="#999999" stroke="none" transform="matrix(1 0 0 1 1153 1636 )" />
  </g>
</svg>