<?xml version="1.0" encoding="utf-8"?>
<svg version="1.1" xmlns:xlink="http://www.w3.org/1999/xlink" width="6px" height="12px" xmlns="http://www.w3.org/2000/svg">
  <g transform="matrix(1 0 0 1 -1155 -1635 )">
    <path d="M 1.564453125 8.00747282608696  C 1.564453125 7.66966711956522  1.3896484375000115 7.396059782608702  1.1738281249999885 7.396059782608702  L 0.5878906249999887 7.396059782608702  C 0.3720703125 7.396059782608702  0.19726562500001135 7.66966711956522  0.19726562500001135 8.00747282608696  C 0.19726562500001135 8.345278532608702  0.3720703125 8.61888586956522  0.5878906249999887 8.61888586956522  L 1.1738281249999885 8.61888586956522  C 1.3896484375000115 8.61888586956522  1.564453125 8.345278532608702  1.564453125 8.00747282608696  Z M 0.9980468749999886 3.0565557065217406  C 0.9980468749999886 3.3928328804347787  1.1728515625000115 3.66796875  1.388671875 3.66796875  C 1.6044921874999885 3.66796875  1.7792968750000115 3.3943614130434803  1.7792968750000115 3.0565557065217406  L 1.7792968750000115 1.0679347826087013  C 1.7792968750000115 0.7301290760869611  1.6044921874999885 0.4565217391304285  1.388671875 0.4565217391304285  C 1.1728515625000115 0.4565217391304285  0.9980468749999886 0.7301290760869611  0.9980468749999886 1.0679347826087013  L 0.9980468749999886 3.0565557065217406  Z M 2.12109375 2.06148097826087  C 2.12109375 2.3992866847826106  2.2958984374999885 2.67289402173913  2.5117187500000115 2.67289402173913  L 3.488281249999989 2.67289402173913  C 3.704101562500011 2.67289402173913  3.87890625 2.3992866847826106  3.87890625 2.06148097826087  C 3.87890625 1.7236752717391297  3.704101562500011 1.4500679347826104  3.488281249999989 1.4500679347826104  L 2.5117187500000115 1.4500679347826104  C 2.2958984374999885 1.4500679347826104  2.12109375 1.7236752717391297  2.12109375 2.06148097826087  Z M 4.220703124999989 3.0565557065217406  C 4.220703124999989 3.3928328804347787  4.395507812500011 3.66796875  4.611328125 3.66796875  C 4.827148437499989 3.66796875  5.001953125000011 3.3943614130434803  5.001953125000011 3.0565557065217406  L 5.001953125000011 1.0679347826087013  C 5.001953125000011 0.7301290760869611  4.827148437499989 0.4565217391304285  4.611328125 0.4565217391304285  C 4.395507812500011 0.4565217391304285  4.220703124999989 0.7301290760869611  4.220703124999989 1.0679347826087013  L 4.220703124999989 3.0565557065217406  Z M 3.683593750000011 8.00747282608696  C 3.683593750000011 7.66966711956522  3.508789062499989 7.396059782608702  3.29296875 7.396059782608702  L 2.70703125 7.396059782608702  C 2.4912109375000115 7.396059782608702  2.3164062499999885 7.66966711956522  2.3164062499999885 8.00747282608696  C 2.3164062499999885 8.345278532608702  2.4912109375000115 8.61888586956522  2.70703125 8.61888586956522  L 3.29296875 8.61888586956522  C 3.508789062499989 8.61888586956522  3.683593750000011 8.345278532608702  3.683593750000011 8.00747282608696  Z M 5.900390625 8.00747282608696  C 5.900390625 7.66966711956522  5.725585937500011 7.396059782608702  5.509765624999989 7.396059782608702  L 4.923828124999989 7.396059782608702  C 4.7080078125 7.396059782608702  4.533203125000011 7.66966711956522  4.533203125000011 8.00747282608696  C 4.533203125000011 8.345278532608702  4.7080078125 8.61888586956522  4.923828124999989 8.61888586956522  L 5.509765624999989 8.61888586956522  C 5.725585937500011 8.61888586956522  5.900390625 8.345278532608702  5.900390625 8.00747282608696  Z M 1.564453125 10.88111413043478  C 1.564453125 10.54330842391304  1.3896484375000115 10.26970108695652  1.1738281249999885 10.26970108695652  L 0.5878906249999887 10.26970108695652  C 0.3720703125 10.26970108695652  0.19726562500001135 10.54330842391304  0.19726562500001135 10.88111413043478  C 0.19726562500001135 11.21891983695652  0.3720703125 11.49252717391304  0.5878906249999887 11.49252717391304  L 1.1738281249999885 11.49252717391304  C 1.3896484375000115 11.49252717391304  1.564453125 11.21891983695652  1.564453125 10.88111413043478  Z M 3.683593750000011 10.88111413043478  C 3.683593750000011 10.54330842391304  3.508789062499989 10.26970108695652  3.29296875 10.26970108695652  L 2.70703125 10.26970108695652  C 2.4912109375000115 10.26970108695652  2.3164062499999885 10.54330842391304  2.3164062499999885 10.88111413043478  C 2.3164062499999885 11.21891983695652  2.4912109375000115 11.49252717391304  2.70703125 11.49252717391304  L 3.29296875 11.49252717391304  C 3.508789062499989 11.49252717391304  3.683593750000011 11.21891983695652  3.683593750000011 10.88111413043478  Z M 5.900390625 10.88111413043478  C 5.900390625 10.54330842391304  5.725585937500011 10.26970108695652  5.509765624999989 10.26970108695652  L 4.923828124999989 10.26970108695652  C 4.7080078125 10.26970108695652  4.533203125000011 10.54330842391304  4.533203125000011 10.88111413043478  C 4.533203125000011 11.21891983695652  4.7080078125 11.49252717391304  4.923828124999989 11.49252717391304  L 5.509765624999989 11.49252717391304  C 5.725585937500011 11.49252717391304  5.900390625 11.21891983695652  5.900390625 10.88111413043478  Z " fill-rule="nonzero" fill="#999999" stroke="none" transform="matrix(1 0 0 1 1155 1635 )" />
  </g>
</svg>