<?xml version="1.0" encoding="utf-8"?>
<svg version="1.1" xmlns:xlink="http://www.w3.org/1999/xlink" width="13px" height="13px" xmlns="http://www.w3.org/2000/svg">
  <g transform="matrix(1 0 0 1 -655 -470 )">
    <path d="M 661.5 470  C 665.14 470  668 472.86  668 476.5  C 668 480.14  665.14 483  661.5 483  C 657.86 483  655 480.14  655 476.5  C 655 472.86  657.86 470  661.5 470  Z " fill-rule="nonzero" fill="#ffffff" stroke="none" />
    <path d="M 661.5 470.5  C 664.86 470.5  667.5 473.14  667.5 476.5  C 667.5 479.86  664.86 482.5  661.5 482.5  C 658.14 482.5  655.5 479.86  655.5 476.5  C 655.5 473.14  658.14 470.5  661.5 470.5  Z " stroke-width="1" stroke="#797979" fill="none" />
  </g>
</svg>