<?xml version="1.0" encoding="utf-8"?>
<svg version="1.1" xmlns:xlink="http://www.w3.org/1999/xlink" width="143px" height="143px" xmlns="http://www.w3.org/2000/svg">
  <g transform="matrix(1 0 0 1 -2883 -2334 )">
    <path d="M 26 104  L 39 104  L 39 117  L 26 117  L 26 104  Z M 26 26  L 39 26  L 39 39  L 26 39  L 26 26  Z M 104 26  L 117 26  L 117 39  L 104 39  L 104 26  Z M 13 91  L 13 129  L 52 129  L 52 91  L 13 91  Z M 13 13  L 13 52  L 52 52  L 52 13  L 13 13  Z M 91 13  L 91 52  L 130 52  L 130 13  L 91 13  Z M 0 78  L 65 78  L 65 143  L 0 143  L 0 78  Z M 104 130  L 117 130  L 117 143  L 104 143  L 104 130  Z M 130 130  L 143 130  L 143 143  L 130 143  L 130 130  Z M 130 78  L 143 78  L 143 117  L 104 117  L 104 104  L 91 104  L 91 143  L 78 143  L 78 78  L 117 78  L 117 91  L 130 91  L 130 78  Z M 0 0  L 65 0  L 65 65  L 0 65  L 0 0  Z M 78 0  L 143 0  L 143 65  L 78 65  L 78 0  Z " fill-rule="nonzero" fill="#000000" stroke="none" transform="matrix(1 0 0 1 2883 2334 )" />
  </g>
</svg>