<?xml version="1.0" encoding="utf-8"?>
<svg version="1.1" xmlns:xlink="http://www.w3.org/1999/xlink" width="122px" height="122px" xmlns="http://www.w3.org/2000/svg">
  <g transform="matrix(1 0 0 1 -265 -1221 )">
    <path d="M 266 1225  A 3 3 0 0 1 269 1222 L 383 1222  A 3 3 0 0 1 386 1225 L 386 1339  A 3 3 0 0 1 383 1342 L 269 1342  A 3 3 0 0 1 266 1339 L 266 1225  Z " fill-rule="nonzero" fill="#ffffff" stroke="none" />
    <path d="M 265.5 1225  A 3.5 3.5 0 0 1 269 1221.5 L 383 1221.5  A 3.5 3.5 0 0 1 386.5 1225 L 386.5 1339  A 3.5 3.5 0 0 1 383 1342.5 L 269 1342.5  A 3.5 3.5 0 0 1 265.5 1339 L 265.5 1225  Z " stroke-width="1" stroke-dasharray="3,1" stroke="#dddddd" fill="none" stroke-dashoffset="0.5" />
  </g>
</svg>