<?xml version="1.0" encoding="utf-8"?>
<svg version="1.1" xmlns:xlink="http://www.w3.org/1999/xlink" width="16px" height="16px" xmlns="http://www.w3.org/2000/svg">
  <g transform="matrix(1 0 0 1 -585 -276 )">
    <path d="M 16 8  C 16 3.5821428571428555  12.417857142857144 0  8 0  C 3.5821428571428555 0  0 3.5821428571428555  0 8  C 0 12.417857142857144  3.5821428571428555 16  8 16  C 12.417857142857144 16  16 12.417857142857144  16 8  Z M 14.055357142857133 10.55714285714285  C 13.725000000000023 11.339285714285722  13.25 12.042857142857144  12.6464285714286 12.646428571428572  C 12.042857142857144 13.25  11.339285714285722 13.724999999999994  10.557142857142878 14.055357142857147  C 9.748214285714312 14.398214285714289  8.887499999999989 14.57142857142857  8 14.57142857142857  C 7.112500000000011 14.57142857142857  6.251785714285688 14.398214285714289  5.442857142857122 14.055357142857147  C 4.660714285714278 13.724999999999994  3.9571428571428555 13.25  3.3535714285713993 12.646428571428572  C 2.75 12.042857142857144  2.2749999999999773 11.339285714285722  1.9446428571428669 10.55714285714285  C 1.601785714285711 9.748214285714283  1.4285714285714448 8.887500000000003  1.4285714285714448 8  C 1.4285714285714448 7.112499999999997  1.601785714285711 6.251785714285717  1.9446428571428669 5.44285714285715  C 2.2749999999999773 4.660714285714278  2.75 3.9571428571428555  3.3535714285713993 3.3535714285714278  C 3.9571428571428555 2.75  4.660714285714278 2.2750000000000057  5.442857142857122 1.9446428571428669  C 6.251785714285688 1.601785714285711  7.112500000000011 1.4285714285714306  8 1.4285714285714306  C 8.887499999999989 1.4285714285714306  9.748214285714312 1.601785714285711  10.557142857142878 1.9446428571428669  C 11.339285714285722 2.2750000000000057  12.042857142857144 2.75  12.6464285714286 3.3535714285714278  C 13.25 3.9571428571428555  13.725000000000023 4.660714285714278  14.055357142857133 5.44285714285715  C 14.398214285714289 6.251785714285717  14.571428571428555 7.112499999999997  14.571428571428555 8  C 14.571428571428555 8.887500000000003  14.398214285714289 9.748214285714283  14.055357142857133 10.55714285714285  Z " fill-rule="nonzero" fill="#999999" stroke="none" transform="matrix(1 0 0 1 585 276 )" />
  </g>
</svg>