<?xml version="1.0" encoding="utf-8"?>
<svg version="1.1" xmlns:xlink="http://www.w3.org/1999/xlink" width="6px" height="8px" xmlns="http://www.w3.org/2000/svg">
  <g transform="matrix(1 0 0 1 -593 -279 )">
    <path d="M 5.871428571428567 7.641870824053456  C 6.09591836734694 7.303340757238317  5.96326530612248 6.86681514476615  5.571428571428555 6.670824053452122  L 1.6326530612245165 4.684187082405344  L 1.6326530612245165 0.7126948775055695  C 1.6326530612245165 0.31893095768373314  1.2673469387755176 0  0.8163265306122298 0  C 0.36530612244899885 0  0 0.31893095768373314  0 0.7126948775055695  L 0 5.095768374164805  C 0 5.097550111358572  0 5.097550111358572  0 5.099331848552339  C 0 5.108240534521158  0 5.117149220489978  0 5.126057906458797  C 0 5.129621380846331  0 5.13318485523385  0 5.136748329621383  C 0 5.143875278396436  0.002040816326541517 5.151002227171489  0.002040816326541517 5.158129175946556  C 0.002040816326541517 5.163474387527842  0.004081632653083034 5.168819599109128  0.004081632653083034 5.174164810690428  C 0.004081632653083034 5.179510022271714  0.006122448979567707 5.184855233853  0.006122448979567707 5.1902004454343  C 0.008163265306109224 5.197327394209353  0.008163265306109224 5.2044543429844055  0.010204081632650741 5.211581291759472  C 0.010204081632650741 5.213363028953239  0.012244897959192258 5.216926503340758  0.012244897959192258 5.218708240534525  C 0.014285714285733775 5.2276169265033445  0.01632653061221845 5.236525612472164  0.018367346938759965 5.24721603563475  C 0.03469387755103526 5.314922048997772  0.06326530612244596 5.379064587973275  0.10000000000002274 5.437861915367478  C 0.10204081632650741 5.443207126948778  0.10612244897959044 5.446770601336311  0.11020408163267348 5.452115812917597  C 0.11428571428569967 5.457461024498883  0.11632653061224119 5.461024498886417  0.12040816326532422 5.466369710467717  C 0.16122448979592718 5.523385300668153  0.21020408163263937 5.5768374164810695  0.26734693877551763 5.623162583518933  C 0.27551020408162685 5.630289532293986  0.2836734693877361 5.635634743875272  0.29183673469390214 5.640979955456572  C 0.2938775510203868 5.642761692650339  0.29591836734692833 5.644543429844106  0.30000000000001137 5.646325167037858  C 0.3061224489795791 5.651670378619144  0.3122448979592036 5.655233853006678  0.31836734693877133 5.658797327394211  C 0.32244897959185437 5.662360801781745  0.3285714285714221 5.665924276169264  0.3326530612245051 5.667706013363031  C 0.3367346938775313 5.67126948775055  0.34285714285715585 5.673051224944317  0.34693877551018204 5.67661469933185  C 0.3530612244898066 5.6801781737193835  0.3612244897959158 5.6855233853006695  0.36734693877554037 5.689086859688189  C 0.37142857142856656 5.6908685968819555  0.3734693877551081 5.692650334075722  0.3775510204081911 5.694432071269489  C 0.38571428571430033 5.699777282850789  0.3959183673469511 5.703340757238308  0.4040816326530603 5.708685968819594  C 0.4061224489796018 5.708685968819594  0.4061224489796018 5.710467706013361  0.40816326530614333 5.710467706013361  L 4.755102040816325 7.902004454342986  C 4.883673469387759 7.966146993318489  5.0244897959183845 7.998218262806233  5.163265306122469 7.998218262806233  C 5.444897959183663 7.998218262806233  5.72040816326529 7.869933184855228  5.871428571428567 7.641870824053456  Z " fill-rule="nonzero" fill="#999999" stroke="none" transform="matrix(1 0 0 1 593 279 )" />
  </g>
</svg>